<?xml version="1.0" encoding="UTF-8" standalone="no"?>
<!DOCTYPE svg PUBLIC "-//W3C//DTD SVG 1.1//EN"
 "http://www.w3.org/Graphics/SVG/1.1/DTD/svg11.dtd">
<!-- Generated by graphviz version 2.40.1 (20161225.0304)
 -->
<!-- Title: dependencies Pages: 1 -->
<svg width="2906pt" height="284pt"
 viewBox="0.00 0.00 2906.00 284.00" xmlns="http://www.w3.org/2000/svg" xmlns:xlink="http://www.w3.org/1999/xlink">
<g id="graph0" class="graph" transform="scale(1 1) rotate(0) translate(4 280)">
<title>dependencies</title>
<polygon fill="#ffffff" stroke="transparent" points="-4,4 -4,-280 2902,-280 2902,4 -4,4"/>
<text text-anchor="start" x="1428.0091" y="-42.4" font-family="sans-serif" font-weight="bold" font-size="14.00" fill="#000000">Legend</text>
<polygon fill="#ffffb3" stroke="transparent" points="1215,-10 1215,-30 1235,-30 1235,-10 1215,-10"/>
<text text-anchor="start" x="1238.629" y="-15.4" font-family="sans-serif" font-size="14.00" fill="#000000"> &#160;Declarations</text>
<polygon fill="#8dd3c7" stroke="transparent" points="1328,-10 1328,-30 1348,-30 1348,-10 1328,-10"/>
<text text-anchor="start" x="1351.7251" y="-15.4" font-family="sans-serif" font-size="14.00" fill="#000000"> &#160;Module</text>
<polygon fill="#80b1d3" stroke="transparent" points="1414,-10 1414,-30 1434,-30 1434,-10 1414,-10"/>
<text text-anchor="start" x="1437.7812" y="-15.4" font-family="sans-serif" font-size="14.00" fill="#000000"> &#160;Bootstrap</text>
<polygon fill="#fdb462" stroke="transparent" points="1511,-10 1511,-30 1531,-30 1531,-10 1511,-10"/>
<text text-anchor="start" x="1534.6732" y="-15.4" font-family="sans-serif" font-size="14.00" fill="#000000"> &#160;Providers</text>
<polygon fill="#fb8072" stroke="transparent" points="1607,-10 1607,-30 1627,-30 1627,-10 1607,-10"/>
<text text-anchor="start" x="1630.7258" y="-15.4" font-family="sans-serif" font-size="14.00" fill="#000000"> &#160;Exports</text>
<g id="clust1" class="cluster">
<title>cluster_NgXformModule</title>
<polygon fill="none" stroke="#000000" stroke-dasharray="1,5" points="8,-70 8,-268 2471,-268 2471,-70 8,-70"/>
</g>
<g id="clust2" class="cluster">
<title>cluster_NgXformModule_declarations</title>
<polygon fill="none" stroke="#000000" points="16,-78 16,-130 2463,-130 2463,-78 16,-78"/>
</g>
<g id="clust18" class="cluster">
<title>cluster_NgXformModule_exports</title>
<polygon fill="none" stroke="#000000" points="1044,-208 1044,-260 1410,-260 1410,-208 1044,-208"/>
</g>
<g id="clust21" class="cluster">
<title>cluster_PipesModule</title>
<polygon fill="none" stroke="#000000" stroke-dasharray="1,5" points="2479,-70 2479,-268 2890,-268 2890,-70 2479,-70"/>
</g>
<g id="clust22" class="cluster">
<title>cluster_PipesModule_declarations</title>
<polygon fill="none" stroke="#000000" points="2492,-78 2492,-130 2876,-130 2876,-78 2492,-78"/>
</g>
<g id="clust27" class="cluster">
<title>cluster_PipesModule_exports</title>
<polygon fill="none" stroke="#000000" points="2487,-208 2487,-260 2882,-260 2882,-208 2487,-208"/>
</g>
<!-- NgXformComponent -->
<g id="node1" class="node">
<title>NgXformComponent</title>
<polygon fill="#ffffb3" stroke="#000000" points="2454.7576,-122 2319.2424,-122 2319.2424,-86 2454.7576,-86 2454.7576,-122"/>
<text text-anchor="middle" x="2387" y="-99.8" font-family="Times,serif" font-size="14.00" fill="#000000">NgXformComponent</text>
</g>
<!-- NgXformModule -->
<g id="node15" class="node">
<title>NgXformModule</title>
<polygon fill="#8dd3c7" stroke="#000000" points="1296.9748,-187 1293.9748,-191 1272.9748,-191 1269.9748,-187 1183.0252,-187 1183.0252,-151 1296.9748,-151 1296.9748,-187"/>
<text text-anchor="middle" x="1240" y="-164.8" font-family="Times,serif" font-size="14.00" fill="#000000">NgXformModule</text>
</g>
<!-- NgXformComponent&#45;&gt;NgXformModule -->
<g id="edge1" class="edge">
<title>NgXformComponent&#45;&gt;NgXformModule</title>
<path fill="none" stroke="#000000" d="M2387,-122.2843C2387,-143.3211 2387,-175 2387,-175 2387,-175 1307.2723,-175 1307.2723,-175"/>
<polygon fill="#000000" stroke="#000000" points="1307.2724,-171.5001 1297.2723,-175 1307.2723,-178.5001 1307.2724,-171.5001"/>
</g>
<!-- FormGroupComponent -->
<g id="node2" class="node">
<title>FormGroupComponent</title>
<polygon fill="#ffffb3" stroke="#000000" points="2300.934,-122 2153.066,-122 2153.066,-86 2300.934,-86 2300.934,-122"/>
<text text-anchor="middle" x="2227" y="-99.8" font-family="Times,serif" font-size="14.00" fill="#000000">FormGroupComponent</text>
</g>
<!-- FormGroupComponent&#45;&gt;NgXformModule -->
<g id="edge2" class="edge">
<title>FormGroupComponent&#45;&gt;NgXformModule</title>
<path fill="none" stroke="#000000" d="M2227,-122.308C2227,-142.1455 2227,-171 2227,-171 2227,-171 1307.3315,-171 1307.3315,-171"/>
<polygon fill="#000000" stroke="#000000" points="1307.3315,-167.5001 1297.3315,-171 1307.3314,-174.5001 1307.3315,-167.5001"/>
</g>
<!-- EditableLabelComponent -->
<g id="node3" class="node">
<title>EditableLabelComponent</title>
<polygon fill="#ffffb3" stroke="#000000" points="2134.8585,-122 1975.1415,-122 1975.1415,-86 2134.8585,-86 2134.8585,-122"/>
<text text-anchor="middle" x="2055" y="-99.8" font-family="Times,serif" font-size="14.00" fill="#000000">EditableLabelComponent</text>
</g>
<!-- EditableLabelComponent&#45;&gt;NgXformModule -->
<g id="edge3" class="edge">
<title>EditableLabelComponent&#45;&gt;NgXformModule</title>
<path fill="none" stroke="#000000" d="M2055,-122.2222C2055,-140.8285 2055,-167 2055,-167 2055,-167 1306.9853,-167 1306.9853,-167"/>
<polygon fill="#000000" stroke="#000000" points="1306.9853,-163.5001 1296.9853,-167 1306.9853,-170.5001 1306.9853,-163.5001"/>
</g>
<!-- CheckboxFieldComponent -->
<g id="node4" class="node">
<title>CheckboxFieldComponent</title>
<polygon fill="#ffffb3" stroke="#000000" points="1957.3766,-122 1790.6234,-122 1790.6234,-86 1957.3766,-86 1957.3766,-122"/>
<text text-anchor="middle" x="1874" y="-99.8" font-family="Times,serif" font-size="14.00" fill="#000000">CheckboxFieldComponent</text>
</g>
<!-- CheckboxFieldComponent&#45;&gt;NgXformModule -->
<g id="edge4" class="edge">
<title>CheckboxFieldComponent&#45;&gt;NgXformModule</title>
<path fill="none" stroke="#000000" d="M1874,-122.0225C1874,-139.3734 1874,-163 1874,-163 1874,-163 1307.1011,-163 1307.1011,-163"/>
<polygon fill="#000000" stroke="#000000" points="1307.1011,-159.5001 1297.1011,-163 1307.101,-166.5001 1307.1011,-159.5001"/>
</g>
<!-- CustomFieldComponent -->
<g id="node5" class="node">
<title>CustomFieldComponent</title>
<polygon fill="#ffffb3" stroke="#000000" points="1772.6735,-122 1619.3265,-122 1619.3265,-86 1772.6735,-86 1772.6735,-122"/>
<text text-anchor="middle" x="1696" y="-99.8" font-family="Times,serif" font-size="14.00" fill="#000000">CustomFieldComponent</text>
</g>
<!-- CustomFieldComponent&#45;&gt;NgXformModule -->
<g id="edge5" class="edge">
<title>CustomFieldComponent&#45;&gt;NgXformModule</title>
<path fill="none" stroke="#000000" d="M1696,-122.0091C1696,-138.0494 1696,-159 1696,-159 1696,-159 1307.291,-159 1307.291,-159"/>
<polygon fill="#000000" stroke="#000000" points="1307.291,-155.5001 1297.291,-159 1307.291,-162.5001 1307.291,-155.5001"/>
</g>
<!-- RadioGroupFieldComponent -->
<g id="node6" class="node">
<title>RadioGroupFieldComponent</title>
<polygon fill="#ffffb3" stroke="#000000" points="1601.8201,-122 1422.1799,-122 1422.1799,-86 1601.8201,-86 1601.8201,-122"/>
<text text-anchor="middle" x="1512" y="-99.8" font-family="Times,serif" font-size="14.00" fill="#000000">RadioGroupFieldComponent</text>
</g>
<!-- RadioGroupFieldComponent&#45;&gt;NgXformModule -->
<g id="edge6" class="edge">
<title>RadioGroupFieldComponent&#45;&gt;NgXformModule</title>
<path fill="none" stroke="#000000" d="M1512,-122.1243C1512,-136.7832 1512,-155 1512,-155 1512,-155 1307.0201,-155 1307.0201,-155"/>
<polygon fill="#000000" stroke="#000000" points="1307.0201,-151.5001 1297.0201,-155 1307.0201,-158.5001 1307.0201,-151.5001"/>
</g>
<!-- MeasureFieldComponent -->
<g id="node7" class="node">
<title>MeasureFieldComponent</title>
<polygon fill="#ffffb3" stroke="#000000" points="1404.3047,-122 1245.6953,-122 1245.6953,-86 1404.3047,-86 1404.3047,-122"/>
<text text-anchor="middle" x="1325" y="-99.8" font-family="Times,serif" font-size="14.00" fill="#000000">MeasureFieldComponent</text>
</g>
<!-- MeasureFieldComponent&#45;&gt;NgXformModule -->
<g id="edge7" class="edge">
<title>MeasureFieldComponent&#45;&gt;NgXformModule</title>
<path fill="none" stroke="#000000" d="M1271.4176,-122.1061C1271.4176,-122.1061 1271.4176,-140.991 1271.4176,-140.991"/>
<polygon fill="#000000" stroke="#000000" points="1267.9177,-140.9909 1271.4176,-150.991 1274.9177,-140.991 1267.9177,-140.9909"/>
</g>
<!-- SelectFieldComponent -->
<g id="node8" class="node">
<title>SelectFieldComponent</title>
<polygon fill="#ffffb3" stroke="#000000" points="1228.3188,-122 1083.6812,-122 1083.6812,-86 1228.3188,-86 1228.3188,-122"/>
<text text-anchor="middle" x="1156" y="-99.8" font-family="Times,serif" font-size="14.00" fill="#000000">SelectFieldComponent</text>
</g>
<!-- SelectFieldComponent&#45;&gt;NgXformModule -->
<g id="edge8" class="edge">
<title>SelectFieldComponent&#45;&gt;NgXformModule</title>
<path fill="none" stroke="#000000" d="M1205.5859,-122.1061C1205.5859,-122.1061 1205.5859,-140.991 1205.5859,-140.991"/>
<polygon fill="#000000" stroke="#000000" points="1202.086,-140.9909 1205.5859,-150.991 1209.086,-140.991 1202.086,-140.9909"/>
</g>
<!-- FieldErrorMessageComponent -->
<g id="node9" class="node">
<title>FieldErrorMessageComponent</title>
<polygon fill="#ffffb3" stroke="#000000" points="1066.1232,-122 877.8768,-122 877.8768,-86 1066.1232,-86 1066.1232,-122"/>
<text text-anchor="middle" x="972" y="-99.8" font-family="Times,serif" font-size="14.00" fill="#000000">FieldErrorMessageComponent</text>
</g>
<!-- FieldErrorMessageComponent&#45;&gt;NgXformModule -->
<g id="edge9" class="edge">
<title>FieldErrorMessageComponent&#45;&gt;NgXformModule</title>
<path fill="none" stroke="#000000" d="M1059.125,-122.2396C1059.125,-137.5706 1059.125,-157 1059.125,-157 1059.125,-157 1172.77,-157 1172.77,-157"/>
<polygon fill="#000000" stroke="#000000" points="1172.7701,-160.5001 1182.77,-157 1172.77,-153.5001 1172.7701,-160.5001"/>
</g>
<!-- ErrorMessagePipe -->
<g id="node10" class="node">
<title>ErrorMessagePipe</title>
<polygon fill="#ffffb3" stroke="#000000" points="859.9005,-122 740.0995,-122 740.0995,-86 859.9005,-86 859.9005,-122"/>
<text text-anchor="middle" x="800" y="-99.8" font-family="Times,serif" font-size="14.00" fill="#000000">ErrorMessagePipe</text>
</g>
<!-- ErrorMessagePipe&#45;&gt;NgXformModule -->
<g id="edge10" class="edge">
<title>ErrorMessagePipe&#45;&gt;NgXformModule</title>
<path fill="none" stroke="#000000" d="M800,-122.0336C800,-139.0597 800,-162 800,-162 800,-162 1172.9288,-162 1172.9288,-162"/>
<polygon fill="#000000" stroke="#000000" points="1172.9288,-165.5001 1182.9288,-162 1172.9287,-158.5001 1172.9288,-165.5001"/>
</g>
<!-- MultilineFieldComponent -->
<g id="node11" class="node">
<title>MultilineFieldComponent</title>
<polygon fill="#ffffb3" stroke="#000000" points="722.2232,-122 559.7768,-122 559.7768,-86 722.2232,-86 722.2232,-122"/>
<text text-anchor="middle" x="641" y="-99.8" font-family="Times,serif" font-size="14.00" fill="#000000">MultilineFieldComponent</text>
</g>
<!-- MultilineFieldComponent&#45;&gt;NgXformModule -->
<g id="edge11" class="edge">
<title>MultilineFieldComponent&#45;&gt;NgXformModule</title>
<path fill="none" stroke="#000000" d="M641,-122.2222C641,-140.8285 641,-167 641,-167 641,-167 1172.8367,-167 1172.8367,-167"/>
<polygon fill="#000000" stroke="#000000" points="1172.8367,-170.5001 1182.8367,-167 1172.8367,-163.5001 1172.8367,-170.5001"/>
</g>
<!-- OptionalTagComponent -->
<g id="node12" class="node">
<title>OptionalTagComponent</title>
<polygon fill="#ffffb3" stroke="#000000" points="542.0926,-122 389.9074,-122 389.9074,-86 542.0926,-86 542.0926,-122"/>
<text text-anchor="middle" x="466" y="-99.8" font-family="Times,serif" font-size="14.00" fill="#000000">OptionalTagComponent</text>
</g>
<!-- OptionalTagComponent&#45;&gt;NgXformModule -->
<g id="edge12" class="edge">
<title>OptionalTagComponent&#45;&gt;NgXformModule</title>
<path fill="none" stroke="#000000" d="M466,-122.2228C466,-142.3652 466,-172 466,-172 466,-172 1172.7716,-172 1172.7716,-172"/>
<polygon fill="#000000" stroke="#000000" points="1172.7716,-175.5001 1182.7716,-172 1172.7716,-168.5001 1172.7716,-175.5001"/>
</g>
<!-- DateFieldComponent -->
<g id="node13" class="node">
<title>DateFieldComponent</title>
<polygon fill="#ffffb3" stroke="#000000" points="372.038,-122 235.962,-122 235.962,-86 372.038,-86 372.038,-122"/>
<text text-anchor="middle" x="304" y="-99.8" font-family="Times,serif" font-size="14.00" fill="#000000">DateFieldComponent</text>
</g>
<!-- DateFieldComponent&#45;&gt;NgXformModule -->
<g id="edge13" class="edge">
<title>DateFieldComponent&#45;&gt;NgXformModule</title>
<path fill="none" stroke="#000000" d="M304,-122.0449C304,-143.6623 304,-177 304,-177 304,-177 1172.858,-177 1172.858,-177"/>
<polygon fill="#000000" stroke="#000000" points="1172.858,-180.5001 1182.858,-177 1172.858,-173.5001 1172.858,-180.5001"/>
</g>
<!-- FormControlLayoutComponent -->
<g id="node14" class="node">
<title>FormControlLayoutComponent</title>
<polygon fill="#ffffb3" stroke="#000000" points="218.1024,-122 23.8976,-122 23.8976,-86 218.1024,-86 218.1024,-122"/>
<text text-anchor="middle" x="121" y="-99.8" font-family="Times,serif" font-size="14.00" fill="#000000">FormControlLayoutComponent</text>
</g>
<!-- FormControlLayoutComponent&#45;&gt;NgXformModule -->
<g id="edge14" class="edge">
<title>FormControlLayoutComponent&#45;&gt;NgXformModule</title>
<path fill="none" stroke="#000000" d="M121,-122.0908C121,-145.1328 121,-182 121,-182 121,-182 1172.9702,-182 1172.9702,-182"/>
<polygon fill="#000000" stroke="#000000" points="1172.9703,-185.5001 1182.9702,-182 1172.9702,-178.5001 1172.9703,-185.5001"/>
</g>
<!-- NgXformComponent  -->
<g id="node16" class="node">
<title>NgXformComponent </title>
<polygon fill="#fb8072" stroke="#000000" points="1401.7576,-252 1262.2424,-252 1262.2424,-216 1401.7576,-216 1401.7576,-252"/>
<text text-anchor="middle" x="1332" y="-229.8" font-family="Times,serif" font-size="14.00" fill="#000000">NgXformComponent </text>
</g>
<!-- NgXformModule&#45;&gt;NgXformComponent  -->
<g id="edge15" class="edge">
<title>NgXformModule&#45;&gt;NgXformComponent </title>
<path fill="none" stroke="#000000" stroke-dasharray="5,2" d="M1279.6793,-187.1061C1279.6793,-187.1061 1279.6793,-205.991 1279.6793,-205.991"/>
<polygon fill="#000000" stroke="#000000" points="1276.1794,-205.9909 1279.6793,-215.991 1283.1794,-205.991 1276.1794,-205.9909"/>
</g>
<!-- FieldErrorMessageComponent  -->
<g id="node17" class="node">
<title>FieldErrorMessageComponent </title>
<polygon fill="#fb8072" stroke="#000000" points="1244.1228,-252 1051.8772,-252 1051.8772,-216 1244.1228,-216 1244.1228,-252"/>
<text text-anchor="middle" x="1148" y="-229.8" font-family="Times,serif" font-size="14.00" fill="#000000">FieldErrorMessageComponent </text>
</g>
<!-- NgXformModule&#45;&gt;FieldErrorMessageComponent  -->
<g id="edge16" class="edge">
<title>NgXformModule&#45;&gt;FieldErrorMessageComponent </title>
<path fill="none" stroke="#000000" stroke-dasharray="5,2" d="M1213.537,-187.1061C1213.537,-187.1061 1213.537,-205.991 1213.537,-205.991"/>
<polygon fill="#000000" stroke="#000000" points="1210.0371,-205.9909 1213.537,-215.991 1217.0371,-205.991 1210.0371,-205.9909"/>
</g>
<!-- ForceUtcPipe -->
<g id="node18" class="node">
<title>ForceUtcPipe</title>
<polygon fill="#ffffb3" stroke="#000000" points="2868.472,-122 2775.528,-122 2775.528,-86 2868.472,-86 2868.472,-122"/>
<text text-anchor="middle" x="2822" y="-99.8" font-family="Times,serif" font-size="14.00" fill="#000000">ForceUtcPipe</text>
</g>
<!-- PipesModule -->
<g id="node21" class="node">
<title>PipesModule</title>
<polygon fill="#8dd3c7" stroke="#000000" points="2747.8823,-187 2744.8823,-191 2723.8823,-191 2720.8823,-187 2658.1177,-187 2658.1177,-151 2747.8823,-151 2747.8823,-187"/>
<text text-anchor="middle" x="2703" y="-164.8" font-family="Times,serif" font-size="14.00" fill="#000000">PipesModule</text>
</g>
<!-- ForceUtcPipe&#45;&gt;PipesModule -->
<g id="edge17" class="edge">
<title>ForceUtcPipe&#45;&gt;PipesModule</title>
<path fill="none" stroke="#000000" d="M2838.2453,-122.0225C2838.2453,-139.3734 2838.2453,-163 2838.2453,-163 2838.2453,-163 2758.0347,-163 2758.0347,-163"/>
<polygon fill="#000000" stroke="#000000" points="2758.0348,-159.5001 2748.0347,-163 2758.0347,-166.5001 2758.0348,-159.5001"/>
</g>
<!-- ValueSuffixPipe -->
<g id="node19" class="node">
<title>ValueSuffixPipe</title>
<polygon fill="#ffffb3" stroke="#000000" points="2757.809,-122 2648.191,-122 2648.191,-86 2757.809,-86 2757.809,-122"/>
<text text-anchor="middle" x="2703" y="-99.8" font-family="Times,serif" font-size="14.00" fill="#000000">ValueSuffixPipe</text>
</g>
<!-- ValueSuffixPipe&#45;&gt;PipesModule -->
<g id="edge18" class="edge">
<title>ValueSuffixPipe&#45;&gt;PipesModule</title>
<path fill="none" stroke="#000000" d="M2703,-122.1061C2703,-122.1061 2703,-140.991 2703,-140.991"/>
<polygon fill="#000000" stroke="#000000" points="2699.5001,-140.9909 2703,-150.991 2706.5001,-140.991 2699.5001,-140.9909"/>
</g>
<!-- NestedAttributePipe -->
<g id="node20" class="node">
<title>NestedAttributePipe</title>
<polygon fill="#ffffb3" stroke="#000000" points="2630.3034,-122 2499.6966,-122 2499.6966,-86 2630.3034,-86 2630.3034,-122"/>
<text text-anchor="middle" x="2565" y="-99.8" font-family="Times,serif" font-size="14.00" fill="#000000">NestedAttributePipe</text>
</g>
<!-- NestedAttributePipe&#45;&gt;PipesModule -->
<g id="edge19" class="edge">
<title>NestedAttributePipe&#45;&gt;PipesModule</title>
<path fill="none" stroke="#000000" d="M2585.8838,-122.1554C2585.8838,-144.3519 2585.8838,-179 2585.8838,-179 2585.8838,-179 2648.0548,-179 2648.0548,-179"/>
<polygon fill="#000000" stroke="#000000" points="2648.0548,-182.5001 2658.0548,-179 2648.0547,-175.5001 2648.0548,-182.5001"/>
</g>
<!-- ForceUtcPipe  -->
<g id="node22" class="node">
<title>ForceUtcPipe </title>
<polygon fill="#fb8072" stroke="#000000" points="2874.4732,-252 2777.5268,-252 2777.5268,-216 2874.4732,-216 2874.4732,-252"/>
<text text-anchor="middle" x="2826" y="-229.8" font-family="Times,serif" font-size="14.00" fill="#000000">ForceUtcPipe </text>
</g>
<!-- PipesModule&#45;&gt;ForceUtcPipe  -->
<g id="edge20" class="edge">
<title>PipesModule&#45;&gt;ForceUtcPipe </title>
<path fill="none" stroke="#000000" stroke-dasharray="5,2" d="M2748.1408,-175C2776.6007,-175 2808.0047,-175 2808.0047,-175 2808.0047,-175 2808.0047,-205.9775 2808.0047,-205.9775"/>
<polygon fill="#000000" stroke="#000000" points="2804.5048,-205.9774 2808.0047,-215.9775 2811.5048,-205.9775 2804.5048,-205.9774"/>
</g>
<!-- ValueSuffixPipe  -->
<g id="node23" class="node">
<title>ValueSuffixPipe </title>
<polygon fill="#fb8072" stroke="#000000" points="2759.3088,-252 2646.6912,-252 2646.6912,-216 2759.3088,-216 2759.3088,-252"/>
<text text-anchor="middle" x="2703" y="-229.8" font-family="Times,serif" font-size="14.00" fill="#000000">ValueSuffixPipe </text>
</g>
<!-- PipesModule&#45;&gt;ValueSuffixPipe  -->
<g id="edge21" class="edge">
<title>PipesModule&#45;&gt;ValueSuffixPipe </title>
<path fill="none" stroke="#000000" stroke-dasharray="5,2" d="M2703,-187.1061C2703,-187.1061 2703,-205.991 2703,-205.991"/>
<polygon fill="#000000" stroke="#000000" points="2699.5001,-205.9909 2703,-215.991 2706.5001,-205.991 2699.5001,-205.9909"/>
</g>
<!-- NestedAttributePipe  -->
<g id="node24" class="node">
<title>NestedAttributePipe </title>
<polygon fill="#fb8072" stroke="#000000" points="2628.8031,-252 2495.1969,-252 2495.1969,-216 2628.8031,-216 2628.8031,-252"/>
<text text-anchor="middle" x="2562" y="-229.8" font-family="Times,serif" font-size="14.00" fill="#000000">NestedAttributePipe </text>
</g>
<!-- PipesModule&#45;&gt;NestedAttributePipe  -->
<g id="edge22" class="edge">
<title>PipesModule&#45;&gt;NestedAttributePipe </title>
<path fill="none" stroke="#000000" stroke-dasharray="5,2" d="M2657.9677,-183C2610.6041,-183 2542.8662,-183 2542.8662,-183 2542.8662,-183 2542.8662,-205.8757 2542.8662,-205.8757"/>
<polygon fill="#000000" stroke="#000000" points="2539.3663,-205.8757 2542.8662,-215.8757 2546.3663,-205.8757 2539.3663,-205.8757"/>
</g>
</g>
</svg>
