<?xml version="1.0" encoding="UTF-8" standalone="no"?>
<!DOCTYPE svg PUBLIC "-//W3C//DTD SVG 1.1//EN"
 "http://www.w3.org/Graphics/SVG/1.1/DTD/svg11.dtd">
<!-- Generated by graphviz version 2.40.1 (20161225.0304)
 -->
<!-- Title: dependencies Pages: 1 -->
<svg width="1892pt" height="284pt"
 viewBox="0.00 0.00 1892.00 284.00" xmlns="http://www.w3.org/2000/svg" xmlns:xlink="http://www.w3.org/1999/xlink">
<g id="graph0" class="graph" transform="scale(1 1) rotate(0) translate(4 280)">
<title>dependencies</title>
<polygon fill="#ffffff" stroke="transparent" points="-4,4 -4,-280 1888,-280 1888,4 -4,4"/>
<text text-anchor="start" x="921.0091" y="-42.4" font-family="sans-serif" font-weight="bold" font-size="14.00" fill="#000000">Legend</text>
<polygon fill="#ffffb3" stroke="transparent" points="708,-10 708,-30 728,-30 728,-10 708,-10"/>
<text text-anchor="start" x="731.629" y="-15.4" font-family="sans-serif" font-size="14.00" fill="#000000"> &#160;Declarations</text>
<polygon fill="#8dd3c7" stroke="transparent" points="821,-10 821,-30 841,-30 841,-10 821,-10"/>
<text text-anchor="start" x="844.7251" y="-15.4" font-family="sans-serif" font-size="14.00" fill="#000000"> &#160;Module</text>
<polygon fill="#80b1d3" stroke="transparent" points="907,-10 907,-30 927,-30 927,-10 907,-10"/>
<text text-anchor="start" x="930.7812" y="-15.4" font-family="sans-serif" font-size="14.00" fill="#000000"> &#160;Bootstrap</text>
<polygon fill="#fdb462" stroke="transparent" points="1004,-10 1004,-30 1024,-30 1024,-10 1004,-10"/>
<text text-anchor="start" x="1027.6732" y="-15.4" font-family="sans-serif" font-size="14.00" fill="#000000"> &#160;Providers</text>
<polygon fill="#fb8072" stroke="transparent" points="1100,-10 1100,-30 1120,-30 1120,-10 1100,-10"/>
<text text-anchor="start" x="1123.7258" y="-15.4" font-family="sans-serif" font-size="14.00" fill="#000000"> &#160;Exports</text>
<g id="clust1" class="cluster">
<title>cluster_NgXformModule</title>
<polygon fill="none" stroke="#000000" stroke-dasharray="1,5" points="8,-70 8,-268 1609,-268 1609,-70 8,-70"/>
</g>
<g id="clust2" class="cluster">
<title>cluster_NgXformModule_declarations</title>
<polygon fill="none" stroke="#000000" points="16,-78 16,-130 1601,-130 1601,-78 16,-78"/>
</g>
<g id="clust13" class="cluster">
<title>cluster_NgXformModule_exports</title>
<polygon fill="none" stroke="#000000" points="632,-208 632,-260 998,-260 998,-208 632,-208"/>
</g>
<g id="clust16" class="cluster">
<title>cluster_PipesModule</title>
<polygon fill="none" stroke="#000000" stroke-dasharray="1,5" points="1617,-70 1617,-268 1876,-268 1876,-70 1617,-70"/>
</g>
<g id="clust17" class="cluster">
<title>cluster_PipesModule_declarations</title>
<polygon fill="none" stroke="#000000" points="1629,-78 1629,-130 1865,-130 1865,-78 1629,-78"/>
</g>
<g id="clust21" class="cluster">
<title>cluster_PipesModule_exports</title>
<polygon fill="none" stroke="#000000" points="1625,-208 1625,-260 1868,-260 1868,-208 1625,-208"/>
</g>
<!-- NgXformComponent -->
<g id="node1" class="node">
<title>NgXformComponent</title>
<polygon fill="#ffffb3" stroke="#000000" points="1592.7576,-122 1457.2424,-122 1457.2424,-86 1592.7576,-86 1592.7576,-122"/>
<text text-anchor="middle" x="1525" y="-99.8" font-family="Times,serif" font-size="14.00" fill="#000000">NgXformComponent</text>
</g>
<!-- NgXformModule -->
<g id="node10" class="node">
<title>NgXformModule</title>
<polygon fill="#8dd3c7" stroke="#000000" points="884.9748,-187 881.9748,-191 860.9748,-191 857.9748,-187 771.0252,-187 771.0252,-151 884.9748,-151 884.9748,-187"/>
<text text-anchor="middle" x="828" y="-164.8" font-family="Times,serif" font-size="14.00" fill="#000000">NgXformModule</text>
</g>
<!-- NgXformComponent&#45;&gt;NgXformModule -->
<g id="edge1" class="edge">
<title>NgXformComponent&#45;&gt;NgXformModule</title>
<path fill="none" stroke="#000000" d="M1525,-122.0109C1525,-144.4852 1525,-180 1525,-180 1525,-180 895.0384,-180 895.0384,-180"/>
<polygon fill="#000000" stroke="#000000" points="895.0385,-176.5001 885.0384,-180 895.0384,-183.5001 895.0385,-176.5001"/>
</g>
<!-- EditableLabelComponent -->
<g id="node2" class="node">
<title>EditableLabelComponent</title>
<polygon fill="#ffffb3" stroke="#000000" points="1438.8585,-122 1279.1415,-122 1279.1415,-86 1438.8585,-86 1438.8585,-122"/>
<text text-anchor="middle" x="1359" y="-99.8" font-family="Times,serif" font-size="14.00" fill="#000000">EditableLabelComponent</text>
</g>
<!-- EditableLabelComponent&#45;&gt;NgXformModule -->
<g id="edge2" class="edge">
<title>EditableLabelComponent&#45;&gt;NgXformModule</title>
<path fill="none" stroke="#000000" d="M1359,-122.1289C1359,-142.5724 1359,-173 1359,-173 1359,-173 895.0783,-173 895.0783,-173"/>
<polygon fill="#000000" stroke="#000000" points="895.0784,-169.5001 885.0783,-173 895.0783,-176.5001 895.0784,-169.5001"/>
</g>
<!-- CheckboxFieldComponent -->
<g id="node3" class="node">
<title>CheckboxFieldComponent</title>
<polygon fill="#ffffb3" stroke="#000000" points="1261.3766,-122 1094.6234,-122 1094.6234,-86 1261.3766,-86 1261.3766,-122"/>
<text text-anchor="middle" x="1178" y="-99.8" font-family="Times,serif" font-size="14.00" fill="#000000">CheckboxFieldComponent</text>
</g>
<!-- CheckboxFieldComponent&#45;&gt;NgXformModule -->
<g id="edge3" class="edge">
<title>CheckboxFieldComponent&#45;&gt;NgXformModule</title>
<path fill="none" stroke="#000000" d="M1178,-122.2667C1178,-140.5552 1178,-166 1178,-166 1178,-166 895.0125,-166 895.0125,-166"/>
<polygon fill="#000000" stroke="#000000" points="895.0125,-162.5001 885.0125,-166 895.0125,-169.5001 895.0125,-162.5001"/>
</g>
<!-- MeasureFieldComponent -->
<g id="node4" class="node">
<title>MeasureFieldComponent</title>
<polygon fill="#ffffb3" stroke="#000000" points="1076.3047,-122 917.6953,-122 917.6953,-86 1076.3047,-86 1076.3047,-122"/>
<text text-anchor="middle" x="997" y="-99.8" font-family="Times,serif" font-size="14.00" fill="#000000">MeasureFieldComponent</text>
</g>
<!-- MeasureFieldComponent&#45;&gt;NgXformModule -->
<g id="edge4" class="edge">
<title>MeasureFieldComponent&#45;&gt;NgXformModule</title>
<path fill="none" stroke="#000000" d="M953.7383,-122.0091C953.7383,-138.0494 953.7383,-159 953.7383,-159 953.7383,-159 894.9828,-159 894.9828,-159"/>
<polygon fill="#000000" stroke="#000000" points="894.9829,-155.5001 884.9828,-159 894.9828,-162.5001 894.9829,-155.5001"/>
</g>
<!-- SelectFieldComponent -->
<g id="node5" class="node">
<title>SelectFieldComponent</title>
<polygon fill="#ffffb3" stroke="#000000" points="900.3188,-122 755.6812,-122 755.6812,-86 900.3188,-86 900.3188,-122"/>
<text text-anchor="middle" x="828" y="-99.8" font-family="Times,serif" font-size="14.00" fill="#000000">SelectFieldComponent</text>
</g>
<!-- SelectFieldComponent&#45;&gt;NgXformModule -->
<g id="edge5" class="edge">
<title>SelectFieldComponent&#45;&gt;NgXformModule</title>
<path fill="none" stroke="#000000" d="M828,-122.1061C828,-122.1061 828,-140.991 828,-140.991"/>
<polygon fill="#000000" stroke="#000000" points="824.5001,-140.9909 828,-150.991 831.5001,-140.991 824.5001,-140.9909"/>
</g>
<!-- FieldErrorMessageComponent -->
<g id="node6" class="node">
<title>FieldErrorMessageComponent</title>
<polygon fill="#ffffb3" stroke="#000000" points="738.1232,-122 549.8768,-122 549.8768,-86 738.1232,-86 738.1232,-122"/>
<text text-anchor="middle" x="644" y="-99.8" font-family="Times,serif" font-size="14.00" fill="#000000">FieldErrorMessageComponent</text>
</g>
<!-- FieldErrorMessageComponent&#45;&gt;NgXformModule -->
<g id="edge6" class="edge">
<title>FieldErrorMessageComponent&#45;&gt;NgXformModule</title>
<path fill="none" stroke="#000000" d="M689.125,-122.0091C689.125,-138.0494 689.125,-159 689.125,-159 689.125,-159 760.7124,-159 760.7124,-159"/>
<polygon fill="#000000" stroke="#000000" points="760.7125,-162.5001 770.7124,-159 760.7124,-155.5001 760.7125,-162.5001"/>
</g>
<!-- ErrorMessagePipe -->
<g id="node7" class="node">
<title>ErrorMessagePipe</title>
<polygon fill="#ffffb3" stroke="#000000" points="531.9005,-122 412.0995,-122 412.0995,-86 531.9005,-86 531.9005,-122"/>
<text text-anchor="middle" x="472" y="-99.8" font-family="Times,serif" font-size="14.00" fill="#000000">ErrorMessagePipe</text>
</g>
<!-- ErrorMessagePipe&#45;&gt;NgXformModule -->
<g id="edge7" class="edge">
<title>ErrorMessagePipe&#45;&gt;NgXformModule</title>
<path fill="none" stroke="#000000" d="M472,-122.2667C472,-140.5552 472,-166 472,-166 472,-166 760.8024,-166 760.8024,-166"/>
<polygon fill="#000000" stroke="#000000" points="760.8025,-169.5001 770.8024,-166 760.8024,-162.5001 760.8025,-169.5001"/>
</g>
<!-- MultilineFieldComponent -->
<g id="node8" class="node">
<title>MultilineFieldComponent</title>
<polygon fill="#ffffb3" stroke="#000000" points="394.2232,-122 231.7768,-122 231.7768,-86 394.2232,-86 394.2232,-122"/>
<text text-anchor="middle" x="313" y="-99.8" font-family="Times,serif" font-size="14.00" fill="#000000">MultilineFieldComponent</text>
</g>
<!-- MultilineFieldComponent&#45;&gt;NgXformModule -->
<g id="edge8" class="edge">
<title>MultilineFieldComponent&#45;&gt;NgXformModule</title>
<path fill="none" stroke="#000000" d="M313,-122.1289C313,-142.5724 313,-173 313,-173 313,-173 760.9183,-173 760.9183,-173"/>
<polygon fill="#000000" stroke="#000000" points="760.9183,-176.5001 770.9183,-173 760.9182,-169.5001 760.9183,-176.5001"/>
</g>
<!-- AutocompleteFieldComponent -->
<g id="node9" class="node">
<title>AutocompleteFieldComponent</title>
<polygon fill="#ffffb3" stroke="#000000" points="213.9241,-122 24.0759,-122 24.0759,-86 213.9241,-86 213.9241,-122"/>
<text text-anchor="middle" x="119" y="-99.8" font-family="Times,serif" font-size="14.00" fill="#000000">AutocompleteFieldComponent</text>
</g>
<!-- AutocompleteFieldComponent&#45;&gt;NgXformModule -->
<g id="edge9" class="edge">
<title>AutocompleteFieldComponent&#45;&gt;NgXformModule</title>
<path fill="none" stroke="#000000" d="M119,-122.0109C119,-144.4852 119,-180 119,-180 119,-180 760.8794,-180 760.8794,-180"/>
<polygon fill="#000000" stroke="#000000" points="760.8795,-183.5001 770.8794,-180 760.8794,-176.5001 760.8795,-183.5001"/>
</g>
<!-- NgXformComponent  -->
<g id="node11" class="node">
<title>NgXformComponent </title>
<polygon fill="#fb8072" stroke="#000000" points="989.7576,-252 850.2424,-252 850.2424,-216 989.7576,-216 989.7576,-252"/>
<text text-anchor="middle" x="920" y="-229.8" font-family="Times,serif" font-size="14.00" fill="#000000">NgXformComponent </text>
</g>
<!-- NgXformModule&#45;&gt;NgXformComponent  -->
<g id="edge10" class="edge">
<title>NgXformModule&#45;&gt;NgXformComponent </title>
<path fill="none" stroke="#000000" stroke-dasharray="5,2" d="M867.6794,-187.1061C867.6794,-187.1061 867.6794,-205.991 867.6794,-205.991"/>
<polygon fill="#000000" stroke="#000000" points="864.1794,-205.9909 867.6794,-215.991 871.1794,-205.991 864.1794,-205.9909"/>
</g>
<!-- FieldErrorMessageComponent  -->
<g id="node12" class="node">
<title>FieldErrorMessageComponent </title>
<polygon fill="#fb8072" stroke="#000000" points="832.1228,-252 639.8772,-252 639.8772,-216 832.1228,-216 832.1228,-252"/>
<text text-anchor="middle" x="736" y="-229.8" font-family="Times,serif" font-size="14.00" fill="#000000">FieldErrorMessageComponent </text>
</g>
<!-- NgXformModule&#45;&gt;FieldErrorMessageComponent  -->
<g id="edge11" class="edge">
<title>NgXformModule&#45;&gt;FieldErrorMessageComponent </title>
<path fill="none" stroke="#000000" stroke-dasharray="5,2" d="M801.537,-187.1061C801.537,-187.1061 801.537,-205.991 801.537,-205.991"/>
<polygon fill="#000000" stroke="#000000" points="798.0371,-205.9909 801.537,-215.991 805.0371,-205.991 798.0371,-205.9909"/>
</g>
<!-- ForceUtcPipe -->
<g id="node13" class="node">
<title>ForceUtcPipe</title>
<polygon fill="#ffffb3" stroke="#000000" points="1857.472,-122 1764.528,-122 1764.528,-86 1857.472,-86 1857.472,-122"/>
<text text-anchor="middle" x="1811" y="-99.8" font-family="Times,serif" font-size="14.00" fill="#000000">ForceUtcPipe</text>
</g>
<!-- PipesModule -->
<g id="node15" class="node">
<title>PipesModule</title>
<polygon fill="#8dd3c7" stroke="#000000" points="1736.8823,-187 1733.8823,-191 1712.8823,-191 1709.8823,-187 1647.1177,-187 1647.1177,-151 1736.8823,-151 1736.8823,-187"/>
<text text-anchor="middle" x="1692" y="-164.8" font-family="Times,serif" font-size="14.00" fill="#000000">PipesModule</text>
</g>
<!-- ForceUtcPipe&#45;&gt;PipesModule -->
<g id="edge12" class="edge">
<title>ForceUtcPipe&#45;&gt;PipesModule</title>
<path fill="none" stroke="#000000" d="M1826.4953,-122.0225C1826.4953,-139.3734 1826.4953,-163 1826.4953,-163 1826.4953,-163 1747.1591,-163 1747.1591,-163"/>
<polygon fill="#000000" stroke="#000000" points="1747.1592,-159.5001 1737.1591,-163 1747.1591,-166.5001 1747.1592,-159.5001"/>
</g>
<!-- ValueSuffixPipe -->
<g id="node14" class="node">
<title>ValueSuffixPipe</title>
<polygon fill="#ffffb3" stroke="#000000" points="1746.809,-122 1637.191,-122 1637.191,-86 1746.809,-86 1746.809,-122"/>
<text text-anchor="middle" x="1692" y="-99.8" font-family="Times,serif" font-size="14.00" fill="#000000">ValueSuffixPipe</text>
</g>
<!-- ValueSuffixPipe&#45;&gt;PipesModule -->
<g id="edge13" class="edge">
<title>ValueSuffixPipe&#45;&gt;PipesModule</title>
<path fill="none" stroke="#000000" d="M1692,-122.1061C1692,-122.1061 1692,-140.991 1692,-140.991"/>
<polygon fill="#000000" stroke="#000000" points="1688.5001,-140.9909 1692,-150.991 1695.5001,-140.991 1688.5001,-140.9909"/>
</g>
<!-- ForceUtcPipe  -->
<g id="node16" class="node">
<title>ForceUtcPipe </title>
<polygon fill="#fb8072" stroke="#000000" points="1860.4732,-252 1763.5268,-252 1763.5268,-216 1860.4732,-216 1860.4732,-252"/>
<text text-anchor="middle" x="1812" y="-229.8" font-family="Times,serif" font-size="14.00" fill="#000000">ForceUtcPipe </text>
</g>
<!-- PipesModule&#45;&gt;ForceUtcPipe  -->
<g id="edge14" class="edge">
<title>PipesModule&#45;&gt;ForceUtcPipe </title>
<path fill="none" stroke="#000000" stroke-dasharray="5,2" d="M1737.0976,-175C1764.9899,-175 1795.5047,-175 1795.5047,-175 1795.5047,-175 1795.5047,-205.9775 1795.5047,-205.9775"/>
<polygon fill="#000000" stroke="#000000" points="1792.0048,-205.9774 1795.5047,-215.9775 1799.0048,-205.9775 1792.0048,-205.9774"/>
</g>
<!-- ValueSuffixPipe  -->
<g id="node17" class="node">
<title>ValueSuffixPipe </title>
<polygon fill="#fb8072" stroke="#000000" points="1745.3088,-252 1632.6912,-252 1632.6912,-216 1745.3088,-216 1745.3088,-252"/>
<text text-anchor="middle" x="1689" y="-229.8" font-family="Times,serif" font-size="14.00" fill="#000000">ValueSuffixPipe </text>
</g>
<!-- PipesModule&#45;&gt;ValueSuffixPipe  -->
<g id="edge15" class="edge">
<title>PipesModule&#45;&gt;ValueSuffixPipe </title>
<path fill="none" stroke="#000000" stroke-dasharray="5,2" d="M1692,-187.1061C1692,-187.1061 1692,-205.991 1692,-205.991"/>
<polygon fill="#000000" stroke="#000000" points="1688.5001,-205.9909 1692,-215.991 1695.5001,-205.991 1688.5001,-205.9909"/>
</g>
</g>
</svg>
