<?xml version="1.0" encoding="UTF-8" standalone="no"?>
<!DOCTYPE svg PUBLIC "-//W3C//DTD SVG 1.1//EN"
 "http://www.w3.org/Graphics/SVG/1.1/DTD/svg11.dtd">
<!-- Generated by graphviz version 2.40.1 (20161225.0304)
 -->
<!-- Title: dependencies Pages: 1 -->
<svg width="3096pt" height="284pt"
 viewBox="0.00 0.00 3096.00 284.00" xmlns="http://www.w3.org/2000/svg" xmlns:xlink="http://www.w3.org/1999/xlink">
<g id="graph0" class="graph" transform="scale(1 1) rotate(0) translate(4 280)">
<title>dependencies</title>
<polygon fill="#ffffff" stroke="transparent" points="-4,4 -4,-280 3092,-280 3092,4 -4,4"/>
<text text-anchor="start" x="1523.0091" y="-42.4" font-family="sans-serif" font-weight="bold" font-size="14.00" fill="#000000">Legend</text>
<polygon fill="#ffffb3" stroke="transparent" points="1310,-10 1310,-30 1330,-30 1330,-10 1310,-10"/>
<text text-anchor="start" x="1333.629" y="-15.4" font-family="sans-serif" font-size="14.00" fill="#000000"> &#160;Declarations</text>
<polygon fill="#8dd3c7" stroke="transparent" points="1423,-10 1423,-30 1443,-30 1443,-10 1423,-10"/>
<text text-anchor="start" x="1446.7251" y="-15.4" font-family="sans-serif" font-size="14.00" fill="#000000"> &#160;Module</text>
<polygon fill="#80b1d3" stroke="transparent" points="1509,-10 1509,-30 1529,-30 1529,-10 1509,-10"/>
<text text-anchor="start" x="1532.7812" y="-15.4" font-family="sans-serif" font-size="14.00" fill="#000000"> &#160;Bootstrap</text>
<polygon fill="#fdb462" stroke="transparent" points="1606,-10 1606,-30 1626,-30 1626,-10 1606,-10"/>
<text text-anchor="start" x="1629.6732" y="-15.4" font-family="sans-serif" font-size="14.00" fill="#000000"> &#160;Providers</text>
<polygon fill="#fb8072" stroke="transparent" points="1702,-10 1702,-30 1722,-30 1722,-10 1702,-10"/>
<text text-anchor="start" x="1725.7258" y="-15.4" font-family="sans-serif" font-size="14.00" fill="#000000"> &#160;Exports</text>
<g id="clust1" class="cluster">
<title>cluster_NgXformModule</title>
<polygon fill="none" stroke="#000000" stroke-dasharray="1,5" points="8,-70 8,-268 2661,-268 2661,-70 8,-70"/>
</g>
<g id="clust2" class="cluster">
<title>cluster_NgXformModule_declarations</title>
<polygon fill="none" stroke="#000000" points="16,-78 16,-130 2653,-130 2653,-78 16,-78"/>
</g>
<g id="clust19" class="cluster">
<title>cluster_NgXformModule_exports</title>
<polygon fill="none" stroke="#000000" points="1150,-208 1150,-260 1516,-260 1516,-208 1150,-208"/>
</g>
<g id="clust22" class="cluster">
<title>cluster_PipesModule</title>
<polygon fill="none" stroke="#000000" stroke-dasharray="1,5" points="2669,-70 2669,-268 3080,-268 3080,-70 2669,-70"/>
</g>
<g id="clust23" class="cluster">
<title>cluster_PipesModule_declarations</title>
<polygon fill="none" stroke="#000000" points="2682,-78 2682,-130 3066,-130 3066,-78 2682,-78"/>
</g>
<g id="clust28" class="cluster">
<title>cluster_PipesModule_exports</title>
<polygon fill="none" stroke="#000000" points="2677,-208 2677,-260 3072,-260 3072,-208 2677,-208"/>
</g>
<!-- NgXformComponent -->
<g id="node1" class="node">
<title>NgXformComponent</title>
<polygon fill="#ffffb3" stroke="#000000" points="2644.7576,-122 2509.2424,-122 2509.2424,-86 2644.7576,-86 2644.7576,-122"/>
<text text-anchor="middle" x="2577" y="-99.8" font-family="Times,serif" font-size="14.00" fill="#000000">NgXformComponent</text>
</g>
<!-- NgXformModule -->
<g id="node16" class="node">
<title>NgXformModule</title>
<polygon fill="#8dd3c7" stroke="#000000" points="1402.9748,-187 1399.9748,-191 1378.9748,-191 1375.9748,-187 1289.0252,-187 1289.0252,-151 1402.9748,-151 1402.9748,-187"/>
<text text-anchor="middle" x="1346" y="-164.8" font-family="Times,serif" font-size="14.00" fill="#000000">NgXformModule</text>
</g>
<!-- NgXformComponent&#45;&gt;NgXformModule -->
<g id="edge1" class="edge">
<title>NgXformComponent&#45;&gt;NgXformModule</title>
<path fill="none" stroke="#000000" d="M2577,-122.0449C2577,-143.6623 2577,-177 2577,-177 2577,-177 1413.3131,-177 1413.3131,-177"/>
<polygon fill="#000000" stroke="#000000" points="1413.3131,-173.5001 1403.3131,-177 1413.313,-180.5001 1413.3131,-173.5001"/>
</g>
<!-- FormGroupComponent -->
<g id="node2" class="node">
<title>FormGroupComponent</title>
<polygon fill="#ffffb3" stroke="#000000" points="2490.934,-122 2343.066,-122 2343.066,-86 2490.934,-86 2490.934,-122"/>
<text text-anchor="middle" x="2417" y="-99.8" font-family="Times,serif" font-size="14.00" fill="#000000">FormGroupComponent</text>
</g>
<!-- FormGroupComponent&#45;&gt;NgXformModule -->
<g id="edge2" class="edge">
<title>FormGroupComponent&#45;&gt;NgXformModule</title>
<path fill="none" stroke="#000000" d="M2417,-122.1289C2417,-142.5724 2417,-173 2417,-173 2417,-173 1413.203,-173 1413.203,-173"/>
<polygon fill="#000000" stroke="#000000" points="1413.203,-169.5001 1403.203,-173 1413.2029,-176.5001 1413.203,-169.5001"/>
</g>
<!-- EditableLabelComponent -->
<g id="node3" class="node">
<title>EditableLabelComponent</title>
<polygon fill="#ffffb3" stroke="#000000" points="2324.8585,-122 2165.1415,-122 2165.1415,-86 2324.8585,-86 2324.8585,-122"/>
<text text-anchor="middle" x="2245" y="-99.8" font-family="Times,serif" font-size="14.00" fill="#000000">EditableLabelComponent</text>
</g>
<!-- EditableLabelComponent&#45;&gt;NgXformModule -->
<g id="edge3" class="edge">
<title>EditableLabelComponent&#45;&gt;NgXformModule</title>
<path fill="none" stroke="#000000" d="M2245,-122.1061C2245,-141.3391 2245,-169 2245,-169 2245,-169 1413.2608,-169 1413.2608,-169"/>
<polygon fill="#000000" stroke="#000000" points="1413.2609,-165.5001 1403.2608,-169 1413.2608,-172.5001 1413.2609,-165.5001"/>
</g>
<!-- CheckboxFieldComponent -->
<g id="node4" class="node">
<title>CheckboxFieldComponent</title>
<polygon fill="#ffffb3" stroke="#000000" points="2147.3766,-122 1980.6234,-122 1980.6234,-86 2147.3766,-86 2147.3766,-122"/>
<text text-anchor="middle" x="2064" y="-99.8" font-family="Times,serif" font-size="14.00" fill="#000000">CheckboxFieldComponent</text>
</g>
<!-- CheckboxFieldComponent&#45;&gt;NgXformModule -->
<g id="edge4" class="edge">
<title>CheckboxFieldComponent&#45;&gt;NgXformModule</title>
<path fill="none" stroke="#000000" d="M2064,-122.2667C2064,-140.5552 2064,-166 2064,-166 2064,-166 1413.2415,-166 1413.2415,-166"/>
<polygon fill="#000000" stroke="#000000" points="1413.2415,-162.5001 1403.2415,-166 1413.2415,-169.5001 1413.2415,-162.5001"/>
</g>
<!-- CustomFieldComponent -->
<g id="node5" class="node">
<title>CustomFieldComponent</title>
<polygon fill="#ffffb3" stroke="#000000" points="1962.6735,-122 1809.3265,-122 1809.3265,-86 1962.6735,-86 1962.6735,-122"/>
<text text-anchor="middle" x="1886" y="-99.8" font-family="Times,serif" font-size="14.00" fill="#000000">CustomFieldComponent</text>
</g>
<!-- CustomFieldComponent&#45;&gt;NgXformModule -->
<g id="edge5" class="edge">
<title>CustomFieldComponent&#45;&gt;NgXformModule</title>
<path fill="none" stroke="#000000" d="M1886,-122.0336C1886,-139.0597 1886,-162 1886,-162 1886,-162 1413.0233,-162 1413.0233,-162"/>
<polygon fill="#000000" stroke="#000000" points="1413.0233,-158.5001 1403.0233,-162 1413.0233,-165.5001 1413.0233,-158.5001"/>
</g>
<!-- RadioGroupFieldComponent -->
<g id="node6" class="node">
<title>RadioGroupFieldComponent</title>
<polygon fill="#ffffb3" stroke="#000000" points="1791.8201,-122 1612.1799,-122 1612.1799,-86 1791.8201,-86 1791.8201,-122"/>
<text text-anchor="middle" x="1702" y="-99.8" font-family="Times,serif" font-size="14.00" fill="#000000">RadioGroupFieldComponent</text>
</g>
<!-- RadioGroupFieldComponent&#45;&gt;NgXformModule -->
<g id="edge6" class="edge">
<title>RadioGroupFieldComponent&#45;&gt;NgXformModule</title>
<path fill="none" stroke="#000000" d="M1702,-122.0091C1702,-138.0494 1702,-159 1702,-159 1702,-159 1413.1976,-159 1413.1976,-159"/>
<polygon fill="#000000" stroke="#000000" points="1413.1976,-155.5001 1403.1976,-159 1413.1975,-162.5001 1413.1976,-155.5001"/>
</g>
<!-- MeasureFieldComponent -->
<g id="node7" class="node">
<title>MeasureFieldComponent</title>
<polygon fill="#ffffb3" stroke="#000000" points="1594.3047,-122 1435.6953,-122 1435.6953,-86 1594.3047,-86 1594.3047,-122"/>
<text text-anchor="middle" x="1515" y="-99.8" font-family="Times,serif" font-size="14.00" fill="#000000">MeasureFieldComponent</text>
</g>
<!-- MeasureFieldComponent&#45;&gt;NgXformModule -->
<g id="edge7" class="edge">
<title>MeasureFieldComponent&#45;&gt;NgXformModule</title>
<path fill="none" stroke="#000000" d="M1471.7382,-122.1243C1471.7382,-136.7832 1471.7382,-155 1471.7382,-155 1471.7382,-155 1412.9828,-155 1412.9828,-155"/>
<polygon fill="#000000" stroke="#000000" points="1412.9829,-151.5001 1402.9828,-155 1412.9828,-158.5001 1412.9829,-151.5001"/>
</g>
<!-- SelectFieldComponent -->
<g id="node8" class="node">
<title>SelectFieldComponent</title>
<polygon fill="#ffffb3" stroke="#000000" points="1418.3188,-122 1273.6812,-122 1273.6812,-86 1418.3188,-86 1418.3188,-122"/>
<text text-anchor="middle" x="1346" y="-99.8" font-family="Times,serif" font-size="14.00" fill="#000000">SelectFieldComponent</text>
</g>
<!-- SelectFieldComponent&#45;&gt;NgXformModule -->
<g id="edge8" class="edge">
<title>SelectFieldComponent&#45;&gt;NgXformModule</title>
<path fill="none" stroke="#000000" d="M1346,-122.1061C1346,-122.1061 1346,-140.991 1346,-140.991"/>
<polygon fill="#000000" stroke="#000000" points="1342.5001,-140.9909 1346,-150.991 1349.5001,-140.991 1342.5001,-140.9909"/>
</g>
<!-- FieldErrorMessageComponent -->
<g id="node9" class="node">
<title>FieldErrorMessageComponent</title>
<polygon fill="#ffffb3" stroke="#000000" points="1256.1232,-122 1067.8768,-122 1067.8768,-86 1256.1232,-86 1256.1232,-122"/>
<text text-anchor="middle" x="1162" y="-99.8" font-family="Times,serif" font-size="14.00" fill="#000000">FieldErrorMessageComponent</text>
</g>
<!-- FieldErrorMessageComponent&#45;&gt;NgXformModule -->
<g id="edge9" class="edge">
<title>FieldErrorMessageComponent&#45;&gt;NgXformModule</title>
<path fill="none" stroke="#000000" d="M1207.125,-122.1871C1207.125,-137.1824 1207.125,-156 1207.125,-156 1207.125,-156 1278.7124,-156 1278.7124,-156"/>
<polygon fill="#000000" stroke="#000000" points="1278.7125,-159.5001 1288.7124,-156 1278.7124,-152.5001 1278.7125,-159.5001"/>
</g>
<!-- ErrorMessagePipe -->
<g id="node10" class="node">
<title>ErrorMessagePipe</title>
<polygon fill="#ffffb3" stroke="#000000" points="1049.9005,-122 930.0995,-122 930.0995,-86 1049.9005,-86 1049.9005,-122"/>
<text text-anchor="middle" x="990" y="-99.8" font-family="Times,serif" font-size="14.00" fill="#000000">ErrorMessagePipe</text>
</g>
<!-- ErrorMessagePipe&#45;&gt;NgXformModule -->
<g id="edge10" class="edge">
<title>ErrorMessagePipe&#45;&gt;NgXformModule</title>
<path fill="none" stroke="#000000" d="M990,-122.027C990,-138.3976 990,-160 990,-160 990,-160 1278.8024,-160 1278.8024,-160"/>
<polygon fill="#000000" stroke="#000000" points="1278.8025,-163.5001 1288.8024,-160 1278.8024,-156.5001 1278.8025,-163.5001"/>
</g>
<!-- MultilineFieldComponent -->
<g id="node11" class="node">
<title>MultilineFieldComponent</title>
<polygon fill="#ffffb3" stroke="#000000" points="912.2232,-122 749.7768,-122 749.7768,-86 912.2232,-86 912.2232,-122"/>
<text text-anchor="middle" x="831" y="-99.8" font-family="Times,serif" font-size="14.00" fill="#000000">MultilineFieldComponent</text>
</g>
<!-- MultilineFieldComponent&#45;&gt;NgXformModule -->
<g id="edge11" class="edge">
<title>MultilineFieldComponent&#45;&gt;NgXformModule</title>
<path fill="none" stroke="#000000" d="M831,-122.302C831,-140.2699 831,-165 831,-165 831,-165 1278.9183,-165 1278.9183,-165"/>
<polygon fill="#000000" stroke="#000000" points="1278.9183,-168.5001 1288.9183,-165 1278.9182,-161.5001 1278.9183,-168.5001"/>
</g>
<!-- OptionalTagComponent -->
<g id="node12" class="node">
<title>OptionalTagComponent</title>
<polygon fill="#ffffb3" stroke="#000000" points="732.0926,-122 579.9074,-122 579.9074,-86 732.0926,-86 732.0926,-122"/>
<text text-anchor="middle" x="656" y="-99.8" font-family="Times,serif" font-size="14.00" fill="#000000">OptionalTagComponent</text>
</g>
<!-- OptionalTagComponent&#45;&gt;NgXformModule -->
<g id="edge12" class="edge">
<title>OptionalTagComponent&#45;&gt;NgXformModule</title>
<path fill="none" stroke="#000000" d="M656,-122.1061C656,-141.3391 656,-169 656,-169 656,-169 1278.9474,-169 1278.9474,-169"/>
<polygon fill="#000000" stroke="#000000" points="1278.9474,-172.5001 1288.9474,-169 1278.9473,-165.5001 1278.9474,-172.5001"/>
</g>
<!-- DateFieldComponent -->
<g id="node13" class="node">
<title>DateFieldComponent</title>
<polygon fill="#ffffb3" stroke="#000000" points="562.038,-122 425.962,-122 425.962,-86 562.038,-86 562.038,-122"/>
<text text-anchor="middle" x="494" y="-99.8" font-family="Times,serif" font-size="14.00" fill="#000000">DateFieldComponent</text>
</g>
<!-- DateFieldComponent&#45;&gt;NgXformModule -->
<g id="edge13" class="edge">
<title>DateFieldComponent&#45;&gt;NgXformModule</title>
<path fill="none" stroke="#000000" d="M494,-122.0267C494,-142.7672 494,-174 494,-174 494,-174 1278.7749,-174 1278.7749,-174"/>
<polygon fill="#000000" stroke="#000000" points="1278.7749,-177.5001 1288.7749,-174 1278.7749,-170.5001 1278.7749,-177.5001"/>
</g>
<!-- DateRangeFieldComponent -->
<g id="node14" class="node">
<title>DateRangeFieldComponent</title>
<polygon fill="#ffffb3" stroke="#000000" points="408.3033,-122 235.6967,-122 235.6967,-86 408.3033,-86 408.3033,-122"/>
<text text-anchor="middle" x="322" y="-99.8" font-family="Times,serif" font-size="14.00" fill="#000000">DateRangeFieldComponent</text>
</g>
<!-- DateRangeFieldComponent&#45;&gt;NgXformModule -->
<g id="edge14" class="edge">
<title>DateRangeFieldComponent&#45;&gt;NgXformModule</title>
<path fill="none" stroke="#000000" d="M322,-122.2921C322,-144.2057 322,-178 322,-178 322,-178 1278.7511,-178 1278.7511,-178"/>
<polygon fill="#000000" stroke="#000000" points="1278.7512,-181.5001 1288.7511,-178 1278.7511,-174.5001 1278.7512,-181.5001"/>
</g>
<!-- FormControlLayoutComponent -->
<g id="node15" class="node">
<title>FormControlLayoutComponent</title>
<polygon fill="#ffffb3" stroke="#000000" points="218.1024,-122 23.8976,-122 23.8976,-86 218.1024,-86 218.1024,-122"/>
<text text-anchor="middle" x="121" y="-99.8" font-family="Times,serif" font-size="14.00" fill="#000000">FormControlLayoutComponent</text>
</g>
<!-- FormControlLayoutComponent&#45;&gt;NgXformModule -->
<g id="edge15" class="edge">
<title>FormControlLayoutComponent&#45;&gt;NgXformModule</title>
<path fill="none" stroke="#000000" d="M121,-122.3228C121,-145.6602 121,-183 121,-183 121,-183 1278.9663,-183 1278.9663,-183"/>
<polygon fill="#000000" stroke="#000000" points="1278.9663,-186.5001 1288.9663,-183 1278.9663,-179.5001 1278.9663,-186.5001"/>
</g>
<!-- NgXformComponent  -->
<g id="node17" class="node">
<title>NgXformComponent </title>
<polygon fill="#fb8072" stroke="#000000" points="1507.7576,-252 1368.2424,-252 1368.2424,-216 1507.7576,-216 1507.7576,-252"/>
<text text-anchor="middle" x="1438" y="-229.8" font-family="Times,serif" font-size="14.00" fill="#000000">NgXformComponent </text>
</g>
<!-- NgXformModule&#45;&gt;NgXformComponent  -->
<g id="edge16" class="edge">
<title>NgXformModule&#45;&gt;NgXformComponent </title>
<path fill="none" stroke="#000000" stroke-dasharray="5,2" d="M1385.6793,-187.1061C1385.6793,-187.1061 1385.6793,-205.991 1385.6793,-205.991"/>
<polygon fill="#000000" stroke="#000000" points="1382.1794,-205.9909 1385.6793,-215.991 1389.1794,-205.991 1382.1794,-205.9909"/>
</g>
<!-- FieldErrorMessageComponent  -->
<g id="node18" class="node">
<title>FieldErrorMessageComponent </title>
<polygon fill="#fb8072" stroke="#000000" points="1350.1228,-252 1157.8772,-252 1157.8772,-216 1350.1228,-216 1350.1228,-252"/>
<text text-anchor="middle" x="1254" y="-229.8" font-family="Times,serif" font-size="14.00" fill="#000000">FieldErrorMessageComponent </text>
</g>
<!-- NgXformModule&#45;&gt;FieldErrorMessageComponent  -->
<g id="edge17" class="edge">
<title>NgXformModule&#45;&gt;FieldErrorMessageComponent </title>
<path fill="none" stroke="#000000" stroke-dasharray="5,2" d="M1319.537,-187.1061C1319.537,-187.1061 1319.537,-205.991 1319.537,-205.991"/>
<polygon fill="#000000" stroke="#000000" points="1316.0371,-205.9909 1319.537,-215.991 1323.0371,-205.991 1316.0371,-205.9909"/>
</g>
<!-- ForceUtcPipe -->
<g id="node19" class="node">
<title>ForceUtcPipe</title>
<polygon fill="#ffffb3" stroke="#000000" points="3058.472,-122 2965.528,-122 2965.528,-86 3058.472,-86 3058.472,-122"/>
<text text-anchor="middle" x="3012" y="-99.8" font-family="Times,serif" font-size="14.00" fill="#000000">ForceUtcPipe</text>
</g>
<!-- PipesModule -->
<g id="node22" class="node">
<title>PipesModule</title>
<polygon fill="#8dd3c7" stroke="#000000" points="2937.8823,-187 2934.8823,-191 2913.8823,-191 2910.8823,-187 2848.1177,-187 2848.1177,-151 2937.8823,-151 2937.8823,-187"/>
<text text-anchor="middle" x="2893" y="-164.8" font-family="Times,serif" font-size="14.00" fill="#000000">PipesModule</text>
</g>
<!-- ForceUtcPipe&#45;&gt;PipesModule -->
<g id="edge18" class="edge">
<title>ForceUtcPipe&#45;&gt;PipesModule</title>
<path fill="none" stroke="#000000" d="M3028.2453,-122.0225C3028.2453,-139.3734 3028.2453,-163 3028.2453,-163 3028.2453,-163 2948.0347,-163 2948.0347,-163"/>
<polygon fill="#000000" stroke="#000000" points="2948.0348,-159.5001 2938.0347,-163 2948.0347,-166.5001 2948.0348,-159.5001"/>
</g>
<!-- ValueSuffixPipe -->
<g id="node20" class="node">
<title>ValueSuffixPipe</title>
<polygon fill="#ffffb3" stroke="#000000" points="2947.809,-122 2838.191,-122 2838.191,-86 2947.809,-86 2947.809,-122"/>
<text text-anchor="middle" x="2893" y="-99.8" font-family="Times,serif" font-size="14.00" fill="#000000">ValueSuffixPipe</text>
</g>
<!-- ValueSuffixPipe&#45;&gt;PipesModule -->
<g id="edge19" class="edge">
<title>ValueSuffixPipe&#45;&gt;PipesModule</title>
<path fill="none" stroke="#000000" d="M2893,-122.1061C2893,-122.1061 2893,-140.991 2893,-140.991"/>
<polygon fill="#000000" stroke="#000000" points="2889.5001,-140.9909 2893,-150.991 2896.5001,-140.991 2889.5001,-140.9909"/>
</g>
<!-- NestedAttributePipe -->
<g id="node21" class="node">
<title>NestedAttributePipe</title>
<polygon fill="#ffffb3" stroke="#000000" points="2820.3034,-122 2689.6966,-122 2689.6966,-86 2820.3034,-86 2820.3034,-122"/>
<text text-anchor="middle" x="2755" y="-99.8" font-family="Times,serif" font-size="14.00" fill="#000000">NestedAttributePipe</text>
</g>
<!-- NestedAttributePipe&#45;&gt;PipesModule -->
<g id="edge20" class="edge">
<title>NestedAttributePipe&#45;&gt;PipesModule</title>
<path fill="none" stroke="#000000" d="M2775.8838,-122.0109C2775.8838,-144.4852 2775.8838,-180 2775.8838,-180 2775.8838,-180 2838.0548,-180 2838.0548,-180"/>
<polygon fill="#000000" stroke="#000000" points="2838.0548,-183.5001 2848.0548,-180 2838.0547,-176.5001 2838.0548,-183.5001"/>
</g>
<!-- ForceUtcPipe  -->
<g id="node23" class="node">
<title>ForceUtcPipe </title>
<polygon fill="#fb8072" stroke="#000000" points="3064.4732,-252 2967.5268,-252 2967.5268,-216 3064.4732,-216 3064.4732,-252"/>
<text text-anchor="middle" x="3016" y="-229.8" font-family="Times,serif" font-size="14.00" fill="#000000">ForceUtcPipe </text>
</g>
<!-- PipesModule&#45;&gt;ForceUtcPipe  -->
<g id="edge21" class="edge">
<title>PipesModule&#45;&gt;ForceUtcPipe </title>
<path fill="none" stroke="#000000" stroke-dasharray="5,2" d="M2938.1408,-175C2966.6007,-175 2998.0047,-175 2998.0047,-175 2998.0047,-175 2998.0047,-205.9775 2998.0047,-205.9775"/>
<polygon fill="#000000" stroke="#000000" points="2994.5048,-205.9774 2998.0047,-215.9775 3001.5048,-205.9775 2994.5048,-205.9774"/>
</g>
<!-- ValueSuffixPipe  -->
<g id="node24" class="node">
<title>ValueSuffixPipe </title>
<polygon fill="#fb8072" stroke="#000000" points="2949.3088,-252 2836.6912,-252 2836.6912,-216 2949.3088,-216 2949.3088,-252"/>
<text text-anchor="middle" x="2893" y="-229.8" font-family="Times,serif" font-size="14.00" fill="#000000">ValueSuffixPipe </text>
</g>
<!-- PipesModule&#45;&gt;ValueSuffixPipe  -->
<g id="edge22" class="edge">
<title>PipesModule&#45;&gt;ValueSuffixPipe </title>
<path fill="none" stroke="#000000" stroke-dasharray="5,2" d="M2893,-187.1061C2893,-187.1061 2893,-205.991 2893,-205.991"/>
<polygon fill="#000000" stroke="#000000" points="2889.5001,-205.9909 2893,-215.991 2896.5001,-205.991 2889.5001,-205.9909"/>
</g>
<!-- NestedAttributePipe  -->
<g id="node25" class="node">
<title>NestedAttributePipe </title>
<polygon fill="#fb8072" stroke="#000000" points="2818.8031,-252 2685.1969,-252 2685.1969,-216 2818.8031,-216 2818.8031,-252"/>
<text text-anchor="middle" x="2752" y="-229.8" font-family="Times,serif" font-size="14.00" fill="#000000">NestedAttributePipe </text>
</g>
<!-- PipesModule&#45;&gt;NestedAttributePipe  -->
<g id="edge23" class="edge">
<title>PipesModule&#45;&gt;NestedAttributePipe </title>
<path fill="none" stroke="#000000" stroke-dasharray="5,2" d="M2847.9677,-184C2800.6041,-184 2732.8662,-184 2732.8662,-184 2732.8662,-184 2732.8662,-205.9489 2732.8662,-205.9489"/>
<polygon fill="#000000" stroke="#000000" points="2729.3663,-205.9488 2732.8662,-215.9489 2736.3663,-205.9489 2729.3663,-205.9488"/>
</g>
</g>
</svg>
