<?xml version="1.0" encoding="UTF-8" standalone="no"?>
<!DOCTYPE svg PUBLIC "-//W3C//DTD SVG 1.1//EN"
 "http://www.w3.org/Graphics/SVG/1.1/DTD/svg11.dtd">
<!-- Generated by graphviz version 2.40.1 (20161225.0304)
 -->
<!-- Title: dependencies Pages: 1 -->
<svg width="1625pt" height="284pt"
 viewBox="0.00 0.00 1625.00 284.00" xmlns="http://www.w3.org/2000/svg" xmlns:xlink="http://www.w3.org/1999/xlink">
<g id="graph0" class="graph" transform="scale(1 1) rotate(0) translate(4 280)">
<title>dependencies</title>
<polygon fill="#ffffff" stroke="transparent" points="-4,4 -4,-280 1621,-280 1621,4 -4,4"/>
<text text-anchor="start" x="787.5091" y="-42.4" font-family="sans-serif" font-weight="bold" font-size="14.00" fill="#000000">Legend</text>
<polygon fill="#ffffb3" stroke="transparent" points="574.5,-10 574.5,-30 594.5,-30 594.5,-10 574.5,-10"/>
<text text-anchor="start" x="598.129" y="-15.4" font-family="sans-serif" font-size="14.00" fill="#000000"> &#160;Declarations</text>
<polygon fill="#8dd3c7" stroke="transparent" points="687.5,-10 687.5,-30 707.5,-30 707.5,-10 687.5,-10"/>
<text text-anchor="start" x="711.2251" y="-15.4" font-family="sans-serif" font-size="14.00" fill="#000000"> &#160;Module</text>
<polygon fill="#80b1d3" stroke="transparent" points="773.5,-10 773.5,-30 793.5,-30 793.5,-10 773.5,-10"/>
<text text-anchor="start" x="797.2812" y="-15.4" font-family="sans-serif" font-size="14.00" fill="#000000"> &#160;Bootstrap</text>
<polygon fill="#fdb462" stroke="transparent" points="870.5,-10 870.5,-30 890.5,-30 890.5,-10 870.5,-10"/>
<text text-anchor="start" x="894.1732" y="-15.4" font-family="sans-serif" font-size="14.00" fill="#000000"> &#160;Providers</text>
<polygon fill="#fb8072" stroke="transparent" points="966.5,-10 966.5,-30 986.5,-30 986.5,-10 966.5,-10"/>
<text text-anchor="start" x="990.2258" y="-15.4" font-family="sans-serif" font-size="14.00" fill="#000000"> &#160;Exports</text>
<g id="clust1" class="cluster">
<title>cluster_NgXformModule</title>
<polygon fill="none" stroke="#000000" stroke-dasharray="1,5" points="8,-70 8,-268 1609,-268 1609,-70 8,-70"/>
</g>
<g id="clust2" class="cluster">
<title>cluster_NgXformModule_declarations</title>
<polygon fill="none" stroke="#000000" points="16,-78 16,-130 1601,-130 1601,-78 16,-78"/>
</g>
<g id="clust13" class="cluster">
<title>cluster_NgXformModule_exports</title>
<polygon fill="none" stroke="#000000" points="632,-208 632,-260 998,-260 998,-208 632,-208"/>
</g>
<!-- NgXformComponent -->
<g id="node1" class="node">
<title>NgXformComponent</title>
<polygon fill="#ffffb3" stroke="#000000" points="1592.7576,-122 1457.2424,-122 1457.2424,-86 1592.7576,-86 1592.7576,-122"/>
<text text-anchor="middle" x="1525" y="-99.8" font-family="Times,serif" font-size="14.00" fill="#000000">NgXformComponent</text>
</g>
<!-- NgXformModule -->
<g id="node10" class="node">
<title>NgXformModule</title>
<polygon fill="#8dd3c7" stroke="#000000" points="884.9748,-187 881.9748,-191 860.9748,-191 857.9748,-187 771.0252,-187 771.0252,-151 884.9748,-151 884.9748,-187"/>
<text text-anchor="middle" x="828" y="-164.8" font-family="Times,serif" font-size="14.00" fill="#000000">NgXformModule</text>
</g>
<!-- NgXformComponent&#45;&gt;NgXformModule -->
<g id="edge1" class="edge">
<title>NgXformComponent&#45;&gt;NgXformModule</title>
<path fill="none" stroke="#000000" d="M1525,-122.0109C1525,-144.4852 1525,-180 1525,-180 1525,-180 895.0384,-180 895.0384,-180"/>
<polygon fill="#000000" stroke="#000000" points="895.0385,-176.5001 885.0384,-180 895.0384,-183.5001 895.0385,-176.5001"/>
</g>
<!-- EditableLabelComponent -->
<g id="node2" class="node">
<title>EditableLabelComponent</title>
<polygon fill="#ffffb3" stroke="#000000" points="1438.8585,-122 1279.1415,-122 1279.1415,-86 1438.8585,-86 1438.8585,-122"/>
<text text-anchor="middle" x="1359" y="-99.8" font-family="Times,serif" font-size="14.00" fill="#000000">EditableLabelComponent</text>
</g>
<!-- EditableLabelComponent&#45;&gt;NgXformModule -->
<g id="edge2" class="edge">
<title>EditableLabelComponent&#45;&gt;NgXformModule</title>
<path fill="none" stroke="#000000" d="M1359,-122.1289C1359,-142.5724 1359,-173 1359,-173 1359,-173 895.0783,-173 895.0783,-173"/>
<polygon fill="#000000" stroke="#000000" points="895.0784,-169.5001 885.0783,-173 895.0783,-176.5001 895.0784,-169.5001"/>
</g>
<!-- CheckboxFieldComponent -->
<g id="node3" class="node">
<title>CheckboxFieldComponent</title>
<polygon fill="#ffffb3" stroke="#000000" points="1261.3766,-122 1094.6234,-122 1094.6234,-86 1261.3766,-86 1261.3766,-122"/>
<text text-anchor="middle" x="1178" y="-99.8" font-family="Times,serif" font-size="14.00" fill="#000000">CheckboxFieldComponent</text>
</g>
<!-- CheckboxFieldComponent&#45;&gt;NgXformModule -->
<g id="edge3" class="edge">
<title>CheckboxFieldComponent&#45;&gt;NgXformModule</title>
<path fill="none" stroke="#000000" d="M1178,-122.2667C1178,-140.5552 1178,-166 1178,-166 1178,-166 895.0125,-166 895.0125,-166"/>
<polygon fill="#000000" stroke="#000000" points="895.0125,-162.5001 885.0125,-166 895.0125,-169.5001 895.0125,-162.5001"/>
</g>
<!-- MeasureFieldComponent -->
<g id="node4" class="node">
<title>MeasureFieldComponent</title>
<polygon fill="#ffffb3" stroke="#000000" points="1076.3047,-122 917.6953,-122 917.6953,-86 1076.3047,-86 1076.3047,-122"/>
<text text-anchor="middle" x="997" y="-99.8" font-family="Times,serif" font-size="14.00" fill="#000000">MeasureFieldComponent</text>
</g>
<!-- MeasureFieldComponent&#45;&gt;NgXformModule -->
<g id="edge4" class="edge">
<title>MeasureFieldComponent&#45;&gt;NgXformModule</title>
<path fill="none" stroke="#000000" d="M953.7383,-122.0091C953.7383,-138.0494 953.7383,-159 953.7383,-159 953.7383,-159 894.9828,-159 894.9828,-159"/>
<polygon fill="#000000" stroke="#000000" points="894.9829,-155.5001 884.9828,-159 894.9828,-162.5001 894.9829,-155.5001"/>
</g>
<!-- SelectFieldComponent -->
<g id="node5" class="node">
<title>SelectFieldComponent</title>
<polygon fill="#ffffb3" stroke="#000000" points="900.3188,-122 755.6812,-122 755.6812,-86 900.3188,-86 900.3188,-122"/>
<text text-anchor="middle" x="828" y="-99.8" font-family="Times,serif" font-size="14.00" fill="#000000">SelectFieldComponent</text>
</g>
<!-- SelectFieldComponent&#45;&gt;NgXformModule -->
<g id="edge5" class="edge">
<title>SelectFieldComponent&#45;&gt;NgXformModule</title>
<path fill="none" stroke="#000000" d="M828,-122.1061C828,-122.1061 828,-140.991 828,-140.991"/>
<polygon fill="#000000" stroke="#000000" points="824.5001,-140.9909 828,-150.991 831.5001,-140.991 824.5001,-140.9909"/>
</g>
<!-- FieldErrorMessageComponent -->
<g id="node6" class="node">
<title>FieldErrorMessageComponent</title>
<polygon fill="#ffffb3" stroke="#000000" points="738.1232,-122 549.8768,-122 549.8768,-86 738.1232,-86 738.1232,-122"/>
<text text-anchor="middle" x="644" y="-99.8" font-family="Times,serif" font-size="14.00" fill="#000000">FieldErrorMessageComponent</text>
</g>
<!-- FieldErrorMessageComponent&#45;&gt;NgXformModule -->
<g id="edge6" class="edge">
<title>FieldErrorMessageComponent&#45;&gt;NgXformModule</title>
<path fill="none" stroke="#000000" d="M689.125,-122.0091C689.125,-138.0494 689.125,-159 689.125,-159 689.125,-159 760.7124,-159 760.7124,-159"/>
<polygon fill="#000000" stroke="#000000" points="760.7125,-162.5001 770.7124,-159 760.7124,-155.5001 760.7125,-162.5001"/>
</g>
<!-- ErrorMessagePipe -->
<g id="node7" class="node">
<title>ErrorMessagePipe</title>
<polygon fill="#ffffb3" stroke="#000000" points="531.9005,-122 412.0995,-122 412.0995,-86 531.9005,-86 531.9005,-122"/>
<text text-anchor="middle" x="472" y="-99.8" font-family="Times,serif" font-size="14.00" fill="#000000">ErrorMessagePipe</text>
</g>
<!-- ErrorMessagePipe&#45;&gt;NgXformModule -->
<g id="edge7" class="edge">
<title>ErrorMessagePipe&#45;&gt;NgXformModule</title>
<path fill="none" stroke="#000000" d="M472,-122.2667C472,-140.5552 472,-166 472,-166 472,-166 760.8024,-166 760.8024,-166"/>
<polygon fill="#000000" stroke="#000000" points="760.8025,-169.5001 770.8024,-166 760.8024,-162.5001 760.8025,-169.5001"/>
</g>
<!-- MultilineFieldComponent -->
<g id="node8" class="node">
<title>MultilineFieldComponent</title>
<polygon fill="#ffffb3" stroke="#000000" points="394.2232,-122 231.7768,-122 231.7768,-86 394.2232,-86 394.2232,-122"/>
<text text-anchor="middle" x="313" y="-99.8" font-family="Times,serif" font-size="14.00" fill="#000000">MultilineFieldComponent</text>
</g>
<!-- MultilineFieldComponent&#45;&gt;NgXformModule -->
<g id="edge8" class="edge">
<title>MultilineFieldComponent&#45;&gt;NgXformModule</title>
<path fill="none" stroke="#000000" d="M313,-122.1289C313,-142.5724 313,-173 313,-173 313,-173 760.9183,-173 760.9183,-173"/>
<polygon fill="#000000" stroke="#000000" points="760.9183,-176.5001 770.9183,-173 760.9182,-169.5001 760.9183,-176.5001"/>
</g>
<!-- AutocompleteFieldComponent -->
<g id="node9" class="node">
<title>AutocompleteFieldComponent</title>
<polygon fill="#ffffb3" stroke="#000000" points="213.9241,-122 24.0759,-122 24.0759,-86 213.9241,-86 213.9241,-122"/>
<text text-anchor="middle" x="119" y="-99.8" font-family="Times,serif" font-size="14.00" fill="#000000">AutocompleteFieldComponent</text>
</g>
<!-- AutocompleteFieldComponent&#45;&gt;NgXformModule -->
<g id="edge9" class="edge">
<title>AutocompleteFieldComponent&#45;&gt;NgXformModule</title>
<path fill="none" stroke="#000000" d="M119,-122.0109C119,-144.4852 119,-180 119,-180 119,-180 760.8794,-180 760.8794,-180"/>
<polygon fill="#000000" stroke="#000000" points="760.8795,-183.5001 770.8794,-180 760.8794,-176.5001 760.8795,-183.5001"/>
</g>
<!-- NgXformComponent  -->
<g id="node11" class="node">
<title>NgXformComponent </title>
<polygon fill="#fb8072" stroke="#000000" points="989.7576,-252 850.2424,-252 850.2424,-216 989.7576,-216 989.7576,-252"/>
<text text-anchor="middle" x="920" y="-229.8" font-family="Times,serif" font-size="14.00" fill="#000000">NgXformComponent </text>
</g>
<!-- NgXformModule&#45;&gt;NgXformComponent  -->
<g id="edge10" class="edge">
<title>NgXformModule&#45;&gt;NgXformComponent </title>
<path fill="none" stroke="#000000" stroke-dasharray="5,2" d="M867.6794,-187.1061C867.6794,-187.1061 867.6794,-205.991 867.6794,-205.991"/>
<polygon fill="#000000" stroke="#000000" points="864.1794,-205.9909 867.6794,-215.991 871.1794,-205.991 864.1794,-205.9909"/>
</g>
<!-- FieldErrorMessageComponent  -->
<g id="node12" class="node">
<title>FieldErrorMessageComponent </title>
<polygon fill="#fb8072" stroke="#000000" points="832.1228,-252 639.8772,-252 639.8772,-216 832.1228,-216 832.1228,-252"/>
<text text-anchor="middle" x="736" y="-229.8" font-family="Times,serif" font-size="14.00" fill="#000000">FieldErrorMessageComponent </text>
</g>
<!-- NgXformModule&#45;&gt;FieldErrorMessageComponent  -->
<g id="edge11" class="edge">
<title>NgXformModule&#45;&gt;FieldErrorMessageComponent </title>
<path fill="none" stroke="#000000" stroke-dasharray="5,2" d="M801.537,-187.1061C801.537,-187.1061 801.537,-205.991 801.537,-205.991"/>
<polygon fill="#000000" stroke="#000000" points="798.0371,-205.9909 801.537,-215.991 805.0371,-205.991 798.0371,-205.9909"/>
</g>
</g>
</svg>
