<?xml version="1.0" encoding="UTF-8" standalone="no"?>
<!DOCTYPE svg PUBLIC "-//W3C//DTD SVG 1.1//EN"
 "http://www.w3.org/Graphics/SVG/1.1/DTD/svg11.dtd">
<!-- Generated by graphviz version 2.40.1 (20161225.0304)
 -->
<!-- Title: dependencies Pages: 1 -->
<svg width="1791pt" height="284pt"
 viewBox="0.00 0.00 1791.00 284.00" xmlns="http://www.w3.org/2000/svg" xmlns:xlink="http://www.w3.org/1999/xlink">
<g id="graph0" class="graph" transform="scale(1 1) rotate(0) translate(4 280)">
<title>dependencies</title>
<polygon fill="#ffffff" stroke="transparent" points="-4,4 -4,-280 1787,-280 1787,4 -4,4"/>
<text text-anchor="start" x="870.5091" y="-42.4" font-family="sans-serif" font-weight="bold" font-size="14.00" fill="#000000">Legend</text>
<polygon fill="#ffffb3" stroke="transparent" points="657.5,-10 657.5,-30 677.5,-30 677.5,-10 657.5,-10"/>
<text text-anchor="start" x="681.129" y="-15.4" font-family="sans-serif" font-size="14.00" fill="#000000"> &#160;Declarations</text>
<polygon fill="#8dd3c7" stroke="transparent" points="770.5,-10 770.5,-30 790.5,-30 790.5,-10 770.5,-10"/>
<text text-anchor="start" x="794.2251" y="-15.4" font-family="sans-serif" font-size="14.00" fill="#000000"> &#160;Module</text>
<polygon fill="#80b1d3" stroke="transparent" points="856.5,-10 856.5,-30 876.5,-30 876.5,-10 856.5,-10"/>
<text text-anchor="start" x="880.2812" y="-15.4" font-family="sans-serif" font-size="14.00" fill="#000000"> &#160;Bootstrap</text>
<polygon fill="#fdb462" stroke="transparent" points="953.5,-10 953.5,-30 973.5,-30 973.5,-10 953.5,-10"/>
<text text-anchor="start" x="977.1732" y="-15.4" font-family="sans-serif" font-size="14.00" fill="#000000"> &#160;Providers</text>
<polygon fill="#fb8072" stroke="transparent" points="1049.5,-10 1049.5,-30 1069.5,-30 1069.5,-10 1049.5,-10"/>
<text text-anchor="start" x="1073.2258" y="-15.4" font-family="sans-serif" font-size="14.00" fill="#000000"> &#160;Exports</text>
<g id="clust1" class="cluster">
<title>cluster_NgXformModule</title>
<polygon fill="none" stroke="#000000" stroke-dasharray="1,5" points="8,-70 8,-268 1775,-268 1775,-70 8,-70"/>
</g>
<g id="clust2" class="cluster">
<title>cluster_NgXformModule_declarations</title>
<polygon fill="none" stroke="#000000" points="16,-78 16,-130 1767,-130 1767,-78 16,-78"/>
</g>
<g id="clust14" class="cluster">
<title>cluster_NgXformModule_exports</title>
<polygon fill="none" stroke="#000000" points="716,-208 716,-260 1082,-260 1082,-208 716,-208"/>
</g>
<!-- NgXformComponent -->
<g id="node1" class="node">
<title>NgXformComponent</title>
<polygon fill="#ffffb3" stroke="#000000" points="1758.7576,-122 1623.2424,-122 1623.2424,-86 1758.7576,-86 1758.7576,-122"/>
<text text-anchor="middle" x="1691" y="-99.8" font-family="Times,serif" font-size="14.00" fill="#000000">NgXformComponent</text>
</g>
<!-- NgXformModule -->
<g id="node11" class="node">
<title>NgXformModule</title>
<polygon fill="#8dd3c7" stroke="#000000" points="968.9748,-187 965.9748,-191 944.9748,-191 941.9748,-187 855.0252,-187 855.0252,-151 968.9748,-151 968.9748,-187"/>
<text text-anchor="middle" x="912" y="-164.8" font-family="Times,serif" font-size="14.00" fill="#000000">NgXformModule</text>
</g>
<!-- NgXformComponent&#45;&gt;NgXformModule -->
<g id="edge1" class="edge">
<title>NgXformComponent&#45;&gt;NgXformModule</title>
<path fill="none" stroke="#000000" d="M1691,-122.0109C1691,-144.4852 1691,-180 1691,-180 1691,-180 979.2817,-180 979.2817,-180"/>
<polygon fill="#000000" stroke="#000000" points="979.2818,-176.5001 969.2817,-180 979.2817,-183.5001 979.2818,-176.5001"/>
</g>
<!-- FormGroupComponent -->
<g id="node2" class="node">
<title>FormGroupComponent</title>
<polygon fill="#ffffb3" stroke="#000000" points="1604.934,-122 1457.066,-122 1457.066,-86 1604.934,-86 1604.934,-122"/>
<text text-anchor="middle" x="1531" y="-99.8" font-family="Times,serif" font-size="14.00" fill="#000000">FormGroupComponent</text>
</g>
<!-- FormGroupComponent&#45;&gt;NgXformModule -->
<g id="edge2" class="edge">
<title>FormGroupComponent&#45;&gt;NgXformModule</title>
<path fill="none" stroke="#000000" d="M1531,-122.1289C1531,-142.5724 1531,-173 1531,-173 1531,-173 979.1245,-173 979.1245,-173"/>
<polygon fill="#000000" stroke="#000000" points="979.1245,-169.5001 969.1245,-173 979.1245,-176.5001 979.1245,-169.5001"/>
</g>
<!-- EditableLabelComponent -->
<g id="node3" class="node">
<title>EditableLabelComponent</title>
<polygon fill="#ffffb3" stroke="#000000" points="1438.8585,-122 1279.1415,-122 1279.1415,-86 1438.8585,-86 1438.8585,-122"/>
<text text-anchor="middle" x="1359" y="-99.8" font-family="Times,serif" font-size="14.00" fill="#000000">EditableLabelComponent</text>
</g>
<!-- EditableLabelComponent&#45;&gt;NgXformModule -->
<g id="edge3" class="edge">
<title>EditableLabelComponent&#45;&gt;NgXformModule</title>
<path fill="none" stroke="#000000" d="M1359,-122.2667C1359,-140.5552 1359,-166 1359,-166 1359,-166 979.0669,-166 979.0669,-166"/>
<polygon fill="#000000" stroke="#000000" points="979.0669,-162.5001 969.0669,-166 979.0669,-169.5001 979.0669,-162.5001"/>
</g>
<!-- CheckboxFieldComponent -->
<g id="node4" class="node">
<title>CheckboxFieldComponent</title>
<polygon fill="#ffffb3" stroke="#000000" points="1261.3766,-122 1094.6234,-122 1094.6234,-86 1261.3766,-86 1261.3766,-122"/>
<text text-anchor="middle" x="1178" y="-99.8" font-family="Times,serif" font-size="14.00" fill="#000000">CheckboxFieldComponent</text>
</g>
<!-- CheckboxFieldComponent&#45;&gt;NgXformModule -->
<g id="edge4" class="edge">
<title>CheckboxFieldComponent&#45;&gt;NgXformModule</title>
<path fill="none" stroke="#000000" d="M1178,-122.0091C1178,-138.0494 1178,-159 1178,-159 1178,-159 979.0637,-159 979.0637,-159"/>
<polygon fill="#000000" stroke="#000000" points="979.0637,-155.5001 969.0637,-159 979.0636,-162.5001 979.0637,-155.5001"/>
</g>
<!-- MeasureFieldComponent -->
<g id="node5" class="node">
<title>MeasureFieldComponent</title>
<polygon fill="#ffffb3" stroke="#000000" points="1076.3047,-122 917.6953,-122 917.6953,-86 1076.3047,-86 1076.3047,-122"/>
<text text-anchor="middle" x="997" y="-99.8" font-family="Times,serif" font-size="14.00" fill="#000000">MeasureFieldComponent</text>
</g>
<!-- MeasureFieldComponent&#45;&gt;NgXformModule -->
<g id="edge5" class="edge">
<title>MeasureFieldComponent&#45;&gt;NgXformModule</title>
<path fill="none" stroke="#000000" d="M943.4176,-122.1061C943.4176,-122.1061 943.4176,-140.991 943.4176,-140.991"/>
<polygon fill="#000000" stroke="#000000" points="939.9177,-140.9909 943.4176,-150.991 946.9177,-140.991 939.9177,-140.9909"/>
</g>
<!-- SelectFieldComponent -->
<g id="node6" class="node">
<title>SelectFieldComponent</title>
<polygon fill="#ffffb3" stroke="#000000" points="900.3188,-122 755.6812,-122 755.6812,-86 900.3188,-86 900.3188,-122"/>
<text text-anchor="middle" x="828" y="-99.8" font-family="Times,serif" font-size="14.00" fill="#000000">SelectFieldComponent</text>
</g>
<!-- SelectFieldComponent&#45;&gt;NgXformModule -->
<g id="edge6" class="edge">
<title>SelectFieldComponent&#45;&gt;NgXformModule</title>
<path fill="none" stroke="#000000" d="M877.5859,-122.1061C877.5859,-122.1061 877.5859,-140.991 877.5859,-140.991"/>
<polygon fill="#000000" stroke="#000000" points="874.086,-140.9909 877.5859,-150.991 881.086,-140.991 874.086,-140.9909"/>
</g>
<!-- FieldErrorMessageComponent -->
<g id="node7" class="node">
<title>FieldErrorMessageComponent</title>
<polygon fill="#ffffb3" stroke="#000000" points="738.1232,-122 549.8768,-122 549.8768,-86 738.1232,-86 738.1232,-122"/>
<text text-anchor="middle" x="644" y="-99.8" font-family="Times,serif" font-size="14.00" fill="#000000">FieldErrorMessageComponent</text>
</g>
<!-- FieldErrorMessageComponent&#45;&gt;NgXformModule -->
<g id="edge7" class="edge">
<title>FieldErrorMessageComponent&#45;&gt;NgXformModule</title>
<path fill="none" stroke="#000000" d="M731.125,-122.0091C731.125,-138.0494 731.125,-159 731.125,-159 731.125,-159 844.77,-159 844.77,-159"/>
<polygon fill="#000000" stroke="#000000" points="844.7701,-162.5001 854.77,-159 844.77,-155.5001 844.7701,-162.5001"/>
</g>
<!-- ErrorMessagePipe -->
<g id="node8" class="node">
<title>ErrorMessagePipe</title>
<polygon fill="#ffffb3" stroke="#000000" points="531.9005,-122 412.0995,-122 412.0995,-86 531.9005,-86 531.9005,-122"/>
<text text-anchor="middle" x="472" y="-99.8" font-family="Times,serif" font-size="14.00" fill="#000000">ErrorMessagePipe</text>
</g>
<!-- ErrorMessagePipe&#45;&gt;NgXformModule -->
<g id="edge8" class="edge">
<title>ErrorMessagePipe&#45;&gt;NgXformModule</title>
<path fill="none" stroke="#000000" d="M472,-122.2667C472,-140.5552 472,-166 472,-166 472,-166 844.9288,-166 844.9288,-166"/>
<polygon fill="#000000" stroke="#000000" points="844.9288,-169.5001 854.9288,-166 844.9287,-162.5001 844.9288,-169.5001"/>
</g>
<!-- MultilineFieldComponent -->
<g id="node9" class="node">
<title>MultilineFieldComponent</title>
<polygon fill="#ffffb3" stroke="#000000" points="394.2232,-122 231.7768,-122 231.7768,-86 394.2232,-86 394.2232,-122"/>
<text text-anchor="middle" x="313" y="-99.8" font-family="Times,serif" font-size="14.00" fill="#000000">MultilineFieldComponent</text>
</g>
<!-- MultilineFieldComponent&#45;&gt;NgXformModule -->
<g id="edge9" class="edge">
<title>MultilineFieldComponent&#45;&gt;NgXformModule</title>
<path fill="none" stroke="#000000" d="M313,-122.1289C313,-142.5724 313,-173 313,-173 313,-173 844.8367,-173 844.8367,-173"/>
<polygon fill="#000000" stroke="#000000" points="844.8367,-176.5001 854.8367,-173 844.8367,-169.5001 844.8367,-176.5001"/>
</g>
<!-- AutocompleteFieldComponent -->
<g id="node10" class="node">
<title>AutocompleteFieldComponent</title>
<polygon fill="#ffffb3" stroke="#000000" points="213.9241,-122 24.0759,-122 24.0759,-86 213.9241,-86 213.9241,-122"/>
<text text-anchor="middle" x="119" y="-99.8" font-family="Times,serif" font-size="14.00" fill="#000000">AutocompleteFieldComponent</text>
</g>
<!-- AutocompleteFieldComponent&#45;&gt;NgXformModule -->
<g id="edge10" class="edge">
<title>AutocompleteFieldComponent&#45;&gt;NgXformModule</title>
<path fill="none" stroke="#000000" d="M119,-122.0109C119,-144.4852 119,-180 119,-180 119,-180 844.9694,-180 844.9694,-180"/>
<polygon fill="#000000" stroke="#000000" points="844.9694,-183.5001 854.9694,-180 844.9694,-176.5001 844.9694,-183.5001"/>
</g>
<!-- NgXformComponent  -->
<g id="node12" class="node">
<title>NgXformComponent </title>
<polygon fill="#fb8072" stroke="#000000" points="1073.7576,-252 934.2424,-252 934.2424,-216 1073.7576,-216 1073.7576,-252"/>
<text text-anchor="middle" x="1004" y="-229.8" font-family="Times,serif" font-size="14.00" fill="#000000">NgXformComponent </text>
</g>
<!-- NgXformModule&#45;&gt;NgXformComponent  -->
<g id="edge11" class="edge">
<title>NgXformModule&#45;&gt;NgXformComponent </title>
<path fill="none" stroke="#000000" stroke-dasharray="5,2" d="M951.6794,-187.1061C951.6794,-187.1061 951.6794,-205.991 951.6794,-205.991"/>
<polygon fill="#000000" stroke="#000000" points="948.1794,-205.9909 951.6794,-215.991 955.1794,-205.991 948.1794,-205.9909"/>
</g>
<!-- FieldErrorMessageComponent  -->
<g id="node13" class="node">
<title>FieldErrorMessageComponent </title>
<polygon fill="#fb8072" stroke="#000000" points="916.1228,-252 723.8772,-252 723.8772,-216 916.1228,-216 916.1228,-252"/>
<text text-anchor="middle" x="820" y="-229.8" font-family="Times,serif" font-size="14.00" fill="#000000">FieldErrorMessageComponent </text>
</g>
<!-- NgXformModule&#45;&gt;FieldErrorMessageComponent  -->
<g id="edge12" class="edge">
<title>NgXformModule&#45;&gt;FieldErrorMessageComponent </title>
<path fill="none" stroke="#000000" stroke-dasharray="5,2" d="M885.537,-187.1061C885.537,-187.1061 885.537,-205.991 885.537,-205.991"/>
<polygon fill="#000000" stroke="#000000" points="882.0371,-205.9909 885.537,-215.991 889.0371,-205.991 882.0371,-205.9909"/>
</g>
</g>
</svg>
