<?xml version="1.0" encoding="UTF-8" standalone="no"?>
<!DOCTYPE svg PUBLIC "-//W3C//DTD SVG 1.1//EN"
 "http://www.w3.org/Graphics/SVG/1.1/DTD/svg11.dtd">
<!-- Generated by graphviz version 2.40.1 (20161225.0304)
 -->
<!-- Title: dependencies Pages: 1 -->
<svg width="3477pt" height="284pt"
 viewBox="0.00 0.00 3477.00 284.00" xmlns="http://www.w3.org/2000/svg" xmlns:xlink="http://www.w3.org/1999/xlink">
<g id="graph0" class="graph" transform="scale(1 1) rotate(0) translate(4 280)">
<title>dependencies</title>
<polygon fill="#ffffff" stroke="transparent" points="-4,4 -4,-280 3473,-280 3473,4 -4,4"/>
<text text-anchor="start" x="1713.5091" y="-42.4" font-family="sans-serif" font-weight="bold" font-size="14.00" fill="#000000">Legend</text>
<polygon fill="#ffffb3" stroke="transparent" points="1500.5,-10 1500.5,-30 1520.5,-30 1520.5,-10 1500.5,-10"/>
<text text-anchor="start" x="1524.129" y="-15.4" font-family="sans-serif" font-size="14.00" fill="#000000"> &#160;Declarations</text>
<polygon fill="#8dd3c7" stroke="transparent" points="1613.5,-10 1613.5,-30 1633.5,-30 1633.5,-10 1613.5,-10"/>
<text text-anchor="start" x="1637.2251" y="-15.4" font-family="sans-serif" font-size="14.00" fill="#000000"> &#160;Module</text>
<polygon fill="#80b1d3" stroke="transparent" points="1699.5,-10 1699.5,-30 1719.5,-30 1719.5,-10 1699.5,-10"/>
<text text-anchor="start" x="1723.2812" y="-15.4" font-family="sans-serif" font-size="14.00" fill="#000000"> &#160;Bootstrap</text>
<polygon fill="#fdb462" stroke="transparent" points="1796.5,-10 1796.5,-30 1816.5,-30 1816.5,-10 1796.5,-10"/>
<text text-anchor="start" x="1820.1732" y="-15.4" font-family="sans-serif" font-size="14.00" fill="#000000"> &#160;Providers</text>
<polygon fill="#fb8072" stroke="transparent" points="1892.5,-10 1892.5,-30 1912.5,-30 1912.5,-10 1892.5,-10"/>
<text text-anchor="start" x="1916.2258" y="-15.4" font-family="sans-serif" font-size="14.00" fill="#000000"> &#160;Exports</text>
<g id="clust1" class="cluster">
<title>cluster_NgXformModule</title>
<polygon fill="none" stroke="#000000" stroke-dasharray="1,5" points="8,-70 8,-268 3461,-268 3461,-70 8,-70"/>
</g>
<g id="clust2" class="cluster">
<title>cluster_NgXformModule_declarations</title>
<polygon fill="none" stroke="#000000" points="16,-78 16,-130 3453,-130 3453,-78 16,-78"/>
</g>
<g id="clust23" class="cluster">
<title>cluster_NgXformModule_exports</title>
<polygon fill="none" stroke="#000000" points="1382,-208 1382,-260 2134,-260 2134,-208 1382,-208"/>
</g>
<!-- NgXformComponent -->
<g id="node1" class="node">
<title>NgXformComponent</title>
<polygon fill="#ffffb3" stroke="#000000" points="3444.7576,-122 3309.2424,-122 3309.2424,-86 3444.7576,-86 3444.7576,-122"/>
<text text-anchor="middle" x="3377" y="-99.8" font-family="Times,serif" font-size="14.00" fill="#000000">NgXformComponent</text>
</g>
<!-- NgXformModule -->
<g id="node20" class="node">
<title>NgXformModule</title>
<polygon fill="#8dd3c7" stroke="#000000" points="1824.9748,-187 1821.9748,-191 1800.9748,-191 1797.9748,-187 1711.0252,-187 1711.0252,-151 1824.9748,-151 1824.9748,-187"/>
<text text-anchor="middle" x="1768" y="-164.8" font-family="Times,serif" font-size="14.00" fill="#000000">NgXformModule</text>
</g>
<!-- NgXformComponent&#45;&gt;NgXformModule -->
<g id="edge1" class="edge">
<title>NgXformComponent&#45;&gt;NgXformModule</title>
<path fill="none" stroke="#000000" d="M3377,-122.2479C3377,-145.0179 3377,-181 3377,-181 3377,-181 1835.2652,-181 1835.2652,-181"/>
<polygon fill="#000000" stroke="#000000" points="1835.2652,-177.5001 1825.2652,-181 1835.2651,-184.5001 1835.2652,-177.5001"/>
</g>
<!-- NgXformEditSaveComponent -->
<g id="node2" class="node">
<title>NgXformEditSaveComponent</title>
<polygon fill="#ffffb3" stroke="#000000" points="3291.3032,-122 3104.6968,-122 3104.6968,-86 3291.3032,-86 3291.3032,-122"/>
<text text-anchor="middle" x="3198" y="-99.8" font-family="Times,serif" font-size="14.00" fill="#000000">NgXformEditSaveComponent</text>
</g>
<!-- NgXformEditSaveComponent&#45;&gt;NgXformModule -->
<g id="edge2" class="edge">
<title>NgXformEditSaveComponent&#45;&gt;NgXformModule</title>
<path fill="none" stroke="#000000" d="M3198,-122.2921C3198,-144.2057 3198,-178 3198,-178 3198,-178 1835.3837,-178 1835.3837,-178"/>
<polygon fill="#000000" stroke="#000000" points="1835.3837,-174.5001 1825.3837,-178 1835.3837,-181.5001 1835.3837,-174.5001"/>
</g>
<!-- FormGroupComponent -->
<g id="node3" class="node">
<title>FormGroupComponent</title>
<polygon fill="#ffffb3" stroke="#000000" points="3086.934,-122 2939.066,-122 2939.066,-86 3086.934,-86 3086.934,-122"/>
<text text-anchor="middle" x="3013" y="-99.8" font-family="Times,serif" font-size="14.00" fill="#000000">FormGroupComponent</text>
</g>
<!-- FormGroupComponent&#45;&gt;NgXformModule -->
<g id="edge3" class="edge">
<title>FormGroupComponent&#45;&gt;NgXformModule</title>
<path fill="none" stroke="#000000" d="M3013,-122.0267C3013,-142.7672 3013,-174 3013,-174 3013,-174 1835.1404,-174 1835.1404,-174"/>
<polygon fill="#000000" stroke="#000000" points="1835.1405,-170.5001 1825.1404,-174 1835.1404,-177.5001 1835.1405,-170.5001"/>
</g>
<!-- EditableLabelComponent -->
<g id="node4" class="node">
<title>EditableLabelComponent</title>
<polygon fill="#ffffb3" stroke="#000000" points="2920.8585,-122 2761.1415,-122 2761.1415,-86 2920.8585,-86 2920.8585,-122"/>
<text text-anchor="middle" x="2841" y="-99.8" font-family="Times,serif" font-size="14.00" fill="#000000">EditableLabelComponent</text>
</g>
<!-- EditableLabelComponent&#45;&gt;NgXformModule -->
<g id="edge4" class="edge">
<title>EditableLabelComponent&#45;&gt;NgXformModule</title>
<path fill="none" stroke="#000000" d="M2841,-122.308C2841,-142.1455 2841,-171 2841,-171 2841,-171 1835.3098,-171 1835.3098,-171"/>
<polygon fill="#000000" stroke="#000000" points="1835.3098,-167.5001 1825.3098,-171 1835.3098,-174.5001 1835.3098,-167.5001"/>
</g>
<!-- NumberFieldComponent -->
<g id="node5" class="node">
<title>NumberFieldComponent</title>
<polygon fill="#ffffb3" stroke="#000000" points="2742.9832,-122 2587.0168,-122 2587.0168,-86 2742.9832,-86 2742.9832,-122"/>
<text text-anchor="middle" x="2665" y="-99.8" font-family="Times,serif" font-size="14.00" fill="#000000">NumberFieldComponent</text>
</g>
<!-- NumberFieldComponent&#45;&gt;NgXformModule -->
<g id="edge5" class="edge">
<title>NumberFieldComponent&#45;&gt;NgXformModule</title>
<path fill="none" stroke="#000000" d="M2665,-122.1686C2665,-141.0898 2665,-168 2665,-168 2665,-168 1835.1335,-168 1835.1335,-168"/>
<polygon fill="#000000" stroke="#000000" points="1835.1335,-164.5001 1825.1335,-168 1835.1334,-171.5001 1835.1335,-164.5001"/>
</g>
<!-- CheckboxFieldComponent -->
<g id="node6" class="node">
<title>CheckboxFieldComponent</title>
<polygon fill="#ffffb3" stroke="#000000" points="2569.3766,-122 2402.6234,-122 2402.6234,-86 2569.3766,-86 2569.3766,-122"/>
<text text-anchor="middle" x="2486" y="-99.8" font-family="Times,serif" font-size="14.00" fill="#000000">CheckboxFieldComponent</text>
</g>
<!-- CheckboxFieldComponent&#45;&gt;NgXformModule -->
<g id="edge6" class="edge">
<title>CheckboxFieldComponent&#45;&gt;NgXformModule</title>
<path fill="none" stroke="#000000" d="M2486,-122.302C2486,-140.2699 2486,-165 2486,-165 2486,-165 1835.2415,-165 1835.2415,-165"/>
<polygon fill="#000000" stroke="#000000" points="1835.2415,-161.5001 1825.2415,-165 1835.2415,-168.5001 1835.2415,-161.5001"/>
</g>
<!-- CustomFieldComponent -->
<g id="node7" class="node">
<title>CustomFieldComponent</title>
<polygon fill="#ffffb3" stroke="#000000" points="2384.6735,-122 2231.3265,-122 2231.3265,-86 2384.6735,-86 2384.6735,-122"/>
<text text-anchor="middle" x="2308" y="-99.8" font-family="Times,serif" font-size="14.00" fill="#000000">CustomFieldComponent</text>
</g>
<!-- CustomFieldComponent&#45;&gt;NgXformModule -->
<g id="edge7" class="edge">
<title>CustomFieldComponent&#45;&gt;NgXformModule</title>
<path fill="none" stroke="#000000" d="M2308,-122.0352C2308,-138.7344 2308,-161 2308,-161 2308,-161 1835.0233,-161 1835.0233,-161"/>
<polygon fill="#000000" stroke="#000000" points="1835.0233,-157.5001 1825.0233,-161 1835.0233,-164.5001 1835.0233,-157.5001"/>
</g>
<!-- RadioGroupFieldComponent -->
<g id="node8" class="node">
<title>RadioGroupFieldComponent</title>
<polygon fill="#ffffb3" stroke="#000000" points="2213.8201,-122 2034.1799,-122 2034.1799,-86 2213.8201,-86 2213.8201,-122"/>
<text text-anchor="middle" x="2124" y="-99.8" font-family="Times,serif" font-size="14.00" fill="#000000">RadioGroupFieldComponent</text>
</g>
<!-- RadioGroupFieldComponent&#45;&gt;NgXformModule -->
<g id="edge8" class="edge">
<title>RadioGroupFieldComponent&#45;&gt;NgXformModule</title>
<path fill="none" stroke="#000000" d="M2079.9844,-122.2819C2079.9844,-137.9478 2079.9844,-158 2079.9844,-158 2079.9844,-158 1835.2227,-158 1835.2227,-158"/>
<polygon fill="#000000" stroke="#000000" points="1835.2228,-154.5001 1825.2227,-158 1835.2227,-161.5001 1835.2228,-154.5001"/>
</g>
<!-- MeasureFieldComponent -->
<g id="node9" class="node">
<title>MeasureFieldComponent</title>
<polygon fill="#ffffb3" stroke="#000000" points="2016.3047,-122 1857.6953,-122 1857.6953,-86 2016.3047,-86 2016.3047,-122"/>
<text text-anchor="middle" x="1937" y="-99.8" font-family="Times,serif" font-size="14.00" fill="#000000">MeasureFieldComponent</text>
</g>
<!-- MeasureFieldComponent&#45;&gt;NgXformModule -->
<g id="edge9" class="edge">
<title>MeasureFieldComponent&#45;&gt;NgXformModule</title>
<path fill="none" stroke="#000000" d="M1912.8747,-122.1243C1912.8747,-136.7832 1912.8747,-155 1912.8747,-155 1912.8747,-155 1835.2583,-155 1835.2583,-155"/>
<polygon fill="#000000" stroke="#000000" points="1835.2583,-151.5001 1825.2583,-155 1835.2583,-158.5001 1835.2583,-151.5001"/>
</g>
<!-- SelectFieldComponent -->
<g id="node10" class="node">
<title>SelectFieldComponent</title>
<polygon fill="#ffffb3" stroke="#000000" points="1840.3188,-122 1695.6812,-122 1695.6812,-86 1840.3188,-86 1840.3188,-122"/>
<text text-anchor="middle" x="1768" y="-99.8" font-family="Times,serif" font-size="14.00" fill="#000000">SelectFieldComponent</text>
</g>
<!-- SelectFieldComponent&#45;&gt;NgXformModule -->
<g id="edge10" class="edge">
<title>SelectFieldComponent&#45;&gt;NgXformModule</title>
<path fill="none" stroke="#000000" d="M1768,-122.1061C1768,-122.1061 1768,-140.991 1768,-140.991"/>
<polygon fill="#000000" stroke="#000000" points="1764.5001,-140.9909 1768,-150.991 1771.5001,-140.991 1764.5001,-140.9909"/>
</g>
<!-- FieldErrorMessageComponent -->
<g id="node11" class="node">
<title>FieldErrorMessageComponent</title>
<polygon fill="#ffffb3" stroke="#000000" points="1678.1232,-122 1489.8768,-122 1489.8768,-86 1678.1232,-86 1678.1232,-122"/>
<text text-anchor="middle" x="1584" y="-99.8" font-family="Times,serif" font-size="14.00" fill="#000000">FieldErrorMessageComponent</text>
</g>
<!-- FieldErrorMessageComponent&#45;&gt;NgXformModule -->
<g id="edge11" class="edge">
<title>FieldErrorMessageComponent&#45;&gt;NgXformModule</title>
<path fill="none" stroke="#000000" d="M1623.125,-122.1243C1623.125,-136.7832 1623.125,-155 1623.125,-155 1623.125,-155 1700.7416,-155 1700.7416,-155"/>
<polygon fill="#000000" stroke="#000000" points="1700.7416,-158.5001 1710.7416,-155 1700.7415,-151.5001 1700.7416,-158.5001"/>
</g>
<!-- ErrorMessagePipe -->
<g id="node12" class="node">
<title>ErrorMessagePipe</title>
<polygon fill="#ffffb3" stroke="#000000" points="1471.9005,-122 1352.0995,-122 1352.0995,-86 1471.9005,-86 1471.9005,-122"/>
<text text-anchor="middle" x="1412" y="-99.8" font-family="Times,serif" font-size="14.00" fill="#000000">ErrorMessagePipe</text>
</g>
<!-- ErrorMessagePipe&#45;&gt;NgXformModule -->
<g id="edge12" class="edge">
<title>ErrorMessagePipe&#45;&gt;NgXformModule</title>
<path fill="none" stroke="#000000" d="M1430.786,-122.2819C1430.786,-137.9478 1430.786,-158 1430.786,-158 1430.786,-158 1700.7962,-158 1700.7962,-158"/>
<polygon fill="#000000" stroke="#000000" points="1700.7963,-161.5001 1710.7962,-158 1700.7962,-154.5001 1700.7963,-161.5001"/>
</g>
<!-- MultilineFieldComponent -->
<g id="node13" class="node">
<title>MultilineFieldComponent</title>
<polygon fill="#ffffb3" stroke="#000000" points="1334.2232,-122 1171.7768,-122 1171.7768,-86 1334.2232,-86 1334.2232,-122"/>
<text text-anchor="middle" x="1253" y="-99.8" font-family="Times,serif" font-size="14.00" fill="#000000">MultilineFieldComponent</text>
</g>
<!-- MultilineFieldComponent&#45;&gt;NgXformModule -->
<g id="edge13" class="edge">
<title>MultilineFieldComponent&#45;&gt;NgXformModule</title>
<path fill="none" stroke="#000000" d="M1253,-122.0352C1253,-138.7344 1253,-161 1253,-161 1253,-161 1700.9183,-161 1700.9183,-161"/>
<polygon fill="#000000" stroke="#000000" points="1700.9183,-164.5001 1710.9183,-161 1700.9182,-157.5001 1700.9183,-164.5001"/>
</g>
<!-- OptionalTagComponent -->
<g id="node14" class="node">
<title>OptionalTagComponent</title>
<polygon fill="#ffffb3" stroke="#000000" points="1154.0926,-122 1001.9074,-122 1001.9074,-86 1154.0926,-86 1154.0926,-122"/>
<text text-anchor="middle" x="1078" y="-99.8" font-family="Times,serif" font-size="14.00" fill="#000000">OptionalTagComponent</text>
</g>
<!-- OptionalTagComponent&#45;&gt;NgXformModule -->
<g id="edge14" class="edge">
<title>OptionalTagComponent&#45;&gt;NgXformModule</title>
<path fill="none" stroke="#000000" d="M1078,-122.302C1078,-140.2699 1078,-165 1078,-165 1078,-165 1700.9474,-165 1700.9474,-165"/>
<polygon fill="#000000" stroke="#000000" points="1700.9474,-168.5001 1710.9474,-165 1700.9473,-161.5001 1700.9474,-168.5001"/>
</g>
<!-- DateFieldComponent -->
<g id="node15" class="node">
<title>DateFieldComponent</title>
<polygon fill="#ffffb3" stroke="#000000" points="984.038,-122 847.962,-122 847.962,-86 984.038,-86 984.038,-122"/>
<text text-anchor="middle" x="916" y="-99.8" font-family="Times,serif" font-size="14.00" fill="#000000">DateFieldComponent</text>
</g>
<!-- DateFieldComponent&#45;&gt;NgXformModule -->
<g id="edge15" class="edge">
<title>DateFieldComponent&#45;&gt;NgXformModule</title>
<path fill="none" stroke="#000000" d="M916,-122.1686C916,-141.0898 916,-168 916,-168 916,-168 1700.7749,-168 1700.7749,-168"/>
<polygon fill="#000000" stroke="#000000" points="1700.7749,-171.5001 1710.7749,-168 1700.7749,-164.5001 1700.7749,-171.5001"/>
</g>
<!-- DateRangeFieldComponent -->
<g id="node16" class="node">
<title>DateRangeFieldComponent</title>
<polygon fill="#ffffb3" stroke="#000000" points="830.3033,-122 657.6967,-122 657.6967,-86 830.3033,-86 830.3033,-122"/>
<text text-anchor="middle" x="744" y="-99.8" font-family="Times,serif" font-size="14.00" fill="#000000">DateRangeFieldComponent</text>
</g>
<!-- DateRangeFieldComponent&#45;&gt;NgXformModule -->
<g id="edge16" class="edge">
<title>DateRangeFieldComponent&#45;&gt;NgXformModule</title>
<path fill="none" stroke="#000000" d="M744,-122.308C744,-142.1455 744,-171 744,-171 744,-171 1700.7511,-171 1700.7511,-171"/>
<polygon fill="#000000" stroke="#000000" points="1700.7512,-174.5001 1710.7511,-171 1700.7511,-167.5001 1700.7512,-174.5001"/>
</g>
<!-- FormControlLayoutComponent -->
<g id="node17" class="node">
<title>FormControlLayoutComponent</title>
<polygon fill="#ffffb3" stroke="#000000" points="640.1024,-122 445.8976,-122 445.8976,-86 640.1024,-86 640.1024,-122"/>
<text text-anchor="middle" x="543" y="-99.8" font-family="Times,serif" font-size="14.00" fill="#000000">FormControlLayoutComponent</text>
</g>
<!-- FormControlLayoutComponent&#45;&gt;NgXformModule -->
<g id="edge17" class="edge">
<title>FormControlLayoutComponent&#45;&gt;NgXformModule</title>
<path fill="none" stroke="#000000" d="M543,-122.0267C543,-142.7672 543,-174 543,-174 543,-174 1700.9663,-174 1700.9663,-174"/>
<polygon fill="#000000" stroke="#000000" points="1700.9663,-177.5001 1710.9663,-174 1700.9663,-170.5001 1700.9663,-177.5001"/>
</g>
<!-- EditSaveCancelButtonBarComponent -->
<g id="node18" class="node">
<title>EditSaveCancelButtonBarComponent</title>
<polygon fill="#ffffb3" stroke="#000000" points="427.5786,-122 198.4214,-122 198.4214,-86 427.5786,-86 427.5786,-122"/>
<text text-anchor="middle" x="313" y="-99.8" font-family="Times,serif" font-size="14.00" fill="#000000">EditSaveCancelButtonBarComponent</text>
</g>
<!-- EditSaveCancelButtonBarComponent&#45;&gt;NgXformModule -->
<g id="edge18" class="edge">
<title>EditSaveCancelButtonBarComponent&#45;&gt;NgXformModule</title>
<path fill="none" stroke="#000000" d="M313,-122.2921C313,-144.2057 313,-178 313,-178 313,-178 1700.9623,-178 1700.9623,-178"/>
<polygon fill="#000000" stroke="#000000" points="1700.9623,-181.5001 1710.9623,-178 1700.9622,-174.5001 1700.9623,-181.5001"/>
</g>
<!-- InputNumberComponent -->
<g id="node19" class="node">
<title>InputNumberComponent</title>
<polygon fill="#ffffb3" stroke="#000000" points="180.2562,-122 23.7438,-122 23.7438,-86 180.2562,-86 180.2562,-122"/>
<text text-anchor="middle" x="102" y="-99.8" font-family="Times,serif" font-size="14.00" fill="#000000">InputNumberComponent</text>
</g>
<!-- InputNumberComponent&#45;&gt;NgXformModule -->
<g id="edge19" class="edge">
<title>InputNumberComponent&#45;&gt;NgXformModule</title>
<path fill="none" stroke="#000000" d="M102,-122.2479C102,-145.0179 102,-181 102,-181 102,-181 1700.6525,-181 1700.6525,-181"/>
<polygon fill="#000000" stroke="#000000" points="1700.6525,-184.5001 1710.6525,-181 1700.6525,-177.5001 1700.6525,-184.5001"/>
</g>
<!-- NgXformComponent  -->
<g id="node21" class="node">
<title>NgXformComponent </title>
<polygon fill="#fb8072" stroke="#000000" points="2125.7576,-252 1986.2424,-252 1986.2424,-216 2125.7576,-216 2125.7576,-252"/>
<text text-anchor="middle" x="2056" y="-229.8" font-family="Times,serif" font-size="14.00" fill="#000000">NgXformComponent </text>
</g>
<!-- NgXformModule&#45;&gt;NgXformComponent  -->
<g id="edge20" class="edge">
<title>NgXformModule&#45;&gt;NgXformComponent </title>
<path fill="none" stroke="#000000" stroke-dasharray="5,2" d="M1825.0622,-184C1894.1191,-184 2001.2618,-184 2001.2618,-184 2001.2618,-184 2001.2618,-205.9489 2001.2618,-205.9489"/>
<polygon fill="#000000" stroke="#000000" points="1997.7618,-205.9488 2001.2618,-215.9489 2004.7618,-205.9489 1997.7618,-205.9488"/>
</g>
<!-- NgXformEditSaveComponent  -->
<g id="node22" class="node">
<title>NgXformEditSaveComponent </title>
<polygon fill="#fb8072" stroke="#000000" points="1967.8031,-252 1778.1969,-252 1778.1969,-216 1967.8031,-216 1967.8031,-252"/>
<text text-anchor="middle" x="1873" y="-229.8" font-family="Times,serif" font-size="14.00" fill="#000000">NgXformEditSaveComponent </text>
</g>
<!-- NgXformModule&#45;&gt;NgXformEditSaveComponent  -->
<g id="edge21" class="edge">
<title>NgXformModule&#45;&gt;NgXformEditSaveComponent </title>
<path fill="none" stroke="#000000" stroke-dasharray="5,2" d="M1801.543,-187.1061C1801.543,-187.1061 1801.543,-205.991 1801.543,-205.991"/>
<polygon fill="#000000" stroke="#000000" points="1798.043,-205.9909 1801.543,-215.991 1805.043,-205.991 1798.043,-205.9909"/>
</g>
<!-- FieldErrorMessageComponent  -->
<g id="node23" class="node">
<title>FieldErrorMessageComponent </title>
<polygon fill="#fb8072" stroke="#000000" points="1760.1228,-252 1567.8772,-252 1567.8772,-216 1760.1228,-216 1760.1228,-252"/>
<text text-anchor="middle" x="1664" y="-229.8" font-family="Times,serif" font-size="14.00" fill="#000000">FieldErrorMessageComponent </text>
</g>
<!-- NgXformModule&#45;&gt;FieldErrorMessageComponent  -->
<g id="edge22" class="edge">
<title>NgXformModule&#45;&gt;FieldErrorMessageComponent </title>
<path fill="none" stroke="#000000" stroke-dasharray="5,2" d="M1735.537,-187.1061C1735.537,-187.1061 1735.537,-205.991 1735.537,-205.991"/>
<polygon fill="#000000" stroke="#000000" points="1732.0371,-205.9909 1735.537,-215.991 1739.0371,-205.991 1732.0371,-205.9909"/>
</g>
<!-- InputNumberComponent  -->
<g id="node24" class="node">
<title>InputNumberComponent </title>
<polygon fill="#fb8072" stroke="#000000" points="1550.2562,-252 1389.7438,-252 1389.7438,-216 1550.2562,-216 1550.2562,-252"/>
<text text-anchor="middle" x="1470" y="-229.8" font-family="Times,serif" font-size="14.00" fill="#000000">InputNumberComponent </text>
</g>
<!-- NgXformModule&#45;&gt;InputNumberComponent  -->
<g id="edge23" class="edge">
<title>NgXformModule&#45;&gt;InputNumberComponent </title>
<path fill="none" stroke="#000000" stroke-dasharray="5,2" d="M1710.7712,-184C1637.5038,-184 1519.9083,-184 1519.9083,-184 1519.9083,-184 1519.9083,-205.9489 1519.9083,-205.9489"/>
<polygon fill="#000000" stroke="#000000" points="1516.4084,-205.9488 1519.9083,-215.9489 1523.4084,-205.9489 1516.4084,-205.9488"/>
</g>
</g>
</svg>
