<?xml version="1.0" encoding="UTF-8" standalone="no"?>
<!DOCTYPE svg PUBLIC "-//W3C//DTD SVG 1.1//EN"
 "http://www.w3.org/Graphics/SVG/1.1/DTD/svg11.dtd">
<!-- Generated by graphviz version 2.40.1 (20161225.0304)
 -->
<!-- Title: dependencies Pages: 1 -->
<svg width="2677pt" height="284pt"
 viewBox="0.00 0.00 2677.00 284.00" xmlns="http://www.w3.org/2000/svg" xmlns:xlink="http://www.w3.org/1999/xlink">
<g id="graph0" class="graph" transform="scale(1 1) rotate(0) translate(4 280)">
<title>dependencies</title>
<polygon fill="#ffffff" stroke="transparent" points="-4,4 -4,-280 2673,-280 2673,4 -4,4"/>
<text text-anchor="start" x="1313.5091" y="-42.4" font-family="sans-serif" font-weight="bold" font-size="14.00" fill="#000000">Legend</text>
<polygon fill="#ffffb3" stroke="transparent" points="1100.5,-10 1100.5,-30 1120.5,-30 1120.5,-10 1100.5,-10"/>
<text text-anchor="start" x="1124.129" y="-15.4" font-family="sans-serif" font-size="14.00" fill="#000000"> &#160;Declarations</text>
<polygon fill="#8dd3c7" stroke="transparent" points="1213.5,-10 1213.5,-30 1233.5,-30 1233.5,-10 1213.5,-10"/>
<text text-anchor="start" x="1237.2251" y="-15.4" font-family="sans-serif" font-size="14.00" fill="#000000"> &#160;Module</text>
<polygon fill="#80b1d3" stroke="transparent" points="1299.5,-10 1299.5,-30 1319.5,-30 1319.5,-10 1299.5,-10"/>
<text text-anchor="start" x="1323.2812" y="-15.4" font-family="sans-serif" font-size="14.00" fill="#000000"> &#160;Bootstrap</text>
<polygon fill="#fdb462" stroke="transparent" points="1396.5,-10 1396.5,-30 1416.5,-30 1416.5,-10 1396.5,-10"/>
<text text-anchor="start" x="1420.1732" y="-15.4" font-family="sans-serif" font-size="14.00" fill="#000000"> &#160;Providers</text>
<polygon fill="#fb8072" stroke="transparent" points="1492.5,-10 1492.5,-30 1512.5,-30 1512.5,-10 1492.5,-10"/>
<text text-anchor="start" x="1516.2258" y="-15.4" font-family="sans-serif" font-size="14.00" fill="#000000"> &#160;Exports</text>
<g id="clust1" class="cluster">
<title>cluster_NgXformModule</title>
<polygon fill="none" stroke="#000000" stroke-dasharray="1,5" points="8,-70 8,-268 2661,-268 2661,-70 8,-70"/>
</g>
<g id="clust2" class="cluster">
<title>cluster_NgXformModule_declarations</title>
<polygon fill="none" stroke="#000000" points="16,-78 16,-130 2653,-130 2653,-78 16,-78"/>
</g>
<g id="clust19" class="cluster">
<title>cluster_NgXformModule_exports</title>
<polygon fill="none" stroke="#000000" points="1150,-208 1150,-260 1516,-260 1516,-208 1150,-208"/>
</g>
<!-- NgXformComponent -->
<g id="node1" class="node">
<title>NgXformComponent</title>
<polygon fill="#ffffb3" stroke="#000000" points="2644.7576,-122 2509.2424,-122 2509.2424,-86 2644.7576,-86 2644.7576,-122"/>
<text text-anchor="middle" x="2577" y="-99.8" font-family="Times,serif" font-size="14.00" fill="#000000">NgXformComponent</text>
</g>
<!-- NgXformModule -->
<g id="node16" class="node">
<title>NgXformModule</title>
<polygon fill="#8dd3c7" stroke="#000000" points="1402.9748,-187 1399.9748,-191 1378.9748,-191 1375.9748,-187 1289.0252,-187 1289.0252,-151 1402.9748,-151 1402.9748,-187"/>
<text text-anchor="middle" x="1346" y="-164.8" font-family="Times,serif" font-size="14.00" fill="#000000">NgXformModule</text>
</g>
<!-- NgXformComponent&#45;&gt;NgXformModule -->
<g id="edge1" class="edge">
<title>NgXformComponent&#45;&gt;NgXformModule</title>
<path fill="none" stroke="#000000" d="M2577,-122.3228C2577,-145.6602 2577,-183 2577,-183 2577,-183 1413.3131,-183 1413.3131,-183"/>
<polygon fill="#000000" stroke="#000000" points="1413.3131,-179.5001 1403.3131,-183 1413.313,-186.5001 1413.3131,-179.5001"/>
</g>
<!-- FormGroupComponent -->
<g id="node2" class="node">
<title>FormGroupComponent</title>
<polygon fill="#ffffb3" stroke="#000000" points="2490.934,-122 2343.066,-122 2343.066,-86 2490.934,-86 2490.934,-122"/>
<text text-anchor="middle" x="2417" y="-99.8" font-family="Times,serif" font-size="14.00" fill="#000000">FormGroupComponent</text>
</g>
<!-- FormGroupComponent&#45;&gt;NgXformModule -->
<g id="edge2" class="edge">
<title>FormGroupComponent&#45;&gt;NgXformModule</title>
<path fill="none" stroke="#000000" d="M2417,-122.2921C2417,-144.2057 2417,-178 2417,-178 2417,-178 1413.203,-178 1413.203,-178"/>
<polygon fill="#000000" stroke="#000000" points="1413.203,-174.5001 1403.203,-178 1413.2029,-181.5001 1413.203,-174.5001"/>
</g>
<!-- EditableLabelComponent -->
<g id="node3" class="node">
<title>EditableLabelComponent</title>
<polygon fill="#ffffb3" stroke="#000000" points="2324.8585,-122 2165.1415,-122 2165.1415,-86 2324.8585,-86 2324.8585,-122"/>
<text text-anchor="middle" x="2245" y="-99.8" font-family="Times,serif" font-size="14.00" fill="#000000">EditableLabelComponent</text>
</g>
<!-- EditableLabelComponent&#45;&gt;NgXformModule -->
<g id="edge3" class="edge">
<title>EditableLabelComponent&#45;&gt;NgXformModule</title>
<path fill="none" stroke="#000000" d="M2245,-122.0267C2245,-142.7672 2245,-174 2245,-174 2245,-174 1413.2608,-174 1413.2608,-174"/>
<polygon fill="#000000" stroke="#000000" points="1413.2609,-170.5001 1403.2608,-174 1413.2608,-177.5001 1413.2609,-170.5001"/>
</g>
<!-- CheckboxFieldComponent -->
<g id="node4" class="node">
<title>CheckboxFieldComponent</title>
<polygon fill="#ffffb3" stroke="#000000" points="2147.3766,-122 1980.6234,-122 1980.6234,-86 2147.3766,-86 2147.3766,-122"/>
<text text-anchor="middle" x="2064" y="-99.8" font-family="Times,serif" font-size="14.00" fill="#000000">CheckboxFieldComponent</text>
</g>
<!-- CheckboxFieldComponent&#45;&gt;NgXformModule -->
<g id="edge4" class="edge">
<title>CheckboxFieldComponent&#45;&gt;NgXformModule</title>
<path fill="none" stroke="#000000" d="M2064,-122.1061C2064,-141.3391 2064,-169 2064,-169 2064,-169 1413.2415,-169 1413.2415,-169"/>
<polygon fill="#000000" stroke="#000000" points="1413.2415,-165.5001 1403.2415,-169 1413.2415,-172.5001 1413.2415,-165.5001"/>
</g>
<!-- CustomFieldComponent -->
<g id="node5" class="node">
<title>CustomFieldComponent</title>
<polygon fill="#ffffb3" stroke="#000000" points="1962.6735,-122 1809.3265,-122 1809.3265,-86 1962.6735,-86 1962.6735,-122"/>
<text text-anchor="middle" x="1886" y="-99.8" font-family="Times,serif" font-size="14.00" fill="#000000">CustomFieldComponent</text>
</g>
<!-- CustomFieldComponent&#45;&gt;NgXformModule -->
<g id="edge5" class="edge">
<title>CustomFieldComponent&#45;&gt;NgXformModule</title>
<path fill="none" stroke="#000000" d="M1886,-122.302C1886,-140.2699 1886,-165 1886,-165 1886,-165 1413.0233,-165 1413.0233,-165"/>
<polygon fill="#000000" stroke="#000000" points="1413.0233,-161.5001 1403.0233,-165 1413.0233,-168.5001 1413.0233,-161.5001"/>
</g>
<!-- RadioGroupFieldComponent -->
<g id="node6" class="node">
<title>RadioGroupFieldComponent</title>
<polygon fill="#ffffb3" stroke="#000000" points="1791.8201,-122 1612.1799,-122 1612.1799,-86 1791.8201,-86 1791.8201,-122"/>
<text text-anchor="middle" x="1702" y="-99.8" font-family="Times,serif" font-size="14.00" fill="#000000">RadioGroupFieldComponent</text>
</g>
<!-- RadioGroupFieldComponent&#45;&gt;NgXformModule -->
<g id="edge6" class="edge">
<title>RadioGroupFieldComponent&#45;&gt;NgXformModule</title>
<path fill="none" stroke="#000000" d="M1702,-122.027C1702,-138.3976 1702,-160 1702,-160 1702,-160 1413.1976,-160 1413.1976,-160"/>
<polygon fill="#000000" stroke="#000000" points="1413.1976,-156.5001 1403.1976,-160 1413.1975,-163.5001 1413.1976,-156.5001"/>
</g>
<!-- MeasureFieldComponent -->
<g id="node7" class="node">
<title>MeasureFieldComponent</title>
<polygon fill="#ffffb3" stroke="#000000" points="1594.3047,-122 1435.6953,-122 1435.6953,-86 1594.3047,-86 1594.3047,-122"/>
<text text-anchor="middle" x="1515" y="-99.8" font-family="Times,serif" font-size="14.00" fill="#000000">MeasureFieldComponent</text>
</g>
<!-- MeasureFieldComponent&#45;&gt;NgXformModule -->
<g id="edge7" class="edge">
<title>MeasureFieldComponent&#45;&gt;NgXformModule</title>
<path fill="none" stroke="#000000" d="M1471.7382,-122.1871C1471.7382,-137.1824 1471.7382,-156 1471.7382,-156 1471.7382,-156 1412.9828,-156 1412.9828,-156"/>
<polygon fill="#000000" stroke="#000000" points="1412.9829,-152.5001 1402.9828,-156 1412.9828,-159.5001 1412.9829,-152.5001"/>
</g>
<!-- SelectFieldComponent -->
<g id="node8" class="node">
<title>SelectFieldComponent</title>
<polygon fill="#ffffb3" stroke="#000000" points="1418.3188,-122 1273.6812,-122 1273.6812,-86 1418.3188,-86 1418.3188,-122"/>
<text text-anchor="middle" x="1346" y="-99.8" font-family="Times,serif" font-size="14.00" fill="#000000">SelectFieldComponent</text>
</g>
<!-- SelectFieldComponent&#45;&gt;NgXformModule -->
<g id="edge8" class="edge">
<title>SelectFieldComponent&#45;&gt;NgXformModule</title>
<path fill="none" stroke="#000000" d="M1346,-122.1061C1346,-122.1061 1346,-140.991 1346,-140.991"/>
<polygon fill="#000000" stroke="#000000" points="1342.5001,-140.9909 1346,-150.991 1349.5001,-140.991 1342.5001,-140.9909"/>
</g>
<!-- FieldErrorMessageComponent -->
<g id="node9" class="node">
<title>FieldErrorMessageComponent</title>
<polygon fill="#ffffb3" stroke="#000000" points="1256.1232,-122 1067.8768,-122 1067.8768,-86 1256.1232,-86 1256.1232,-122"/>
<text text-anchor="middle" x="1162" y="-99.8" font-family="Times,serif" font-size="14.00" fill="#000000">FieldErrorMessageComponent</text>
</g>
<!-- FieldErrorMessageComponent&#45;&gt;NgXformModule -->
<g id="edge9" class="edge">
<title>FieldErrorMessageComponent&#45;&gt;NgXformModule</title>
<path fill="none" stroke="#000000" d="M1207.125,-122.1871C1207.125,-137.1824 1207.125,-156 1207.125,-156 1207.125,-156 1278.7124,-156 1278.7124,-156"/>
<polygon fill="#000000" stroke="#000000" points="1278.7125,-159.5001 1288.7124,-156 1278.7124,-152.5001 1278.7125,-159.5001"/>
</g>
<!-- ErrorMessagePipe -->
<g id="node10" class="node">
<title>ErrorMessagePipe</title>
<polygon fill="#ffffb3" stroke="#000000" points="1049.9005,-122 930.0995,-122 930.0995,-86 1049.9005,-86 1049.9005,-122"/>
<text text-anchor="middle" x="990" y="-99.8" font-family="Times,serif" font-size="14.00" fill="#000000">ErrorMessagePipe</text>
</g>
<!-- ErrorMessagePipe&#45;&gt;NgXformModule -->
<g id="edge10" class="edge">
<title>ErrorMessagePipe&#45;&gt;NgXformModule</title>
<path fill="none" stroke="#000000" d="M990,-122.027C990,-138.3976 990,-160 990,-160 990,-160 1278.8024,-160 1278.8024,-160"/>
<polygon fill="#000000" stroke="#000000" points="1278.8025,-163.5001 1288.8024,-160 1278.8024,-156.5001 1278.8025,-163.5001"/>
</g>
<!-- MultilineFieldComponent -->
<g id="node11" class="node">
<title>MultilineFieldComponent</title>
<polygon fill="#ffffb3" stroke="#000000" points="912.2232,-122 749.7768,-122 749.7768,-86 912.2232,-86 912.2232,-122"/>
<text text-anchor="middle" x="831" y="-99.8" font-family="Times,serif" font-size="14.00" fill="#000000">MultilineFieldComponent</text>
</g>
<!-- MultilineFieldComponent&#45;&gt;NgXformModule -->
<g id="edge11" class="edge">
<title>MultilineFieldComponent&#45;&gt;NgXformModule</title>
<path fill="none" stroke="#000000" d="M831,-122.302C831,-140.2699 831,-165 831,-165 831,-165 1278.9183,-165 1278.9183,-165"/>
<polygon fill="#000000" stroke="#000000" points="1278.9183,-168.5001 1288.9183,-165 1278.9182,-161.5001 1278.9183,-168.5001"/>
</g>
<!-- OptionalTagComponent -->
<g id="node12" class="node">
<title>OptionalTagComponent</title>
<polygon fill="#ffffb3" stroke="#000000" points="732.0926,-122 579.9074,-122 579.9074,-86 732.0926,-86 732.0926,-122"/>
<text text-anchor="middle" x="656" y="-99.8" font-family="Times,serif" font-size="14.00" fill="#000000">OptionalTagComponent</text>
</g>
<!-- OptionalTagComponent&#45;&gt;NgXformModule -->
<g id="edge12" class="edge">
<title>OptionalTagComponent&#45;&gt;NgXformModule</title>
<path fill="none" stroke="#000000" d="M656,-122.1061C656,-141.3391 656,-169 656,-169 656,-169 1278.9474,-169 1278.9474,-169"/>
<polygon fill="#000000" stroke="#000000" points="1278.9474,-172.5001 1288.9474,-169 1278.9473,-165.5001 1278.9474,-172.5001"/>
</g>
<!-- DateFieldComponent -->
<g id="node13" class="node">
<title>DateFieldComponent</title>
<polygon fill="#ffffb3" stroke="#000000" points="562.038,-122 425.962,-122 425.962,-86 562.038,-86 562.038,-122"/>
<text text-anchor="middle" x="494" y="-99.8" font-family="Times,serif" font-size="14.00" fill="#000000">DateFieldComponent</text>
</g>
<!-- DateFieldComponent&#45;&gt;NgXformModule -->
<g id="edge13" class="edge">
<title>DateFieldComponent&#45;&gt;NgXformModule</title>
<path fill="none" stroke="#000000" d="M494,-122.0267C494,-142.7672 494,-174 494,-174 494,-174 1278.7749,-174 1278.7749,-174"/>
<polygon fill="#000000" stroke="#000000" points="1278.7749,-177.5001 1288.7749,-174 1278.7749,-170.5001 1278.7749,-177.5001"/>
</g>
<!-- DateRangeFieldComponent -->
<g id="node14" class="node">
<title>DateRangeFieldComponent</title>
<polygon fill="#ffffb3" stroke="#000000" points="408.3033,-122 235.6967,-122 235.6967,-86 408.3033,-86 408.3033,-122"/>
<text text-anchor="middle" x="322" y="-99.8" font-family="Times,serif" font-size="14.00" fill="#000000">DateRangeFieldComponent</text>
</g>
<!-- DateRangeFieldComponent&#45;&gt;NgXformModule -->
<g id="edge14" class="edge">
<title>DateRangeFieldComponent&#45;&gt;NgXformModule</title>
<path fill="none" stroke="#000000" d="M322,-122.2921C322,-144.2057 322,-178 322,-178 322,-178 1278.7511,-178 1278.7511,-178"/>
<polygon fill="#000000" stroke="#000000" points="1278.7512,-181.5001 1288.7511,-178 1278.7511,-174.5001 1278.7512,-181.5001"/>
</g>
<!-- FormControlLayoutComponent -->
<g id="node15" class="node">
<title>FormControlLayoutComponent</title>
<polygon fill="#ffffb3" stroke="#000000" points="218.1024,-122 23.8976,-122 23.8976,-86 218.1024,-86 218.1024,-122"/>
<text text-anchor="middle" x="121" y="-99.8" font-family="Times,serif" font-size="14.00" fill="#000000">FormControlLayoutComponent</text>
</g>
<!-- FormControlLayoutComponent&#45;&gt;NgXformModule -->
<g id="edge15" class="edge">
<title>FormControlLayoutComponent&#45;&gt;NgXformModule</title>
<path fill="none" stroke="#000000" d="M121,-122.3228C121,-145.6602 121,-183 121,-183 121,-183 1278.9663,-183 1278.9663,-183"/>
<polygon fill="#000000" stroke="#000000" points="1278.9663,-186.5001 1288.9663,-183 1278.9663,-179.5001 1278.9663,-186.5001"/>
</g>
<!-- NgXformComponent  -->
<g id="node17" class="node">
<title>NgXformComponent </title>
<polygon fill="#fb8072" stroke="#000000" points="1507.7576,-252 1368.2424,-252 1368.2424,-216 1507.7576,-216 1507.7576,-252"/>
<text text-anchor="middle" x="1438" y="-229.8" font-family="Times,serif" font-size="14.00" fill="#000000">NgXformComponent </text>
</g>
<!-- NgXformModule&#45;&gt;NgXformComponent  -->
<g id="edge16" class="edge">
<title>NgXformModule&#45;&gt;NgXformComponent </title>
<path fill="none" stroke="#000000" stroke-dasharray="5,2" d="M1385.6793,-187.1061C1385.6793,-187.1061 1385.6793,-205.991 1385.6793,-205.991"/>
<polygon fill="#000000" stroke="#000000" points="1382.1794,-205.9909 1385.6793,-215.991 1389.1794,-205.991 1382.1794,-205.9909"/>
</g>
<!-- FieldErrorMessageComponent  -->
<g id="node18" class="node">
<title>FieldErrorMessageComponent </title>
<polygon fill="#fb8072" stroke="#000000" points="1350.1228,-252 1157.8772,-252 1157.8772,-216 1350.1228,-216 1350.1228,-252"/>
<text text-anchor="middle" x="1254" y="-229.8" font-family="Times,serif" font-size="14.00" fill="#000000">FieldErrorMessageComponent </text>
</g>
<!-- NgXformModule&#45;&gt;FieldErrorMessageComponent  -->
<g id="edge17" class="edge">
<title>NgXformModule&#45;&gt;FieldErrorMessageComponent </title>
<path fill="none" stroke="#000000" stroke-dasharray="5,2" d="M1319.537,-187.1061C1319.537,-187.1061 1319.537,-205.991 1319.537,-205.991"/>
<polygon fill="#000000" stroke="#000000" points="1316.0371,-205.9909 1319.537,-215.991 1323.0371,-205.991 1316.0371,-205.9909"/>
</g>
</g>
</svg>
