<?xml version="1.0" encoding="UTF-8" standalone="no"?>
<!DOCTYPE svg PUBLIC "-//W3C//DTD SVG 1.1//EN"
 "http://www.w3.org/Graphics/SVG/1.1/DTD/svg11.dtd">
<!-- Generated by graphviz version 2.40.1 (20161225.0304)
 -->
<!-- Title: dependencies Pages: 1 -->
<svg width="2316pt" height="284pt"
 viewBox="0.00 0.00 2316.00 284.00" xmlns="http://www.w3.org/2000/svg" xmlns:xlink="http://www.w3.org/1999/xlink">
<g id="graph0" class="graph" transform="scale(1 1) rotate(0) translate(4 280)">
<title>dependencies</title>
<polygon fill="#ffffff" stroke="transparent" points="-4,4 -4,-280 2312,-280 2312,4 -4,4"/>
<text text-anchor="start" x="1133.0091" y="-42.4" font-family="sans-serif" font-weight="bold" font-size="14.00" fill="#000000">Legend</text>
<polygon fill="#ffffb3" stroke="transparent" points="920,-10 920,-30 940,-30 940,-10 920,-10"/>
<text text-anchor="start" x="943.629" y="-15.4" font-family="sans-serif" font-size="14.00" fill="#000000"> &#160;Declarations</text>
<polygon fill="#8dd3c7" stroke="transparent" points="1033,-10 1033,-30 1053,-30 1053,-10 1033,-10"/>
<text text-anchor="start" x="1056.7251" y="-15.4" font-family="sans-serif" font-size="14.00" fill="#000000"> &#160;Module</text>
<polygon fill="#80b1d3" stroke="transparent" points="1119,-10 1119,-30 1139,-30 1139,-10 1119,-10"/>
<text text-anchor="start" x="1142.7812" y="-15.4" font-family="sans-serif" font-size="14.00" fill="#000000"> &#160;Bootstrap</text>
<polygon fill="#fdb462" stroke="transparent" points="1216,-10 1216,-30 1236,-30 1236,-10 1216,-10"/>
<text text-anchor="start" x="1239.6732" y="-15.4" font-family="sans-serif" font-size="14.00" fill="#000000"> &#160;Providers</text>
<polygon fill="#fb8072" stroke="transparent" points="1312,-10 1312,-30 1332,-30 1332,-10 1312,-10"/>
<text text-anchor="start" x="1335.7258" y="-15.4" font-family="sans-serif" font-size="14.00" fill="#000000"> &#160;Exports</text>
<g id="clust1" class="cluster">
<title>cluster_NgXformModule</title>
<polygon fill="none" stroke="#000000" stroke-dasharray="1,5" points="8,-70 8,-268 2300,-268 2300,-70 8,-70"/>
</g>
<g id="clust2" class="cluster">
<title>cluster_NgXformModule_declarations</title>
<polygon fill="none" stroke="#000000" points="16,-78 16,-130 2292,-130 2292,-78 16,-78"/>
</g>
<g id="clust17" class="cluster">
<title>cluster_NgXformModule_exports</title>
<polygon fill="none" stroke="#000000" points="960,-208 960,-260 1326,-260 1326,-208 960,-208"/>
</g>
<!-- NgXformComponent -->
<g id="node1" class="node">
<title>NgXformComponent</title>
<polygon fill="#ffffb3" stroke="#000000" points="2283.7576,-122 2148.2424,-122 2148.2424,-86 2283.7576,-86 2283.7576,-122"/>
<text text-anchor="middle" x="2216" y="-99.8" font-family="Times,serif" font-size="14.00" fill="#000000">NgXformComponent</text>
</g>
<!-- NgXformModule -->
<g id="node14" class="node">
<title>NgXformModule</title>
<polygon fill="#8dd3c7" stroke="#000000" points="1212.9748,-187 1209.9748,-191 1188.9748,-191 1185.9748,-187 1099.0252,-187 1099.0252,-151 1212.9748,-151 1212.9748,-187"/>
<text text-anchor="middle" x="1156" y="-164.8" font-family="Times,serif" font-size="14.00" fill="#000000">NgXformModule</text>
</g>
<!-- NgXformComponent&#45;&gt;NgXformModule -->
<g id="edge1" class="edge">
<title>NgXformComponent&#45;&gt;NgXformModule</title>
<path fill="none" stroke="#000000" d="M2216,-122.0908C2216,-145.1328 2216,-182 2216,-182 2216,-182 1222.9902,-182 1222.9902,-182"/>
<polygon fill="#000000" stroke="#000000" points="1222.9902,-178.5001 1212.9902,-182 1222.9902,-185.5001 1222.9902,-178.5001"/>
</g>
<!-- FormGroupComponent -->
<g id="node2" class="node">
<title>FormGroupComponent</title>
<polygon fill="#ffffb3" stroke="#000000" points="2129.934,-122 1982.066,-122 1982.066,-86 2129.934,-86 2129.934,-122"/>
<text text-anchor="middle" x="2056" y="-99.8" font-family="Times,serif" font-size="14.00" fill="#000000">FormGroupComponent</text>
</g>
<!-- FormGroupComponent&#45;&gt;NgXformModule -->
<g id="edge2" class="edge">
<title>FormGroupComponent&#45;&gt;NgXformModule</title>
<path fill="none" stroke="#000000" d="M2056,-122.0449C2056,-143.6623 2056,-177 2056,-177 2056,-177 1222.9818,-177 1222.9818,-177"/>
<polygon fill="#000000" stroke="#000000" points="1222.9818,-173.5001 1212.9818,-177 1222.9818,-180.5001 1222.9818,-173.5001"/>
</g>
<!-- EditableLabelComponent -->
<g id="node3" class="node">
<title>EditableLabelComponent</title>
<polygon fill="#ffffb3" stroke="#000000" points="1963.8585,-122 1804.1415,-122 1804.1415,-86 1963.8585,-86 1963.8585,-122"/>
<text text-anchor="middle" x="1884" y="-99.8" font-family="Times,serif" font-size="14.00" fill="#000000">EditableLabelComponent</text>
</g>
<!-- EditableLabelComponent&#45;&gt;NgXformModule -->
<g id="edge3" class="edge">
<title>EditableLabelComponent&#45;&gt;NgXformModule</title>
<path fill="none" stroke="#000000" d="M1884,-122.2228C1884,-142.3652 1884,-172 1884,-172 1884,-172 1223.1249,-172 1223.1249,-172"/>
<polygon fill="#000000" stroke="#000000" points="1223.125,-168.5001 1213.1249,-172 1223.1249,-175.5001 1223.125,-168.5001"/>
</g>
<!-- CheckboxFieldComponent -->
<g id="node4" class="node">
<title>CheckboxFieldComponent</title>
<polygon fill="#ffffb3" stroke="#000000" points="1786.3766,-122 1619.6234,-122 1619.6234,-86 1786.3766,-86 1786.3766,-122"/>
<text text-anchor="middle" x="1703" y="-99.8" font-family="Times,serif" font-size="14.00" fill="#000000">CheckboxFieldComponent</text>
</g>
<!-- CheckboxFieldComponent&#45;&gt;NgXformModule -->
<g id="edge4" class="edge">
<title>CheckboxFieldComponent&#45;&gt;NgXformModule</title>
<path fill="none" stroke="#000000" d="M1703,-122.2222C1703,-140.8285 1703,-167 1703,-167 1703,-167 1222.9906,-167 1222.9906,-167"/>
<polygon fill="#000000" stroke="#000000" points="1222.9906,-163.5001 1212.9906,-167 1222.9906,-170.5001 1222.9906,-163.5001"/>
</g>
<!-- RadioGroupFieldComponent -->
<g id="node5" class="node">
<title>RadioGroupFieldComponent</title>
<polygon fill="#ffffb3" stroke="#000000" points="1601.8201,-122 1422.1799,-122 1422.1799,-86 1601.8201,-86 1601.8201,-122"/>
<text text-anchor="middle" x="1512" y="-99.8" font-family="Times,serif" font-size="14.00" fill="#000000">RadioGroupFieldComponent</text>
</g>
<!-- RadioGroupFieldComponent&#45;&gt;NgXformModule -->
<g id="edge5" class="edge">
<title>RadioGroupFieldComponent&#45;&gt;NgXformModule</title>
<path fill="none" stroke="#000000" d="M1512,-122.0336C1512,-139.0597 1512,-162 1512,-162 1512,-162 1223.1976,-162 1223.1976,-162"/>
<polygon fill="#000000" stroke="#000000" points="1223.1976,-158.5001 1213.1976,-162 1223.1975,-165.5001 1223.1976,-158.5001"/>
</g>
<!-- MeasureFieldComponent -->
<g id="node6" class="node">
<title>MeasureFieldComponent</title>
<polygon fill="#ffffb3" stroke="#000000" points="1404.3047,-122 1245.6953,-122 1245.6953,-86 1404.3047,-86 1404.3047,-122"/>
<text text-anchor="middle" x="1325" y="-99.8" font-family="Times,serif" font-size="14.00" fill="#000000">MeasureFieldComponent</text>
</g>
<!-- MeasureFieldComponent&#45;&gt;NgXformModule -->
<g id="edge6" class="edge">
<title>MeasureFieldComponent&#45;&gt;NgXformModule</title>
<path fill="none" stroke="#000000" d="M1281.7382,-122.2396C1281.7382,-137.5706 1281.7382,-157 1281.7382,-157 1281.7382,-157 1222.9828,-157 1222.9828,-157"/>
<polygon fill="#000000" stroke="#000000" points="1222.9829,-153.5001 1212.9828,-157 1222.9828,-160.5001 1222.9829,-153.5001"/>
</g>
<!-- SelectFieldComponent -->
<g id="node7" class="node">
<title>SelectFieldComponent</title>
<polygon fill="#ffffb3" stroke="#000000" points="1228.3188,-122 1083.6812,-122 1083.6812,-86 1228.3188,-86 1228.3188,-122"/>
<text text-anchor="middle" x="1156" y="-99.8" font-family="Times,serif" font-size="14.00" fill="#000000">SelectFieldComponent</text>
</g>
<!-- SelectFieldComponent&#45;&gt;NgXformModule -->
<g id="edge7" class="edge">
<title>SelectFieldComponent&#45;&gt;NgXformModule</title>
<path fill="none" stroke="#000000" d="M1156,-122.1061C1156,-122.1061 1156,-140.991 1156,-140.991"/>
<polygon fill="#000000" stroke="#000000" points="1152.5001,-140.9909 1156,-150.991 1159.5001,-140.991 1152.5001,-140.9909"/>
</g>
<!-- FieldErrorMessageComponent -->
<g id="node8" class="node">
<title>FieldErrorMessageComponent</title>
<polygon fill="#ffffb3" stroke="#000000" points="1066.1232,-122 877.8768,-122 877.8768,-86 1066.1232,-86 1066.1232,-122"/>
<text text-anchor="middle" x="972" y="-99.8" font-family="Times,serif" font-size="14.00" fill="#000000">FieldErrorMessageComponent</text>
</g>
<!-- FieldErrorMessageComponent&#45;&gt;NgXformModule -->
<g id="edge8" class="edge">
<title>FieldErrorMessageComponent&#45;&gt;NgXformModule</title>
<path fill="none" stroke="#000000" d="M1017.125,-122.2396C1017.125,-137.5706 1017.125,-157 1017.125,-157 1017.125,-157 1088.7124,-157 1088.7124,-157"/>
<polygon fill="#000000" stroke="#000000" points="1088.7125,-160.5001 1098.7124,-157 1088.7124,-153.5001 1088.7125,-160.5001"/>
</g>
<!-- ErrorMessagePipe -->
<g id="node9" class="node">
<title>ErrorMessagePipe</title>
<polygon fill="#ffffb3" stroke="#000000" points="859.9005,-122 740.0995,-122 740.0995,-86 859.9005,-86 859.9005,-122"/>
<text text-anchor="middle" x="800" y="-99.8" font-family="Times,serif" font-size="14.00" fill="#000000">ErrorMessagePipe</text>
</g>
<!-- ErrorMessagePipe&#45;&gt;NgXformModule -->
<g id="edge9" class="edge">
<title>ErrorMessagePipe&#45;&gt;NgXformModule</title>
<path fill="none" stroke="#000000" d="M800,-122.0336C800,-139.0597 800,-162 800,-162 800,-162 1088.8024,-162 1088.8024,-162"/>
<polygon fill="#000000" stroke="#000000" points="1088.8025,-165.5001 1098.8024,-162 1088.8024,-158.5001 1088.8025,-165.5001"/>
</g>
<!-- MultilineFieldComponent -->
<g id="node10" class="node">
<title>MultilineFieldComponent</title>
<polygon fill="#ffffb3" stroke="#000000" points="722.2232,-122 559.7768,-122 559.7768,-86 722.2232,-86 722.2232,-122"/>
<text text-anchor="middle" x="641" y="-99.8" font-family="Times,serif" font-size="14.00" fill="#000000">MultilineFieldComponent</text>
</g>
<!-- MultilineFieldComponent&#45;&gt;NgXformModule -->
<g id="edge10" class="edge">
<title>MultilineFieldComponent&#45;&gt;NgXformModule</title>
<path fill="none" stroke="#000000" d="M641,-122.2222C641,-140.8285 641,-167 641,-167 641,-167 1088.9183,-167 1088.9183,-167"/>
<polygon fill="#000000" stroke="#000000" points="1088.9183,-170.5001 1098.9183,-167 1088.9182,-163.5001 1088.9183,-170.5001"/>
</g>
<!-- OptionalTagComponent -->
<g id="node11" class="node">
<title>OptionalTagComponent</title>
<polygon fill="#ffffb3" stroke="#000000" points="542.0926,-122 389.9074,-122 389.9074,-86 542.0926,-86 542.0926,-122"/>
<text text-anchor="middle" x="466" y="-99.8" font-family="Times,serif" font-size="14.00" fill="#000000">OptionalTagComponent</text>
</g>
<!-- OptionalTagComponent&#45;&gt;NgXformModule -->
<g id="edge11" class="edge">
<title>OptionalTagComponent&#45;&gt;NgXformModule</title>
<path fill="none" stroke="#000000" d="M466,-122.2228C466,-142.3652 466,-172 466,-172 466,-172 1088.9474,-172 1088.9474,-172"/>
<polygon fill="#000000" stroke="#000000" points="1088.9474,-175.5001 1098.9474,-172 1088.9473,-168.5001 1088.9474,-175.5001"/>
</g>
<!-- DateFieldComponent -->
<g id="node12" class="node">
<title>DateFieldComponent</title>
<polygon fill="#ffffb3" stroke="#000000" points="372.038,-122 235.962,-122 235.962,-86 372.038,-86 372.038,-122"/>
<text text-anchor="middle" x="304" y="-99.8" font-family="Times,serif" font-size="14.00" fill="#000000">DateFieldComponent</text>
</g>
<!-- DateFieldComponent&#45;&gt;NgXformModule -->
<g id="edge12" class="edge">
<title>DateFieldComponent&#45;&gt;NgXformModule</title>
<path fill="none" stroke="#000000" d="M304,-122.0449C304,-143.6623 304,-177 304,-177 304,-177 1088.7749,-177 1088.7749,-177"/>
<polygon fill="#000000" stroke="#000000" points="1088.7749,-180.5001 1098.7749,-177 1088.7749,-173.5001 1088.7749,-180.5001"/>
</g>
<!-- FormControlLayoutComponent -->
<g id="node13" class="node">
<title>FormControlLayoutComponent</title>
<polygon fill="#ffffb3" stroke="#000000" points="218.1024,-122 23.8976,-122 23.8976,-86 218.1024,-86 218.1024,-122"/>
<text text-anchor="middle" x="121" y="-99.8" font-family="Times,serif" font-size="14.00" fill="#000000">FormControlLayoutComponent</text>
</g>
<!-- FormControlLayoutComponent&#45;&gt;NgXformModule -->
<g id="edge13" class="edge">
<title>FormControlLayoutComponent&#45;&gt;NgXformModule</title>
<path fill="none" stroke="#000000" d="M121,-122.0908C121,-145.1328 121,-182 121,-182 121,-182 1088.8796,-182 1088.8796,-182"/>
<polygon fill="#000000" stroke="#000000" points="1088.8797,-185.5001 1098.8796,-182 1088.8796,-178.5001 1088.8797,-185.5001"/>
</g>
<!-- NgXformComponent  -->
<g id="node15" class="node">
<title>NgXformComponent </title>
<polygon fill="#fb8072" stroke="#000000" points="1317.7576,-252 1178.2424,-252 1178.2424,-216 1317.7576,-216 1317.7576,-252"/>
<text text-anchor="middle" x="1248" y="-229.8" font-family="Times,serif" font-size="14.00" fill="#000000">NgXformComponent </text>
</g>
<!-- NgXformModule&#45;&gt;NgXformComponent  -->
<g id="edge14" class="edge">
<title>NgXformModule&#45;&gt;NgXformComponent </title>
<path fill="none" stroke="#000000" stroke-dasharray="5,2" d="M1195.6793,-187.1061C1195.6793,-187.1061 1195.6793,-205.991 1195.6793,-205.991"/>
<polygon fill="#000000" stroke="#000000" points="1192.1794,-205.9909 1195.6793,-215.991 1199.1794,-205.991 1192.1794,-205.9909"/>
</g>
<!-- FieldErrorMessageComponent  -->
<g id="node16" class="node">
<title>FieldErrorMessageComponent </title>
<polygon fill="#fb8072" stroke="#000000" points="1160.1228,-252 967.8772,-252 967.8772,-216 1160.1228,-216 1160.1228,-252"/>
<text text-anchor="middle" x="1064" y="-229.8" font-family="Times,serif" font-size="14.00" fill="#000000">FieldErrorMessageComponent </text>
</g>
<!-- NgXformModule&#45;&gt;FieldErrorMessageComponent  -->
<g id="edge15" class="edge">
<title>NgXformModule&#45;&gt;FieldErrorMessageComponent </title>
<path fill="none" stroke="#000000" stroke-dasharray="5,2" d="M1129.537,-187.1061C1129.537,-187.1061 1129.537,-205.991 1129.537,-205.991"/>
<polygon fill="#000000" stroke="#000000" points="1126.0371,-205.9909 1129.537,-215.991 1133.0371,-205.991 1126.0371,-205.9909"/>
</g>
</g>
</svg>
