<?xml version="1.0" encoding="UTF-8" standalone="no"?>
<!DOCTYPE svg PUBLIC "-//W3C//DTD SVG 1.1//EN"
 "http://www.w3.org/Graphics/SVG/1.1/DTD/svg11.dtd">
<!-- Generated by graphviz version 2.40.1 (20161225.0304)
 -->
<!-- Title: dependencies Pages: 1 -->
<svg width="2487pt" height="284pt"
 viewBox="0.00 0.00 2487.00 284.00" xmlns="http://www.w3.org/2000/svg" xmlns:xlink="http://www.w3.org/1999/xlink">
<g id="graph0" class="graph" transform="scale(1 1) rotate(0) translate(4 280)">
<title>dependencies</title>
<polygon fill="#ffffff" stroke="transparent" points="-4,4 -4,-280 2483,-280 2483,4 -4,4"/>
<text text-anchor="start" x="1218.5091" y="-42.4" font-family="sans-serif" font-weight="bold" font-size="14.00" fill="#000000">Legend</text>
<polygon fill="#ffffb3" stroke="transparent" points="1005.5,-10 1005.5,-30 1025.5,-30 1025.5,-10 1005.5,-10"/>
<text text-anchor="start" x="1029.129" y="-15.4" font-family="sans-serif" font-size="14.00" fill="#000000"> &#160;Declarations</text>
<polygon fill="#8dd3c7" stroke="transparent" points="1118.5,-10 1118.5,-30 1138.5,-30 1138.5,-10 1118.5,-10"/>
<text text-anchor="start" x="1142.2251" y="-15.4" font-family="sans-serif" font-size="14.00" fill="#000000"> &#160;Module</text>
<polygon fill="#80b1d3" stroke="transparent" points="1204.5,-10 1204.5,-30 1224.5,-30 1224.5,-10 1204.5,-10"/>
<text text-anchor="start" x="1228.2812" y="-15.4" font-family="sans-serif" font-size="14.00" fill="#000000"> &#160;Bootstrap</text>
<polygon fill="#fdb462" stroke="transparent" points="1301.5,-10 1301.5,-30 1321.5,-30 1321.5,-10 1301.5,-10"/>
<text text-anchor="start" x="1325.1732" y="-15.4" font-family="sans-serif" font-size="14.00" fill="#000000"> &#160;Providers</text>
<polygon fill="#fb8072" stroke="transparent" points="1397.5,-10 1397.5,-30 1417.5,-30 1417.5,-10 1397.5,-10"/>
<text text-anchor="start" x="1421.2258" y="-15.4" font-family="sans-serif" font-size="14.00" fill="#000000"> &#160;Exports</text>
<g id="clust1" class="cluster">
<title>cluster_NgXformModule</title>
<polygon fill="none" stroke="#000000" stroke-dasharray="1,5" points="8,-70 8,-268 2471,-268 2471,-70 8,-70"/>
</g>
<g id="clust2" class="cluster">
<title>cluster_NgXformModule_declarations</title>
<polygon fill="none" stroke="#000000" points="16,-78 16,-130 2463,-130 2463,-78 16,-78"/>
</g>
<g id="clust18" class="cluster">
<title>cluster_NgXformModule_exports</title>
<polygon fill="none" stroke="#000000" points="1044,-208 1044,-260 1410,-260 1410,-208 1044,-208"/>
</g>
<!-- NgXformComponent -->
<g id="node1" class="node">
<title>NgXformComponent</title>
<polygon fill="#ffffb3" stroke="#000000" points="2454.7576,-122 2319.2424,-122 2319.2424,-86 2454.7576,-86 2454.7576,-122"/>
<text text-anchor="middle" x="2387" y="-99.8" font-family="Times,serif" font-size="14.00" fill="#000000">NgXformComponent</text>
</g>
<!-- NgXformModule -->
<g id="node15" class="node">
<title>NgXformModule</title>
<polygon fill="#8dd3c7" stroke="#000000" points="1296.9748,-187 1293.9748,-191 1272.9748,-191 1269.9748,-187 1183.0252,-187 1183.0252,-151 1296.9748,-151 1296.9748,-187"/>
<text text-anchor="middle" x="1240" y="-164.8" font-family="Times,serif" font-size="14.00" fill="#000000">NgXformModule</text>
</g>
<!-- NgXformComponent&#45;&gt;NgXformModule -->
<g id="edge1" class="edge">
<title>NgXformComponent&#45;&gt;NgXformModule</title>
<path fill="none" stroke="#000000" d="M2387,-122.0908C2387,-145.1328 2387,-182 2387,-182 2387,-182 1307.2723,-182 1307.2723,-182"/>
<polygon fill="#000000" stroke="#000000" points="1307.2724,-178.5001 1297.2723,-182 1307.2723,-185.5001 1307.2724,-178.5001"/>
</g>
<!-- FormGroupComponent -->
<g id="node2" class="node">
<title>FormGroupComponent</title>
<polygon fill="#ffffb3" stroke="#000000" points="2300.934,-122 2153.066,-122 2153.066,-86 2300.934,-86 2300.934,-122"/>
<text text-anchor="middle" x="2227" y="-99.8" font-family="Times,serif" font-size="14.00" fill="#000000">FormGroupComponent</text>
</g>
<!-- FormGroupComponent&#45;&gt;NgXformModule -->
<g id="edge2" class="edge">
<title>FormGroupComponent&#45;&gt;NgXformModule</title>
<path fill="none" stroke="#000000" d="M2227,-122.0449C2227,-143.6623 2227,-177 2227,-177 2227,-177 1307.3315,-177 1307.3315,-177"/>
<polygon fill="#000000" stroke="#000000" points="1307.3315,-173.5001 1297.3315,-177 1307.3314,-180.5001 1307.3315,-173.5001"/>
</g>
<!-- EditableLabelComponent -->
<g id="node3" class="node">
<title>EditableLabelComponent</title>
<polygon fill="#ffffb3" stroke="#000000" points="2134.8585,-122 1975.1415,-122 1975.1415,-86 2134.8585,-86 2134.8585,-122"/>
<text text-anchor="middle" x="2055" y="-99.8" font-family="Times,serif" font-size="14.00" fill="#000000">EditableLabelComponent</text>
</g>
<!-- EditableLabelComponent&#45;&gt;NgXformModule -->
<g id="edge3" class="edge">
<title>EditableLabelComponent&#45;&gt;NgXformModule</title>
<path fill="none" stroke="#000000" d="M2055,-122.2228C2055,-142.3652 2055,-172 2055,-172 2055,-172 1306.9853,-172 1306.9853,-172"/>
<polygon fill="#000000" stroke="#000000" points="1306.9853,-168.5001 1296.9853,-172 1306.9853,-175.5001 1306.9853,-168.5001"/>
</g>
<!-- CheckboxFieldComponent -->
<g id="node4" class="node">
<title>CheckboxFieldComponent</title>
<polygon fill="#ffffb3" stroke="#000000" points="1957.3766,-122 1790.6234,-122 1790.6234,-86 1957.3766,-86 1957.3766,-122"/>
<text text-anchor="middle" x="1874" y="-99.8" font-family="Times,serif" font-size="14.00" fill="#000000">CheckboxFieldComponent</text>
</g>
<!-- CheckboxFieldComponent&#45;&gt;NgXformModule -->
<g id="edge4" class="edge">
<title>CheckboxFieldComponent&#45;&gt;NgXformModule</title>
<path fill="none" stroke="#000000" d="M1874,-122.2222C1874,-140.8285 1874,-167 1874,-167 1874,-167 1307.1011,-167 1307.1011,-167"/>
<polygon fill="#000000" stroke="#000000" points="1307.1011,-163.5001 1297.1011,-167 1307.101,-170.5001 1307.1011,-163.5001"/>
</g>
<!-- CustomFieldComponent -->
<g id="node5" class="node">
<title>CustomFieldComponent</title>
<polygon fill="#ffffb3" stroke="#000000" points="1772.6735,-122 1619.3265,-122 1619.3265,-86 1772.6735,-86 1772.6735,-122"/>
<text text-anchor="middle" x="1696" y="-99.8" font-family="Times,serif" font-size="14.00" fill="#000000">CustomFieldComponent</text>
</g>
<!-- CustomFieldComponent&#45;&gt;NgXformModule -->
<g id="edge5" class="edge">
<title>CustomFieldComponent&#45;&gt;NgXformModule</title>
<path fill="none" stroke="#000000" d="M1696,-122.0336C1696,-139.0597 1696,-162 1696,-162 1696,-162 1307.291,-162 1307.291,-162"/>
<polygon fill="#000000" stroke="#000000" points="1307.291,-158.5001 1297.291,-162 1307.291,-165.5001 1307.291,-158.5001"/>
</g>
<!-- RadioGroupFieldComponent -->
<g id="node6" class="node">
<title>RadioGroupFieldComponent</title>
<polygon fill="#ffffb3" stroke="#000000" points="1601.8201,-122 1422.1799,-122 1422.1799,-86 1601.8201,-86 1601.8201,-122"/>
<text text-anchor="middle" x="1512" y="-99.8" font-family="Times,serif" font-size="14.00" fill="#000000">RadioGroupFieldComponent</text>
</g>
<!-- RadioGroupFieldComponent&#45;&gt;NgXformModule -->
<g id="edge6" class="edge">
<title>RadioGroupFieldComponent&#45;&gt;NgXformModule</title>
<path fill="none" stroke="#000000" d="M1512,-122.2396C1512,-137.5706 1512,-157 1512,-157 1512,-157 1307.0201,-157 1307.0201,-157"/>
<polygon fill="#000000" stroke="#000000" points="1307.0201,-153.5001 1297.0201,-157 1307.0201,-160.5001 1307.0201,-153.5001"/>
</g>
<!-- MeasureFieldComponent -->
<g id="node7" class="node">
<title>MeasureFieldComponent</title>
<polygon fill="#ffffb3" stroke="#000000" points="1404.3047,-122 1245.6953,-122 1245.6953,-86 1404.3047,-86 1404.3047,-122"/>
<text text-anchor="middle" x="1325" y="-99.8" font-family="Times,serif" font-size="14.00" fill="#000000">MeasureFieldComponent</text>
</g>
<!-- MeasureFieldComponent&#45;&gt;NgXformModule -->
<g id="edge7" class="edge">
<title>MeasureFieldComponent&#45;&gt;NgXformModule</title>
<path fill="none" stroke="#000000" d="M1271.4176,-122.1061C1271.4176,-122.1061 1271.4176,-140.991 1271.4176,-140.991"/>
<polygon fill="#000000" stroke="#000000" points="1267.9177,-140.9909 1271.4176,-150.991 1274.9177,-140.991 1267.9177,-140.9909"/>
</g>
<!-- SelectFieldComponent -->
<g id="node8" class="node">
<title>SelectFieldComponent</title>
<polygon fill="#ffffb3" stroke="#000000" points="1228.3188,-122 1083.6812,-122 1083.6812,-86 1228.3188,-86 1228.3188,-122"/>
<text text-anchor="middle" x="1156" y="-99.8" font-family="Times,serif" font-size="14.00" fill="#000000">SelectFieldComponent</text>
</g>
<!-- SelectFieldComponent&#45;&gt;NgXformModule -->
<g id="edge8" class="edge">
<title>SelectFieldComponent&#45;&gt;NgXformModule</title>
<path fill="none" stroke="#000000" d="M1205.5859,-122.1061C1205.5859,-122.1061 1205.5859,-140.991 1205.5859,-140.991"/>
<polygon fill="#000000" stroke="#000000" points="1202.086,-140.9909 1205.5859,-150.991 1209.086,-140.991 1202.086,-140.9909"/>
</g>
<!-- FieldErrorMessageComponent -->
<g id="node9" class="node">
<title>FieldErrorMessageComponent</title>
<polygon fill="#ffffb3" stroke="#000000" points="1066.1232,-122 877.8768,-122 877.8768,-86 1066.1232,-86 1066.1232,-122"/>
<text text-anchor="middle" x="972" y="-99.8" font-family="Times,serif" font-size="14.00" fill="#000000">FieldErrorMessageComponent</text>
</g>
<!-- FieldErrorMessageComponent&#45;&gt;NgXformModule -->
<g id="edge9" class="edge">
<title>FieldErrorMessageComponent&#45;&gt;NgXformModule</title>
<path fill="none" stroke="#000000" d="M1059.125,-122.2396C1059.125,-137.5706 1059.125,-157 1059.125,-157 1059.125,-157 1172.77,-157 1172.77,-157"/>
<polygon fill="#000000" stroke="#000000" points="1172.7701,-160.5001 1182.77,-157 1172.77,-153.5001 1172.7701,-160.5001"/>
</g>
<!-- ErrorMessagePipe -->
<g id="node10" class="node">
<title>ErrorMessagePipe</title>
<polygon fill="#ffffb3" stroke="#000000" points="859.9005,-122 740.0995,-122 740.0995,-86 859.9005,-86 859.9005,-122"/>
<text text-anchor="middle" x="800" y="-99.8" font-family="Times,serif" font-size="14.00" fill="#000000">ErrorMessagePipe</text>
</g>
<!-- ErrorMessagePipe&#45;&gt;NgXformModule -->
<g id="edge10" class="edge">
<title>ErrorMessagePipe&#45;&gt;NgXformModule</title>
<path fill="none" stroke="#000000" d="M800,-122.0336C800,-139.0597 800,-162 800,-162 800,-162 1172.9288,-162 1172.9288,-162"/>
<polygon fill="#000000" stroke="#000000" points="1172.9288,-165.5001 1182.9288,-162 1172.9287,-158.5001 1172.9288,-165.5001"/>
</g>
<!-- MultilineFieldComponent -->
<g id="node11" class="node">
<title>MultilineFieldComponent</title>
<polygon fill="#ffffb3" stroke="#000000" points="722.2232,-122 559.7768,-122 559.7768,-86 722.2232,-86 722.2232,-122"/>
<text text-anchor="middle" x="641" y="-99.8" font-family="Times,serif" font-size="14.00" fill="#000000">MultilineFieldComponent</text>
</g>
<!-- MultilineFieldComponent&#45;&gt;NgXformModule -->
<g id="edge11" class="edge">
<title>MultilineFieldComponent&#45;&gt;NgXformModule</title>
<path fill="none" stroke="#000000" d="M641,-122.2222C641,-140.8285 641,-167 641,-167 641,-167 1172.8367,-167 1172.8367,-167"/>
<polygon fill="#000000" stroke="#000000" points="1172.8367,-170.5001 1182.8367,-167 1172.8367,-163.5001 1172.8367,-170.5001"/>
</g>
<!-- OptionalTagComponent -->
<g id="node12" class="node">
<title>OptionalTagComponent</title>
<polygon fill="#ffffb3" stroke="#000000" points="542.0926,-122 389.9074,-122 389.9074,-86 542.0926,-86 542.0926,-122"/>
<text text-anchor="middle" x="466" y="-99.8" font-family="Times,serif" font-size="14.00" fill="#000000">OptionalTagComponent</text>
</g>
<!-- OptionalTagComponent&#45;&gt;NgXformModule -->
<g id="edge12" class="edge">
<title>OptionalTagComponent&#45;&gt;NgXformModule</title>
<path fill="none" stroke="#000000" d="M466,-122.2228C466,-142.3652 466,-172 466,-172 466,-172 1172.7716,-172 1172.7716,-172"/>
<polygon fill="#000000" stroke="#000000" points="1172.7716,-175.5001 1182.7716,-172 1172.7716,-168.5001 1172.7716,-175.5001"/>
</g>
<!-- DateFieldComponent -->
<g id="node13" class="node">
<title>DateFieldComponent</title>
<polygon fill="#ffffb3" stroke="#000000" points="372.038,-122 235.962,-122 235.962,-86 372.038,-86 372.038,-122"/>
<text text-anchor="middle" x="304" y="-99.8" font-family="Times,serif" font-size="14.00" fill="#000000">DateFieldComponent</text>
</g>
<!-- DateFieldComponent&#45;&gt;NgXformModule -->
<g id="edge13" class="edge">
<title>DateFieldComponent&#45;&gt;NgXformModule</title>
<path fill="none" stroke="#000000" d="M304,-122.0449C304,-143.6623 304,-177 304,-177 304,-177 1172.858,-177 1172.858,-177"/>
<polygon fill="#000000" stroke="#000000" points="1172.858,-180.5001 1182.858,-177 1172.858,-173.5001 1172.858,-180.5001"/>
</g>
<!-- FormControlLayoutComponent -->
<g id="node14" class="node">
<title>FormControlLayoutComponent</title>
<polygon fill="#ffffb3" stroke="#000000" points="218.1024,-122 23.8976,-122 23.8976,-86 218.1024,-86 218.1024,-122"/>
<text text-anchor="middle" x="121" y="-99.8" font-family="Times,serif" font-size="14.00" fill="#000000">FormControlLayoutComponent</text>
</g>
<!-- FormControlLayoutComponent&#45;&gt;NgXformModule -->
<g id="edge14" class="edge">
<title>FormControlLayoutComponent&#45;&gt;NgXformModule</title>
<path fill="none" stroke="#000000" d="M121,-122.0908C121,-145.1328 121,-182 121,-182 121,-182 1172.9702,-182 1172.9702,-182"/>
<polygon fill="#000000" stroke="#000000" points="1172.9703,-185.5001 1182.9702,-182 1172.9702,-178.5001 1172.9703,-185.5001"/>
</g>
<!-- NgXformComponent  -->
<g id="node16" class="node">
<title>NgXformComponent </title>
<polygon fill="#fb8072" stroke="#000000" points="1401.7576,-252 1262.2424,-252 1262.2424,-216 1401.7576,-216 1401.7576,-252"/>
<text text-anchor="middle" x="1332" y="-229.8" font-family="Times,serif" font-size="14.00" fill="#000000">NgXformComponent </text>
</g>
<!-- NgXformModule&#45;&gt;NgXformComponent  -->
<g id="edge15" class="edge">
<title>NgXformModule&#45;&gt;NgXformComponent </title>
<path fill="none" stroke="#000000" stroke-dasharray="5,2" d="M1279.6793,-187.1061C1279.6793,-187.1061 1279.6793,-205.991 1279.6793,-205.991"/>
<polygon fill="#000000" stroke="#000000" points="1276.1794,-205.9909 1279.6793,-215.991 1283.1794,-205.991 1276.1794,-205.9909"/>
</g>
<!-- FieldErrorMessageComponent  -->
<g id="node17" class="node">
<title>FieldErrorMessageComponent </title>
<polygon fill="#fb8072" stroke="#000000" points="1244.1228,-252 1051.8772,-252 1051.8772,-216 1244.1228,-216 1244.1228,-252"/>
<text text-anchor="middle" x="1148" y="-229.8" font-family="Times,serif" font-size="14.00" fill="#000000">FieldErrorMessageComponent </text>
</g>
<!-- NgXformModule&#45;&gt;FieldErrorMessageComponent  -->
<g id="edge16" class="edge">
<title>NgXformModule&#45;&gt;FieldErrorMessageComponent </title>
<path fill="none" stroke="#000000" stroke-dasharray="5,2" d="M1213.537,-187.1061C1213.537,-187.1061 1213.537,-205.991 1213.537,-205.991"/>
<polygon fill="#000000" stroke="#000000" points="1210.0371,-205.9909 1213.537,-215.991 1217.0371,-205.991 1210.0371,-205.9909"/>
</g>
</g>
</svg>
