<?xml version="1.0" encoding="UTF-8" standalone="no"?>
<!DOCTYPE svg PUBLIC "-//W3C//DTD SVG 1.1//EN"
 "http://www.w3.org/Graphics/SVG/1.1/DTD/svg11.dtd">
<!-- Generated by graphviz version 2.40.1 (20161225.0304)
 -->
<!-- Title: dependencies Pages: 1 -->
<svg width="1583pt" height="284pt"
 viewBox="0.00 0.00 1583.00 284.00" xmlns="http://www.w3.org/2000/svg" xmlns:xlink="http://www.w3.org/1999/xlink">
<g id="graph0" class="graph" transform="scale(1 1) rotate(0) translate(4 280)">
<title>dependencies</title>
<polygon fill="#ffffff" stroke="transparent" points="-4,4 -4,-280 1579,-280 1579,4 -4,4"/>
<text text-anchor="start" x="766.5091" y="-42.4" font-family="sans-serif" font-weight="bold" font-size="14.00" fill="#000000">Legend</text>
<polygon fill="#ffffb3" stroke="transparent" points="553.5,-10 553.5,-30 573.5,-30 573.5,-10 553.5,-10"/>
<text text-anchor="start" x="577.129" y="-15.4" font-family="sans-serif" font-size="14.00" fill="#000000"> &#160;Declarations</text>
<polygon fill="#8dd3c7" stroke="transparent" points="666.5,-10 666.5,-30 686.5,-30 686.5,-10 666.5,-10"/>
<text text-anchor="start" x="690.2251" y="-15.4" font-family="sans-serif" font-size="14.00" fill="#000000"> &#160;Module</text>
<polygon fill="#80b1d3" stroke="transparent" points="752.5,-10 752.5,-30 772.5,-30 772.5,-10 752.5,-10"/>
<text text-anchor="start" x="776.2812" y="-15.4" font-family="sans-serif" font-size="14.00" fill="#000000"> &#160;Bootstrap</text>
<polygon fill="#fdb462" stroke="transparent" points="849.5,-10 849.5,-30 869.5,-30 869.5,-10 849.5,-10"/>
<text text-anchor="start" x="873.1732" y="-15.4" font-family="sans-serif" font-size="14.00" fill="#000000"> &#160;Providers</text>
<polygon fill="#fb8072" stroke="transparent" points="945.5,-10 945.5,-30 965.5,-30 965.5,-10 945.5,-10"/>
<text text-anchor="start" x="969.2258" y="-15.4" font-family="sans-serif" font-size="14.00" fill="#000000"> &#160;Exports</text>
<g id="clust1" class="cluster">
<title>cluster_NgXformModule</title>
<polygon fill="none" stroke="#000000" stroke-dasharray="1,5" points="8,-70 8,-268 1567,-268 1567,-70 8,-70"/>
</g>
<g id="clust2" class="cluster">
<title>cluster_NgXformModule_declarations</title>
<polygon fill="none" stroke="#000000" points="16,-78 16,-130 1559,-130 1559,-78 16,-78"/>
</g>
<g id="clust13" class="cluster">
<title>cluster_NgXformModule_exports</title>
<polygon fill="none" stroke="#000000" points="593,-208 593,-260 959,-260 959,-208 593,-208"/>
</g>
<!-- NgXformComponent -->
<g id="node1" class="node">
<title>NgXformComponent</title>
<polygon fill="#ffffb3" stroke="#000000" points="1550.7576,-122 1415.2424,-122 1415.2424,-86 1550.7576,-86 1550.7576,-122"/>
<text text-anchor="middle" x="1483" y="-99.8" font-family="Times,serif" font-size="14.00" fill="#000000">NgXformComponent</text>
</g>
<!-- NgXformModule -->
<g id="node10" class="node">
<title>NgXformModule</title>
<polygon fill="#8dd3c7" stroke="#000000" points="845.9748,-187 842.9748,-191 821.9748,-191 818.9748,-187 732.0252,-187 732.0252,-151 845.9748,-151 845.9748,-187"/>
<text text-anchor="middle" x="789" y="-164.8" font-family="Times,serif" font-size="14.00" fill="#000000">NgXformModule</text>
</g>
<!-- NgXformComponent&#45;&gt;NgXformModule -->
<g id="edge1" class="edge">
<title>NgXformComponent&#45;&gt;NgXformModule</title>
<path fill="none" stroke="#000000" d="M1483,-122.0109C1483,-144.4852 1483,-180 1483,-180 1483,-180 856.0878,-180 856.0878,-180"/>
<polygon fill="#000000" stroke="#000000" points="856.0879,-176.5001 846.0878,-180 856.0878,-183.5001 856.0879,-176.5001"/>
</g>
<!-- FormGroupComponent -->
<g id="node2" class="node">
<title>FormGroupComponent</title>
<polygon fill="#ffffb3" stroke="#000000" points="1396.934,-122 1249.066,-122 1249.066,-86 1396.934,-86 1396.934,-122"/>
<text text-anchor="middle" x="1323" y="-99.8" font-family="Times,serif" font-size="14.00" fill="#000000">FormGroupComponent</text>
</g>
<!-- FormGroupComponent&#45;&gt;NgXformModule -->
<g id="edge2" class="edge">
<title>FormGroupComponent&#45;&gt;NgXformModule</title>
<path fill="none" stroke="#000000" d="M1323,-122.1289C1323,-142.5724 1323,-173 1323,-173 1323,-173 856.1474,-173 856.1474,-173"/>
<polygon fill="#000000" stroke="#000000" points="856.1474,-169.5001 846.1474,-173 856.1473,-176.5001 856.1474,-169.5001"/>
</g>
<!-- EditableLabelComponent -->
<g id="node3" class="node">
<title>EditableLabelComponent</title>
<polygon fill="#ffffb3" stroke="#000000" points="1230.8585,-122 1071.1415,-122 1071.1415,-86 1230.8585,-86 1230.8585,-122"/>
<text text-anchor="middle" x="1151" y="-99.8" font-family="Times,serif" font-size="14.00" fill="#000000">EditableLabelComponent</text>
</g>
<!-- EditableLabelComponent&#45;&gt;NgXformModule -->
<g id="edge3" class="edge">
<title>EditableLabelComponent&#45;&gt;NgXformModule</title>
<path fill="none" stroke="#000000" d="M1151,-122.2667C1151,-140.5552 1151,-166 1151,-166 1151,-166 856.36,-166 856.36,-166"/>
<polygon fill="#000000" stroke="#000000" points="856.36,-162.5001 846.36,-166 856.3599,-169.5001 856.36,-162.5001"/>
</g>
<!-- CheckboxFieldComponent -->
<g id="node4" class="node">
<title>CheckboxFieldComponent</title>
<polygon fill="#ffffb3" stroke="#000000" points="1053.3766,-122 886.6234,-122 886.6234,-86 1053.3766,-86 1053.3766,-122"/>
<text text-anchor="middle" x="970" y="-99.8" font-family="Times,serif" font-size="14.00" fill="#000000">CheckboxFieldComponent</text>
</g>
<!-- CheckboxFieldComponent&#45;&gt;NgXformModule -->
<g id="edge4" class="edge">
<title>CheckboxFieldComponent&#45;&gt;NgXformModule</title>
<path fill="none" stroke="#000000" d="M918.5952,-122.0091C918.5952,-138.0494 918.5952,-159 918.5952,-159 918.5952,-159 856.2196,-159 856.2196,-159"/>
<polygon fill="#000000" stroke="#000000" points="856.2196,-155.5001 846.2196,-159 856.2195,-162.5001 856.2196,-155.5001"/>
</g>
<!-- MeasureFieldComponent -->
<g id="node5" class="node">
<title>MeasureFieldComponent</title>
<polygon fill="#ffffb3" stroke="#000000" points="868.3047,-122 709.6953,-122 709.6953,-86 868.3047,-86 868.3047,-122"/>
<text text-anchor="middle" x="789" y="-99.8" font-family="Times,serif" font-size="14.00" fill="#000000">MeasureFieldComponent</text>
</g>
<!-- MeasureFieldComponent&#45;&gt;NgXformModule -->
<g id="edge5" class="edge">
<title>MeasureFieldComponent&#45;&gt;NgXformModule</title>
<path fill="none" stroke="#000000" d="M789,-122.1061C789,-122.1061 789,-140.991 789,-140.991"/>
<polygon fill="#000000" stroke="#000000" points="785.5001,-140.9909 789,-150.991 792.5001,-140.991 785.5001,-140.9909"/>
</g>
<!-- SelectFieldComponent -->
<g id="node6" class="node">
<title>SelectFieldComponent</title>
<polygon fill="#ffffb3" stroke="#000000" points="692.3188,-122 547.6812,-122 547.6812,-86 692.3188,-86 692.3188,-122"/>
<text text-anchor="middle" x="620" y="-99.8" font-family="Times,serif" font-size="14.00" fill="#000000">SelectFieldComponent</text>
</g>
<!-- SelectFieldComponent&#45;&gt;NgXformModule -->
<g id="edge6" class="edge">
<title>SelectFieldComponent&#45;&gt;NgXformModule</title>
<path fill="none" stroke="#000000" d="M646.5489,-122.0091C646.5489,-138.0494 646.5489,-159 646.5489,-159 646.5489,-159 721.8805,-159 721.8805,-159"/>
<polygon fill="#000000" stroke="#000000" points="721.8805,-162.5001 731.8805,-159 721.8804,-155.5001 721.8805,-162.5001"/>
</g>
<!-- FieldErrorMessageComponent -->
<g id="node7" class="node">
<title>FieldErrorMessageComponent</title>
<polygon fill="#ffffb3" stroke="#000000" points="530.1232,-122 341.8768,-122 341.8768,-86 530.1232,-86 530.1232,-122"/>
<text text-anchor="middle" x="436" y="-99.8" font-family="Times,serif" font-size="14.00" fill="#000000">FieldErrorMessageComponent</text>
</g>
<!-- FieldErrorMessageComponent&#45;&gt;NgXformModule -->
<g id="edge7" class="edge">
<title>FieldErrorMessageComponent&#45;&gt;NgXformModule</title>
<path fill="none" stroke="#000000" d="M436,-122.2667C436,-140.5552 436,-166 436,-166 436,-166 721.8921,-166 721.8921,-166"/>
<polygon fill="#000000" stroke="#000000" points="721.8922,-169.5001 731.8921,-166 721.8921,-162.5001 721.8922,-169.5001"/>
</g>
<!-- ErrorMessagePipe -->
<g id="node8" class="node">
<title>ErrorMessagePipe</title>
<polygon fill="#ffffb3" stroke="#000000" points="323.9005,-122 204.0995,-122 204.0995,-86 323.9005,-86 323.9005,-122"/>
<text text-anchor="middle" x="264" y="-99.8" font-family="Times,serif" font-size="14.00" fill="#000000">ErrorMessagePipe</text>
</g>
<!-- ErrorMessagePipe&#45;&gt;NgXformModule -->
<g id="edge8" class="edge">
<title>ErrorMessagePipe&#45;&gt;NgXformModule</title>
<path fill="none" stroke="#000000" d="M264,-122.1289C264,-142.5724 264,-173 264,-173 264,-173 721.8164,-173 721.8164,-173"/>
<polygon fill="#000000" stroke="#000000" points="721.8164,-176.5001 731.8164,-173 721.8164,-169.5001 721.8164,-176.5001"/>
</g>
<!-- MultilineFieldComponent -->
<g id="node9" class="node">
<title>MultilineFieldComponent</title>
<polygon fill="#ffffb3" stroke="#000000" points="186.2232,-122 23.7768,-122 23.7768,-86 186.2232,-86 186.2232,-122"/>
<text text-anchor="middle" x="105" y="-99.8" font-family="Times,serif" font-size="14.00" fill="#000000">MultilineFieldComponent</text>
</g>
<!-- MultilineFieldComponent&#45;&gt;NgXformModule -->
<g id="edge9" class="edge">
<title>MultilineFieldComponent&#45;&gt;NgXformModule</title>
<path fill="none" stroke="#000000" d="M105,-122.0109C105,-144.4852 105,-180 105,-180 105,-180 721.859,-180 721.859,-180"/>
<polygon fill="#000000" stroke="#000000" points="721.8591,-183.5001 731.859,-180 721.859,-176.5001 721.8591,-183.5001"/>
</g>
<!-- NgXformComponent  -->
<g id="node11" class="node">
<title>NgXformComponent </title>
<polygon fill="#fb8072" stroke="#000000" points="950.7576,-252 811.2424,-252 811.2424,-216 950.7576,-216 950.7576,-252"/>
<text text-anchor="middle" x="881" y="-229.8" font-family="Times,serif" font-size="14.00" fill="#000000">NgXformComponent </text>
</g>
<!-- NgXformModule&#45;&gt;NgXformComponent  -->
<g id="edge10" class="edge">
<title>NgXformModule&#45;&gt;NgXformComponent </title>
<path fill="none" stroke="#000000" stroke-dasharray="5,2" d="M828.6794,-187.1061C828.6794,-187.1061 828.6794,-205.991 828.6794,-205.991"/>
<polygon fill="#000000" stroke="#000000" points="825.1794,-205.9909 828.6794,-215.991 832.1794,-205.991 825.1794,-205.9909"/>
</g>
<!-- FieldErrorMessageComponent  -->
<g id="node12" class="node">
<title>FieldErrorMessageComponent </title>
<polygon fill="#fb8072" stroke="#000000" points="793.1228,-252 600.8772,-252 600.8772,-216 793.1228,-216 793.1228,-252"/>
<text text-anchor="middle" x="697" y="-229.8" font-family="Times,serif" font-size="14.00" fill="#000000">FieldErrorMessageComponent </text>
</g>
<!-- NgXformModule&#45;&gt;FieldErrorMessageComponent  -->
<g id="edge11" class="edge">
<title>NgXformModule&#45;&gt;FieldErrorMessageComponent </title>
<path fill="none" stroke="#000000" stroke-dasharray="5,2" d="M762.537,-187.1061C762.537,-187.1061 762.537,-205.991 762.537,-205.991"/>
<polygon fill="#000000" stroke="#000000" points="759.0371,-205.9909 762.537,-215.991 766.0371,-205.991 759.0371,-205.9909"/>
</g>
</g>
</svg>
