<?xml version="1.0" encoding="UTF-8" standalone="no"?>
<!DOCTYPE svg PUBLIC "-//W3C//DTD SVG 1.1//EN"
 "http://www.w3.org/Graphics/SVG/1.1/DTD/svg11.dtd">
<!-- Generated by graphviz version 2.40.1 (20161225.0304)
 -->
<!-- Title: dependencies Pages: 1 -->
<svg width="1907pt" height="284pt"
 viewBox="0.00 0.00 1907.00 284.00" xmlns="http://www.w3.org/2000/svg" xmlns:xlink="http://www.w3.org/1999/xlink">
<g id="graph0" class="graph" transform="scale(1 1) rotate(0) translate(4 280)">
<title>dependencies</title>
<polygon fill="#ffffff" stroke="transparent" points="-4,4 -4,-280 1903,-280 1903,4 -4,4"/>
<text text-anchor="start" x="928.5091" y="-42.4" font-family="sans-serif" font-weight="bold" font-size="14.00" fill="#000000">Legend</text>
<polygon fill="#ffffb3" stroke="transparent" points="715.5,-10 715.5,-30 735.5,-30 735.5,-10 715.5,-10"/>
<text text-anchor="start" x="739.129" y="-15.4" font-family="sans-serif" font-size="14.00" fill="#000000"> &#160;Declarations</text>
<polygon fill="#8dd3c7" stroke="transparent" points="828.5,-10 828.5,-30 848.5,-30 848.5,-10 828.5,-10"/>
<text text-anchor="start" x="852.2251" y="-15.4" font-family="sans-serif" font-size="14.00" fill="#000000"> &#160;Module</text>
<polygon fill="#80b1d3" stroke="transparent" points="914.5,-10 914.5,-30 934.5,-30 934.5,-10 914.5,-10"/>
<text text-anchor="start" x="938.2812" y="-15.4" font-family="sans-serif" font-size="14.00" fill="#000000"> &#160;Bootstrap</text>
<polygon fill="#fdb462" stroke="transparent" points="1011.5,-10 1011.5,-30 1031.5,-30 1031.5,-10 1011.5,-10"/>
<text text-anchor="start" x="1035.1732" y="-15.4" font-family="sans-serif" font-size="14.00" fill="#000000"> &#160;Providers</text>
<polygon fill="#fb8072" stroke="transparent" points="1107.5,-10 1107.5,-30 1127.5,-30 1127.5,-10 1107.5,-10"/>
<text text-anchor="start" x="1131.2258" y="-15.4" font-family="sans-serif" font-size="14.00" fill="#000000"> &#160;Exports</text>
<g id="clust1" class="cluster">
<title>cluster_NgXformModule</title>
<polygon fill="none" stroke="#000000" stroke-dasharray="1,5" points="8,-70 8,-268 1891,-268 1891,-70 8,-70"/>
</g>
<g id="clust2" class="cluster">
<title>cluster_NgXformModule_declarations</title>
<polygon fill="none" stroke="#000000" points="16,-78 16,-130 1883,-130 1883,-78 16,-78"/>
</g>
<g id="clust15" class="cluster">
<title>cluster_NgXformModule_exports</title>
<polygon fill="none" stroke="#000000" points="748,-208 748,-260 1114,-260 1114,-208 748,-208"/>
</g>
<!-- NgXformComponent -->
<g id="node1" class="node">
<title>NgXformComponent</title>
<polygon fill="#ffffb3" stroke="#000000" points="1874.7576,-122 1739.2424,-122 1739.2424,-86 1874.7576,-86 1874.7576,-122"/>
<text text-anchor="middle" x="1807" y="-99.8" font-family="Times,serif" font-size="14.00" fill="#000000">NgXformComponent</text>
</g>
<!-- NgXformModule -->
<g id="node12" class="node">
<title>NgXformModule</title>
<polygon fill="#8dd3c7" stroke="#000000" points="1000.9748,-187 997.9748,-191 976.9748,-191 973.9748,-187 887.0252,-187 887.0252,-151 1000.9748,-151 1000.9748,-187"/>
<text text-anchor="middle" x="944" y="-164.8" font-family="Times,serif" font-size="14.00" fill="#000000">NgXformModule</text>
</g>
<!-- NgXformComponent&#45;&gt;NgXformModule -->
<g id="edge1" class="edge">
<title>NgXformComponent&#45;&gt;NgXformModule</title>
<path fill="none" stroke="#000000" d="M1807,-122.2479C1807,-145.0179 1807,-181 1807,-181 1807,-181 1011.2922,-181 1011.2922,-181"/>
<polygon fill="#000000" stroke="#000000" points="1011.2922,-177.5001 1001.2922,-181 1011.2921,-184.5001 1011.2922,-177.5001"/>
</g>
<!-- FormGroupComponent -->
<g id="node2" class="node">
<title>FormGroupComponent</title>
<polygon fill="#ffffb3" stroke="#000000" points="1720.934,-122 1573.066,-122 1573.066,-86 1720.934,-86 1720.934,-122"/>
<text text-anchor="middle" x="1647" y="-99.8" font-family="Times,serif" font-size="14.00" fill="#000000">FormGroupComponent</text>
</g>
<!-- FormGroupComponent&#45;&gt;NgXformModule -->
<g id="edge2" class="edge">
<title>FormGroupComponent&#45;&gt;NgXformModule</title>
<path fill="none" stroke="#000000" d="M1647,-122.2843C1647,-143.3211 1647,-175 1647,-175 1647,-175 1011.2314,-175 1011.2314,-175"/>
<polygon fill="#000000" stroke="#000000" points="1011.2314,-171.5001 1001.2314,-175 1011.2313,-178.5001 1011.2314,-171.5001"/>
</g>
<!-- EditableLabelComponent -->
<g id="node3" class="node">
<title>EditableLabelComponent</title>
<polygon fill="#ffffb3" stroke="#000000" points="1554.8585,-122 1395.1415,-122 1395.1415,-86 1554.8585,-86 1554.8585,-122"/>
<text text-anchor="middle" x="1475" y="-99.8" font-family="Times,serif" font-size="14.00" fill="#000000">EditableLabelComponent</text>
</g>
<!-- EditableLabelComponent&#45;&gt;NgXformModule -->
<g id="edge3" class="edge">
<title>EditableLabelComponent&#45;&gt;NgXformModule</title>
<path fill="none" stroke="#000000" d="M1475,-122.1061C1475,-141.3391 1475,-169 1475,-169 1475,-169 1011.0783,-169 1011.0783,-169"/>
<polygon fill="#000000" stroke="#000000" points="1011.0784,-165.5001 1001.0783,-169 1011.0783,-172.5001 1011.0784,-165.5001"/>
</g>
<!-- CheckboxFieldComponent -->
<g id="node4" class="node">
<title>CheckboxFieldComponent</title>
<polygon fill="#ffffb3" stroke="#000000" points="1377.3766,-122 1210.6234,-122 1210.6234,-86 1377.3766,-86 1377.3766,-122"/>
<text text-anchor="middle" x="1294" y="-99.8" font-family="Times,serif" font-size="14.00" fill="#000000">CheckboxFieldComponent</text>
</g>
<!-- CheckboxFieldComponent&#45;&gt;NgXformModule -->
<g id="edge4" class="edge">
<title>CheckboxFieldComponent&#45;&gt;NgXformModule</title>
<path fill="none" stroke="#000000" d="M1294,-122.0225C1294,-139.3734 1294,-163 1294,-163 1294,-163 1011.0125,-163 1011.0125,-163"/>
<polygon fill="#000000" stroke="#000000" points="1011.0125,-159.5001 1001.0125,-163 1011.0125,-166.5001 1011.0125,-159.5001"/>
</g>
<!-- MeasureFieldComponent -->
<g id="node5" class="node">
<title>MeasureFieldComponent</title>
<polygon fill="#ffffb3" stroke="#000000" points="1192.3047,-122 1033.6953,-122 1033.6953,-86 1192.3047,-86 1192.3047,-122"/>
<text text-anchor="middle" x="1113" y="-99.8" font-family="Times,serif" font-size="14.00" fill="#000000">MeasureFieldComponent</text>
</g>
<!-- MeasureFieldComponent&#45;&gt;NgXformModule -->
<g id="edge5" class="edge">
<title>MeasureFieldComponent&#45;&gt;NgXformModule</title>
<path fill="none" stroke="#000000" d="M1069.7382,-122.2396C1069.7382,-137.5706 1069.7382,-157 1069.7382,-157 1069.7382,-157 1010.9828,-157 1010.9828,-157"/>
<polygon fill="#000000" stroke="#000000" points="1010.9829,-153.5001 1000.9828,-157 1010.9828,-160.5001 1010.9829,-153.5001"/>
</g>
<!-- SelectFieldComponent -->
<g id="node6" class="node">
<title>SelectFieldComponent</title>
<polygon fill="#ffffb3" stroke="#000000" points="1016.3188,-122 871.6812,-122 871.6812,-86 1016.3188,-86 1016.3188,-122"/>
<text text-anchor="middle" x="944" y="-99.8" font-family="Times,serif" font-size="14.00" fill="#000000">SelectFieldComponent</text>
</g>
<!-- SelectFieldComponent&#45;&gt;NgXformModule -->
<g id="edge6" class="edge">
<title>SelectFieldComponent&#45;&gt;NgXformModule</title>
<path fill="none" stroke="#000000" d="M944,-122.1061C944,-122.1061 944,-140.991 944,-140.991"/>
<polygon fill="#000000" stroke="#000000" points="940.5001,-140.9909 944,-150.991 947.5001,-140.991 940.5001,-140.9909"/>
</g>
<!-- FieldErrorMessageComponent -->
<g id="node7" class="node">
<title>FieldErrorMessageComponent</title>
<polygon fill="#ffffb3" stroke="#000000" points="854.1232,-122 665.8768,-122 665.8768,-86 854.1232,-86 854.1232,-122"/>
<text text-anchor="middle" x="760" y="-99.8" font-family="Times,serif" font-size="14.00" fill="#000000">FieldErrorMessageComponent</text>
</g>
<!-- FieldErrorMessageComponent&#45;&gt;NgXformModule -->
<g id="edge7" class="edge">
<title>FieldErrorMessageComponent&#45;&gt;NgXformModule</title>
<path fill="none" stroke="#000000" d="M805.125,-122.2396C805.125,-137.5706 805.125,-157 805.125,-157 805.125,-157 876.7124,-157 876.7124,-157"/>
<polygon fill="#000000" stroke="#000000" points="876.7125,-160.5001 886.7124,-157 876.7124,-153.5001 876.7125,-160.5001"/>
</g>
<!-- ErrorMessagePipe -->
<g id="node8" class="node">
<title>ErrorMessagePipe</title>
<polygon fill="#ffffb3" stroke="#000000" points="647.9005,-122 528.0995,-122 528.0995,-86 647.9005,-86 647.9005,-122"/>
<text text-anchor="middle" x="588" y="-99.8" font-family="Times,serif" font-size="14.00" fill="#000000">ErrorMessagePipe</text>
</g>
<!-- ErrorMessagePipe&#45;&gt;NgXformModule -->
<g id="edge8" class="edge">
<title>ErrorMessagePipe&#45;&gt;NgXformModule</title>
<path fill="none" stroke="#000000" d="M588,-122.0225C588,-139.3734 588,-163 588,-163 588,-163 876.8024,-163 876.8024,-163"/>
<polygon fill="#000000" stroke="#000000" points="876.8025,-166.5001 886.8024,-163 876.8024,-159.5001 876.8025,-166.5001"/>
</g>
<!-- MultilineFieldComponent -->
<g id="node9" class="node">
<title>MultilineFieldComponent</title>
<polygon fill="#ffffb3" stroke="#000000" points="510.2232,-122 347.7768,-122 347.7768,-86 510.2232,-86 510.2232,-122"/>
<text text-anchor="middle" x="429" y="-99.8" font-family="Times,serif" font-size="14.00" fill="#000000">MultilineFieldComponent</text>
</g>
<!-- MultilineFieldComponent&#45;&gt;NgXformModule -->
<g id="edge9" class="edge">
<title>MultilineFieldComponent&#45;&gt;NgXformModule</title>
<path fill="none" stroke="#000000" d="M429,-122.1061C429,-141.3391 429,-169 429,-169 429,-169 876.9183,-169 876.9183,-169"/>
<polygon fill="#000000" stroke="#000000" points="876.9183,-172.5001 886.9183,-169 876.9182,-165.5001 876.9183,-172.5001"/>
</g>
<!-- OptionalTagComponent -->
<g id="node10" class="node">
<title>OptionalTagComponent</title>
<polygon fill="#ffffb3" stroke="#000000" points="330.0926,-122 177.9074,-122 177.9074,-86 330.0926,-86 330.0926,-122"/>
<text text-anchor="middle" x="254" y="-99.8" font-family="Times,serif" font-size="14.00" fill="#000000">OptionalTagComponent</text>
</g>
<!-- OptionalTagComponent&#45;&gt;NgXformModule -->
<g id="edge10" class="edge">
<title>OptionalTagComponent&#45;&gt;NgXformModule</title>
<path fill="none" stroke="#000000" d="M254,-122.2843C254,-143.3211 254,-175 254,-175 254,-175 876.9474,-175 876.9474,-175"/>
<polygon fill="#000000" stroke="#000000" points="876.9474,-178.5001 886.9474,-175 876.9473,-171.5001 876.9474,-178.5001"/>
</g>
<!-- DateFieldComponent -->
<g id="node11" class="node">
<title>DateFieldComponent</title>
<polygon fill="#ffffb3" stroke="#000000" points="160.038,-122 23.962,-122 23.962,-86 160.038,-86 160.038,-122"/>
<text text-anchor="middle" x="92" y="-99.8" font-family="Times,serif" font-size="14.00" fill="#000000">DateFieldComponent</text>
</g>
<!-- DateFieldComponent&#45;&gt;NgXformModule -->
<g id="edge11" class="edge">
<title>DateFieldComponent&#45;&gt;NgXformModule</title>
<path fill="none" stroke="#000000" d="M92,-122.2479C92,-145.0179 92,-181 92,-181 92,-181 876.7749,-181 876.7749,-181"/>
<polygon fill="#000000" stroke="#000000" points="876.7749,-184.5001 886.7749,-181 876.7749,-177.5001 876.7749,-184.5001"/>
</g>
<!-- NgXformComponent  -->
<g id="node13" class="node">
<title>NgXformComponent </title>
<polygon fill="#fb8072" stroke="#000000" points="1105.7576,-252 966.2424,-252 966.2424,-216 1105.7576,-216 1105.7576,-252"/>
<text text-anchor="middle" x="1036" y="-229.8" font-family="Times,serif" font-size="14.00" fill="#000000">NgXformComponent </text>
</g>
<!-- NgXformModule&#45;&gt;NgXformComponent  -->
<g id="edge12" class="edge">
<title>NgXformModule&#45;&gt;NgXformComponent </title>
<path fill="none" stroke="#000000" stroke-dasharray="5,2" d="M983.6794,-187.1061C983.6794,-187.1061 983.6794,-205.991 983.6794,-205.991"/>
<polygon fill="#000000" stroke="#000000" points="980.1794,-205.9909 983.6794,-215.991 987.1794,-205.991 980.1794,-205.9909"/>
</g>
<!-- FieldErrorMessageComponent  -->
<g id="node14" class="node">
<title>FieldErrorMessageComponent </title>
<polygon fill="#fb8072" stroke="#000000" points="948.1228,-252 755.8772,-252 755.8772,-216 948.1228,-216 948.1228,-252"/>
<text text-anchor="middle" x="852" y="-229.8" font-family="Times,serif" font-size="14.00" fill="#000000">FieldErrorMessageComponent </text>
</g>
<!-- NgXformModule&#45;&gt;FieldErrorMessageComponent  -->
<g id="edge13" class="edge">
<title>NgXformModule&#45;&gt;FieldErrorMessageComponent </title>
<path fill="none" stroke="#000000" stroke-dasharray="5,2" d="M917.537,-187.1061C917.537,-187.1061 917.537,-205.991 917.537,-205.991"/>
<polygon fill="#000000" stroke="#000000" points="914.0371,-205.9909 917.537,-215.991 921.0371,-205.991 914.0371,-205.9909"/>
</g>
</g>
</svg>
