<?xml version="1.0" encoding="UTF-8" standalone="no"?>
<!DOCTYPE svg PUBLIC "-//W3C//DTD SVG 1.1//EN"
 "http://www.w3.org/Graphics/SVG/1.1/DTD/svg11.dtd">
<!-- Generated by graphviz version 2.40.1 (20161225.0304)
 -->
<!-- Title: dependencies Pages: 1 -->
<svg width="3129pt" height="284pt"
 viewBox="0.00 0.00 3129.00 284.00" xmlns="http://www.w3.org/2000/svg" xmlns:xlink="http://www.w3.org/1999/xlink">
<g id="graph0" class="graph" transform="scale(1 1) rotate(0) translate(4 280)">
<title>dependencies</title>
<polygon fill="#ffffff" stroke="transparent" points="-4,4 -4,-280 3125,-280 3125,4 -4,4"/>
<text text-anchor="start" x="1539.5091" y="-42.4" font-family="sans-serif" font-weight="bold" font-size="14.00" fill="#000000">Legend</text>
<polygon fill="#ffffb3" stroke="transparent" points="1326.5,-10 1326.5,-30 1346.5,-30 1346.5,-10 1326.5,-10"/>
<text text-anchor="start" x="1350.129" y="-15.4" font-family="sans-serif" font-size="14.00" fill="#000000"> &#160;Declarations</text>
<polygon fill="#8dd3c7" stroke="transparent" points="1439.5,-10 1439.5,-30 1459.5,-30 1459.5,-10 1439.5,-10"/>
<text text-anchor="start" x="1463.2251" y="-15.4" font-family="sans-serif" font-size="14.00" fill="#000000"> &#160;Module</text>
<polygon fill="#80b1d3" stroke="transparent" points="1525.5,-10 1525.5,-30 1545.5,-30 1545.5,-10 1525.5,-10"/>
<text text-anchor="start" x="1549.2812" y="-15.4" font-family="sans-serif" font-size="14.00" fill="#000000"> &#160;Bootstrap</text>
<polygon fill="#fdb462" stroke="transparent" points="1622.5,-10 1622.5,-30 1642.5,-30 1642.5,-10 1622.5,-10"/>
<text text-anchor="start" x="1646.1732" y="-15.4" font-family="sans-serif" font-size="14.00" fill="#000000"> &#160;Providers</text>
<polygon fill="#fb8072" stroke="transparent" points="1718.5,-10 1718.5,-30 1738.5,-30 1738.5,-10 1718.5,-10"/>
<text text-anchor="start" x="1742.2258" y="-15.4" font-family="sans-serif" font-size="14.00" fill="#000000"> &#160;Exports</text>
<g id="clust1" class="cluster">
<title>cluster_NgXformModule</title>
<polygon fill="none" stroke="#000000" stroke-dasharray="1,5" points="8,-70 8,-268 3113,-268 3113,-70 8,-70"/>
</g>
<g id="clust2" class="cluster">
<title>cluster_NgXformModule_declarations</title>
<polygon fill="none" stroke="#000000" points="16,-78 16,-130 3105,-130 3105,-78 16,-78"/>
</g>
<g id="clust21" class="cluster">
<title>cluster_NgXformModule_exports</title>
<polygon fill="none" stroke="#000000" points="1281,-208 1281,-260 1855,-260 1855,-208 1281,-208"/>
</g>
<!-- NgXformComponent -->
<g id="node1" class="node">
<title>NgXformComponent</title>
<polygon fill="#ffffb3" stroke="#000000" points="3096.7576,-122 2961.2424,-122 2961.2424,-86 3096.7576,-86 3096.7576,-122"/>
<text text-anchor="middle" x="3029" y="-99.8" font-family="Times,serif" font-size="14.00" fill="#000000">NgXformComponent</text>
</g>
<!-- NgXformModule -->
<g id="node18" class="node">
<title>NgXformModule</title>
<polygon fill="#8dd3c7" stroke="#000000" points="1650.9748,-187 1647.9748,-191 1626.9748,-191 1623.9748,-187 1537.0252,-187 1537.0252,-151 1650.9748,-151 1650.9748,-187"/>
<text text-anchor="middle" x="1594" y="-164.8" font-family="Times,serif" font-size="14.00" fill="#000000">NgXformModule</text>
</g>
<!-- NgXformComponent&#45;&gt;NgXformModule -->
<g id="edge1" class="edge">
<title>NgXformComponent&#45;&gt;NgXformModule</title>
<path fill="none" stroke="#000000" d="M3029,-122.0109C3029,-144.4852 3029,-180 3029,-180 3029,-180 1661.1392,-180 1661.1392,-180"/>
<polygon fill="#000000" stroke="#000000" points="1661.1393,-176.5001 1651.1392,-180 1661.1392,-183.5001 1661.1393,-176.5001"/>
</g>
<!-- NgXformEditSaveComponent -->
<g id="node2" class="node">
<title>NgXformEditSaveComponent</title>
<polygon fill="#ffffb3" stroke="#000000" points="2943.3032,-122 2756.6968,-122 2756.6968,-86 2943.3032,-86 2943.3032,-122"/>
<text text-anchor="middle" x="2850" y="-99.8" font-family="Times,serif" font-size="14.00" fill="#000000">NgXformEditSaveComponent</text>
</g>
<!-- NgXformEditSaveComponent&#45;&gt;NgXformModule -->
<g id="edge2" class="edge">
<title>NgXformEditSaveComponent&#45;&gt;NgXformModule</title>
<path fill="none" stroke="#000000" d="M2850,-122.0449C2850,-143.6623 2850,-177 2850,-177 2850,-177 1661.2314,-177 1661.2314,-177"/>
<polygon fill="#000000" stroke="#000000" points="1661.2315,-173.5001 1651.2314,-177 1661.2314,-180.5001 1661.2315,-173.5001"/>
</g>
<!-- FormGroupComponent -->
<g id="node3" class="node">
<title>FormGroupComponent</title>
<polygon fill="#ffffb3" stroke="#000000" points="2738.934,-122 2591.066,-122 2591.066,-86 2738.934,-86 2738.934,-122"/>
<text text-anchor="middle" x="2665" y="-99.8" font-family="Times,serif" font-size="14.00" fill="#000000">FormGroupComponent</text>
</g>
<!-- FormGroupComponent&#45;&gt;NgXformModule -->
<g id="edge3" class="edge">
<title>FormGroupComponent&#45;&gt;NgXformModule</title>
<path fill="none" stroke="#000000" d="M2665,-122.1289C2665,-142.5724 2665,-173 2665,-173 2665,-173 1661.203,-173 1661.203,-173"/>
<polygon fill="#000000" stroke="#000000" points="1661.203,-169.5001 1651.203,-173 1661.2029,-176.5001 1661.203,-169.5001"/>
</g>
<!-- EditableLabelComponent -->
<g id="node4" class="node">
<title>EditableLabelComponent</title>
<polygon fill="#ffffb3" stroke="#000000" points="2572.8585,-122 2413.1415,-122 2413.1415,-86 2572.8585,-86 2572.8585,-122"/>
<text text-anchor="middle" x="2493" y="-99.8" font-family="Times,serif" font-size="14.00" fill="#000000">EditableLabelComponent</text>
</g>
<!-- EditableLabelComponent&#45;&gt;NgXformModule -->
<g id="edge4" class="edge">
<title>EditableLabelComponent&#45;&gt;NgXformModule</title>
<path fill="none" stroke="#000000" d="M2493,-122.1061C2493,-141.3391 2493,-169 2493,-169 2493,-169 1661.2608,-169 1661.2608,-169"/>
<polygon fill="#000000" stroke="#000000" points="1661.2609,-165.5001 1651.2608,-169 1661.2608,-172.5001 1661.2609,-165.5001"/>
</g>
<!-- CheckboxFieldComponent -->
<g id="node5" class="node">
<title>CheckboxFieldComponent</title>
<polygon fill="#ffffb3" stroke="#000000" points="2395.3766,-122 2228.6234,-122 2228.6234,-86 2395.3766,-86 2395.3766,-122"/>
<text text-anchor="middle" x="2312" y="-99.8" font-family="Times,serif" font-size="14.00" fill="#000000">CheckboxFieldComponent</text>
</g>
<!-- CheckboxFieldComponent&#45;&gt;NgXformModule -->
<g id="edge5" class="edge">
<title>CheckboxFieldComponent&#45;&gt;NgXformModule</title>
<path fill="none" stroke="#000000" d="M2312,-122.2667C2312,-140.5552 2312,-166 2312,-166 2312,-166 1661.2415,-166 1661.2415,-166"/>
<polygon fill="#000000" stroke="#000000" points="1661.2415,-162.5001 1651.2415,-166 1661.2415,-169.5001 1661.2415,-162.5001"/>
</g>
<!-- CustomFieldComponent -->
<g id="node6" class="node">
<title>CustomFieldComponent</title>
<polygon fill="#ffffb3" stroke="#000000" points="2210.6735,-122 2057.3265,-122 2057.3265,-86 2210.6735,-86 2210.6735,-122"/>
<text text-anchor="middle" x="2134" y="-99.8" font-family="Times,serif" font-size="14.00" fill="#000000">CustomFieldComponent</text>
</g>
<!-- CustomFieldComponent&#45;&gt;NgXformModule -->
<g id="edge6" class="edge">
<title>CustomFieldComponent&#45;&gt;NgXformModule</title>
<path fill="none" stroke="#000000" d="M2134,-122.0336C2134,-139.0597 2134,-162 2134,-162 2134,-162 1661.0233,-162 1661.0233,-162"/>
<polygon fill="#000000" stroke="#000000" points="1661.0233,-158.5001 1651.0233,-162 1661.0233,-165.5001 1661.0233,-158.5001"/>
</g>
<!-- RadioGroupFieldComponent -->
<g id="node7" class="node">
<title>RadioGroupFieldComponent</title>
<polygon fill="#ffffb3" stroke="#000000" points="2039.8201,-122 1860.1799,-122 1860.1799,-86 2039.8201,-86 2039.8201,-122"/>
<text text-anchor="middle" x="1950" y="-99.8" font-family="Times,serif" font-size="14.00" fill="#000000">RadioGroupFieldComponent</text>
</g>
<!-- RadioGroupFieldComponent&#45;&gt;NgXformModule -->
<g id="edge7" class="edge">
<title>RadioGroupFieldComponent&#45;&gt;NgXformModule</title>
<path fill="none" stroke="#000000" d="M1950,-122.0091C1950,-138.0494 1950,-159 1950,-159 1950,-159 1661.1976,-159 1661.1976,-159"/>
<polygon fill="#000000" stroke="#000000" points="1661.1976,-155.5001 1651.1976,-159 1661.1975,-162.5001 1661.1976,-155.5001"/>
</g>
<!-- MeasureFieldComponent -->
<g id="node8" class="node">
<title>MeasureFieldComponent</title>
<polygon fill="#ffffb3" stroke="#000000" points="1842.3047,-122 1683.6953,-122 1683.6953,-86 1842.3047,-86 1842.3047,-122"/>
<text text-anchor="middle" x="1763" y="-99.8" font-family="Times,serif" font-size="14.00" fill="#000000">MeasureFieldComponent</text>
</g>
<!-- MeasureFieldComponent&#45;&gt;NgXformModule -->
<g id="edge8" class="edge">
<title>MeasureFieldComponent&#45;&gt;NgXformModule</title>
<path fill="none" stroke="#000000" d="M1698.1364,-122.1243C1698.1364,-136.7832 1698.1364,-155 1698.1364,-155 1698.1364,-155 1661.2471,-155 1661.2471,-155"/>
<polygon fill="#000000" stroke="#000000" points="1661.2471,-151.5001 1651.2471,-155 1661.247,-158.5001 1661.2471,-151.5001"/>
</g>
<!-- SelectFieldComponent -->
<g id="node9" class="node">
<title>SelectFieldComponent</title>
<polygon fill="#ffffb3" stroke="#000000" points="1666.3188,-122 1521.6812,-122 1521.6812,-86 1666.3188,-86 1666.3188,-122"/>
<text text-anchor="middle" x="1594" y="-99.8" font-family="Times,serif" font-size="14.00" fill="#000000">SelectFieldComponent</text>
</g>
<!-- SelectFieldComponent&#45;&gt;NgXformModule -->
<g id="edge9" class="edge">
<title>SelectFieldComponent&#45;&gt;NgXformModule</title>
<path fill="none" stroke="#000000" d="M1594,-122.1061C1594,-122.1061 1594,-140.991 1594,-140.991"/>
<polygon fill="#000000" stroke="#000000" points="1590.5001,-140.9909 1594,-150.991 1597.5001,-140.991 1590.5001,-140.9909"/>
</g>
<!-- FieldErrorMessageComponent -->
<g id="node10" class="node">
<title>FieldErrorMessageComponent</title>
<polygon fill="#ffffb3" stroke="#000000" points="1504.1232,-122 1315.8768,-122 1315.8768,-86 1504.1232,-86 1504.1232,-122"/>
<text text-anchor="middle" x="1410" y="-99.8" font-family="Times,serif" font-size="14.00" fill="#000000">FieldErrorMessageComponent</text>
</g>
<!-- FieldErrorMessageComponent&#45;&gt;NgXformModule -->
<g id="edge10" class="edge">
<title>FieldErrorMessageComponent&#45;&gt;NgXformModule</title>
<path fill="none" stroke="#000000" d="M1490.08,-122.1243C1490.08,-136.7832 1490.08,-155 1490.08,-155 1490.08,-155 1526.8719,-155 1526.8719,-155"/>
<polygon fill="#000000" stroke="#000000" points="1526.8719,-158.5001 1536.8719,-155 1526.8718,-151.5001 1526.8719,-158.5001"/>
</g>
<!-- ErrorMessagePipe -->
<g id="node11" class="node">
<title>ErrorMessagePipe</title>
<polygon fill="#ffffb3" stroke="#000000" points="1297.9005,-122 1178.0995,-122 1178.0995,-86 1297.9005,-86 1297.9005,-122"/>
<text text-anchor="middle" x="1238" y="-99.8" font-family="Times,serif" font-size="14.00" fill="#000000">ErrorMessagePipe</text>
</g>
<!-- ErrorMessagePipe&#45;&gt;NgXformModule -->
<g id="edge11" class="edge">
<title>ErrorMessagePipe&#45;&gt;NgXformModule</title>
<path fill="none" stroke="#000000" d="M1293.3193,-122.0091C1293.3193,-138.0494 1293.3193,-159 1293.3193,-159 1293.3193,-159 1526.7365,-159 1526.7365,-159"/>
<polygon fill="#000000" stroke="#000000" points="1526.7365,-162.5001 1536.7365,-159 1526.7365,-155.5001 1526.7365,-162.5001"/>
</g>
<!-- MultilineFieldComponent -->
<g id="node12" class="node">
<title>MultilineFieldComponent</title>
<polygon fill="#ffffb3" stroke="#000000" points="1160.2232,-122 997.7768,-122 997.7768,-86 1160.2232,-86 1160.2232,-122"/>
<text text-anchor="middle" x="1079" y="-99.8" font-family="Times,serif" font-size="14.00" fill="#000000">MultilineFieldComponent</text>
</g>
<!-- MultilineFieldComponent&#45;&gt;NgXformModule -->
<g id="edge12" class="edge">
<title>MultilineFieldComponent&#45;&gt;NgXformModule</title>
<path fill="none" stroke="#000000" d="M1079,-122.0336C1079,-139.0597 1079,-162 1079,-162 1079,-162 1526.9183,-162 1526.9183,-162"/>
<polygon fill="#000000" stroke="#000000" points="1526.9183,-165.5001 1536.9183,-162 1526.9182,-158.5001 1526.9183,-165.5001"/>
</g>
<!-- OptionalTagComponent -->
<g id="node13" class="node">
<title>OptionalTagComponent</title>
<polygon fill="#ffffb3" stroke="#000000" points="980.0926,-122 827.9074,-122 827.9074,-86 980.0926,-86 980.0926,-122"/>
<text text-anchor="middle" x="904" y="-99.8" font-family="Times,serif" font-size="14.00" fill="#000000">OptionalTagComponent</text>
</g>
<!-- OptionalTagComponent&#45;&gt;NgXformModule -->
<g id="edge13" class="edge">
<title>OptionalTagComponent&#45;&gt;NgXformModule</title>
<path fill="none" stroke="#000000" d="M904,-122.2667C904,-140.5552 904,-166 904,-166 904,-166 1526.9474,-166 1526.9474,-166"/>
<polygon fill="#000000" stroke="#000000" points="1526.9474,-169.5001 1536.9474,-166 1526.9473,-162.5001 1526.9474,-169.5001"/>
</g>
<!-- DateFieldComponent -->
<g id="node14" class="node">
<title>DateFieldComponent</title>
<polygon fill="#ffffb3" stroke="#000000" points="810.038,-122 673.962,-122 673.962,-86 810.038,-86 810.038,-122"/>
<text text-anchor="middle" x="742" y="-99.8" font-family="Times,serif" font-size="14.00" fill="#000000">DateFieldComponent</text>
</g>
<!-- DateFieldComponent&#45;&gt;NgXformModule -->
<g id="edge14" class="edge">
<title>DateFieldComponent&#45;&gt;NgXformModule</title>
<path fill="none" stroke="#000000" d="M742,-122.1061C742,-141.3391 742,-169 742,-169 742,-169 1526.7749,-169 1526.7749,-169"/>
<polygon fill="#000000" stroke="#000000" points="1526.7749,-172.5001 1536.7749,-169 1526.7749,-165.5001 1526.7749,-172.5001"/>
</g>
<!-- DateRangeFieldComponent -->
<g id="node15" class="node">
<title>DateRangeFieldComponent</title>
<polygon fill="#ffffb3" stroke="#000000" points="656.3033,-122 483.6967,-122 483.6967,-86 656.3033,-86 656.3033,-122"/>
<text text-anchor="middle" x="570" y="-99.8" font-family="Times,serif" font-size="14.00" fill="#000000">DateRangeFieldComponent</text>
</g>
<!-- DateRangeFieldComponent&#45;&gt;NgXformModule -->
<g id="edge15" class="edge">
<title>DateRangeFieldComponent&#45;&gt;NgXformModule</title>
<path fill="none" stroke="#000000" d="M570,-122.1289C570,-142.5724 570,-173 570,-173 570,-173 1526.7511,-173 1526.7511,-173"/>
<polygon fill="#000000" stroke="#000000" points="1526.7512,-176.5001 1536.7511,-173 1526.7511,-169.5001 1526.7512,-176.5001"/>
</g>
<!-- FormControlLayoutComponent -->
<g id="node16" class="node">
<title>FormControlLayoutComponent</title>
<polygon fill="#ffffb3" stroke="#000000" points="466.1024,-122 271.8976,-122 271.8976,-86 466.1024,-86 466.1024,-122"/>
<text text-anchor="middle" x="369" y="-99.8" font-family="Times,serif" font-size="14.00" fill="#000000">FormControlLayoutComponent</text>
</g>
<!-- FormControlLayoutComponent&#45;&gt;NgXformModule -->
<g id="edge16" class="edge">
<title>FormControlLayoutComponent&#45;&gt;NgXformModule</title>
<path fill="none" stroke="#000000" d="M369,-122.0449C369,-143.6623 369,-177 369,-177 369,-177 1526.9663,-177 1526.9663,-177"/>
<polygon fill="#000000" stroke="#000000" points="1526.9663,-180.5001 1536.9663,-177 1526.9663,-173.5001 1526.9663,-180.5001"/>
</g>
<!-- EditSaveCancelButtonBarComponent -->
<g id="node17" class="node">
<title>EditSaveCancelButtonBarComponent</title>
<polygon fill="#ffffb3" stroke="#000000" points="253.5786,-122 24.4214,-122 24.4214,-86 253.5786,-86 253.5786,-122"/>
<text text-anchor="middle" x="139" y="-99.8" font-family="Times,serif" font-size="14.00" fill="#000000">EditSaveCancelButtonBarComponent</text>
</g>
<!-- EditSaveCancelButtonBarComponent&#45;&gt;NgXformModule -->
<g id="edge17" class="edge">
<title>EditSaveCancelButtonBarComponent&#45;&gt;NgXformModule</title>
<path fill="none" stroke="#000000" d="M139,-122.0109C139,-144.4852 139,-180 139,-180 139,-180 1526.9623,-180 1526.9623,-180"/>
<polygon fill="#000000" stroke="#000000" points="1526.9623,-183.5001 1536.9623,-180 1526.9622,-176.5001 1526.9623,-183.5001"/>
</g>
<!-- NgXformComponent  -->
<g id="node19" class="node">
<title>NgXformComponent </title>
<polygon fill="#fb8072" stroke="#000000" points="1846.7576,-252 1707.2424,-252 1707.2424,-216 1846.7576,-216 1846.7576,-252"/>
<text text-anchor="middle" x="1777" y="-229.8" font-family="Times,serif" font-size="14.00" fill="#000000">NgXformComponent </text>
</g>
<!-- NgXformModule&#45;&gt;NgXformComponent  -->
<g id="edge18" class="edge">
<title>NgXformModule&#45;&gt;NgXformComponent </title>
<path fill="none" stroke="#000000" stroke-dasharray="5,2" d="M1651.1941,-184C1704.1517,-184 1774.7618,-184 1774.7618,-184 1774.7618,-184 1774.7618,-205.9489 1774.7618,-205.9489"/>
<polygon fill="#000000" stroke="#000000" points="1771.2618,-205.9488 1774.7618,-215.9489 1778.2618,-205.9489 1771.2618,-205.9488"/>
</g>
<!-- NgXformEditSaveComponent  -->
<g id="node20" class="node">
<title>NgXformEditSaveComponent </title>
<polygon fill="#fb8072" stroke="#000000" points="1688.8031,-252 1499.1969,-252 1499.1969,-216 1688.8031,-216 1688.8031,-252"/>
<text text-anchor="middle" x="1594" y="-229.8" font-family="Times,serif" font-size="14.00" fill="#000000">NgXformEditSaveComponent </text>
</g>
<!-- NgXformModule&#45;&gt;NgXformEditSaveComponent  -->
<g id="edge19" class="edge">
<title>NgXformModule&#45;&gt;NgXformEditSaveComponent </title>
<path fill="none" stroke="#000000" stroke-dasharray="5,2" d="M1594,-187.1061C1594,-187.1061 1594,-205.991 1594,-205.991"/>
<polygon fill="#000000" stroke="#000000" points="1590.5001,-205.9909 1594,-215.991 1597.5001,-205.991 1590.5001,-205.9909"/>
</g>
<!-- FieldErrorMessageComponent  -->
<g id="node21" class="node">
<title>FieldErrorMessageComponent </title>
<polygon fill="#fb8072" stroke="#000000" points="1481.1228,-252 1288.8772,-252 1288.8772,-216 1481.1228,-216 1481.1228,-252"/>
<text text-anchor="middle" x="1385" y="-229.8" font-family="Times,serif" font-size="14.00" fill="#000000">FieldErrorMessageComponent </text>
</g>
<!-- NgXformModule&#45;&gt;FieldErrorMessageComponent  -->
<g id="edge20" class="edge">
<title>NgXformModule&#45;&gt;FieldErrorMessageComponent </title>
<path fill="none" stroke="#000000" stroke-dasharray="5,2" d="M1536.8913,-184C1479.1499,-184 1398.375,-184 1398.375,-184 1398.375,-184 1398.375,-205.9489 1398.375,-205.9489"/>
<polygon fill="#000000" stroke="#000000" points="1394.8751,-205.9488 1398.375,-215.9489 1401.8751,-205.9489 1394.8751,-205.9488"/>
</g>
</g>
</svg>
