<?xml version="1.0" encoding="UTF-8" standalone="no"?>
<!DOCTYPE svg PUBLIC "-//W3C//DTD SVG 1.1//EN"
 "http://www.w3.org/Graphics/SVG/1.1/DTD/svg11.dtd">
<!-- Generated by graphviz version 2.40.1 (20161225.0304)
 -->
<!-- Title: dependencies Pages: 1 -->
<svg width="504pt" height="284pt"
 viewBox="0.00 0.00 504.00 284.00" xmlns="http://www.w3.org/2000/svg" xmlns:xlink="http://www.w3.org/1999/xlink">
<g id="graph0" class="graph" transform="scale(1 1) rotate(0) translate(4 280)">
<title>dependencies</title>
<polygon fill="#ffffff" stroke="transparent" points="-4,4 -4,-280 500,-280 500,4 -4,4"/>
<text text-anchor="start" x="227.0091" y="-42.4" font-family="sans-serif" font-weight="bold" font-size="14.00" fill="#000000">Legend</text>
<polygon fill="#ffffb3" stroke="transparent" points="14,-10 14,-30 34,-30 34,-10 14,-10"/>
<text text-anchor="start" x="37.629" y="-15.4" font-family="sans-serif" font-size="14.00" fill="#000000"> &#160;Declarations</text>
<polygon fill="#8dd3c7" stroke="transparent" points="127,-10 127,-30 147,-30 147,-10 127,-10"/>
<text text-anchor="start" x="150.7251" y="-15.4" font-family="sans-serif" font-size="14.00" fill="#000000"> &#160;Module</text>
<polygon fill="#80b1d3" stroke="transparent" points="213,-10 213,-30 233,-30 233,-10 213,-10"/>
<text text-anchor="start" x="236.7812" y="-15.4" font-family="sans-serif" font-size="14.00" fill="#000000"> &#160;Bootstrap</text>
<polygon fill="#fdb462" stroke="transparent" points="310,-10 310,-30 330,-30 330,-10 310,-10"/>
<text text-anchor="start" x="333.6732" y="-15.4" font-family="sans-serif" font-size="14.00" fill="#000000"> &#160;Providers</text>
<polygon fill="#fb8072" stroke="transparent" points="406,-10 406,-30 426,-30 426,-10 406,-10"/>
<text text-anchor="start" x="429.7258" y="-15.4" font-family="sans-serif" font-size="14.00" fill="#000000"> &#160;Exports</text>
<g id="clust1" class="cluster">
<title>cluster_PipesModule</title>
<polygon fill="none" stroke="#000000" stroke-dasharray="1,5" points="118.5,-70 118.5,-268 377.5,-268 377.5,-70 118.5,-70"/>
</g>
<g id="clust2" class="cluster">
<title>cluster_PipesModule_declarations</title>
<polygon fill="none" stroke="#000000" points="130.5,-78 130.5,-130 366.5,-130 366.5,-78 130.5,-78"/>
</g>
<g id="clust6" class="cluster">
<title>cluster_PipesModule_exports</title>
<polygon fill="none" stroke="#000000" points="126.5,-208 126.5,-260 369.5,-260 369.5,-208 126.5,-208"/>
</g>
<!-- ForceUtcPipe -->
<g id="node1" class="node">
<title>ForceUtcPipe</title>
<polygon fill="#ffffb3" stroke="#000000" points="358.972,-122 266.028,-122 266.028,-86 358.972,-86 358.972,-122"/>
<text text-anchor="middle" x="312.5" y="-99.8" font-family="Times,serif" font-size="14.00" fill="#000000">ForceUtcPipe</text>
</g>
<!-- PipesModule -->
<g id="node3" class="node">
<title>PipesModule</title>
<polygon fill="#8dd3c7" stroke="#000000" points="238.3823,-187 235.3823,-191 214.3823,-191 211.3823,-187 148.6177,-187 148.6177,-151 238.3823,-151 238.3823,-187"/>
<text text-anchor="middle" x="193.5" y="-164.8" font-family="Times,serif" font-size="14.00" fill="#000000">PipesModule</text>
</g>
<!-- ForceUtcPipe&#45;&gt;PipesModule -->
<g id="edge1" class="edge">
<title>ForceUtcPipe&#45;&gt;PipesModule</title>
<path fill="none" stroke="#000000" d="M327.9953,-122.0225C327.9953,-139.3734 327.9953,-163 327.9953,-163 327.9953,-163 248.6591,-163 248.6591,-163"/>
<polygon fill="#000000" stroke="#000000" points="248.6592,-159.5001 238.6591,-163 248.6591,-166.5001 248.6592,-159.5001"/>
</g>
<!-- ValueSuffixPipe -->
<g id="node2" class="node">
<title>ValueSuffixPipe</title>
<polygon fill="#ffffb3" stroke="#000000" points="248.309,-122 138.691,-122 138.691,-86 248.309,-86 248.309,-122"/>
<text text-anchor="middle" x="193.5" y="-99.8" font-family="Times,serif" font-size="14.00" fill="#000000">ValueSuffixPipe</text>
</g>
<!-- ValueSuffixPipe&#45;&gt;PipesModule -->
<g id="edge2" class="edge">
<title>ValueSuffixPipe&#45;&gt;PipesModule</title>
<path fill="none" stroke="#000000" d="M193.5,-122.1061C193.5,-122.1061 193.5,-140.991 193.5,-140.991"/>
<polygon fill="#000000" stroke="#000000" points="190.0001,-140.9909 193.5,-150.991 197.0001,-140.991 190.0001,-140.9909"/>
</g>
<!-- ForceUtcPipe  -->
<g id="node4" class="node">
<title>ForceUtcPipe </title>
<polygon fill="#fb8072" stroke="#000000" points="361.9732,-252 265.0268,-252 265.0268,-216 361.9732,-216 361.9732,-252"/>
<text text-anchor="middle" x="313.5" y="-229.8" font-family="Times,serif" font-size="14.00" fill="#000000">ForceUtcPipe </text>
</g>
<!-- PipesModule&#45;&gt;ForceUtcPipe  -->
<g id="edge3" class="edge">
<title>PipesModule&#45;&gt;ForceUtcPipe </title>
<path fill="none" stroke="#000000" stroke-dasharray="5,2" d="M238.5976,-175C266.4899,-175 297.0047,-175 297.0047,-175 297.0047,-175 297.0047,-205.9775 297.0047,-205.9775"/>
<polygon fill="#000000" stroke="#000000" points="293.5048,-205.9774 297.0047,-215.9775 300.5048,-205.9775 293.5048,-205.9774"/>
</g>
<!-- ValueSuffixPipe  -->
<g id="node5" class="node">
<title>ValueSuffixPipe </title>
<polygon fill="#fb8072" stroke="#000000" points="246.8088,-252 134.1912,-252 134.1912,-216 246.8088,-216 246.8088,-252"/>
<text text-anchor="middle" x="190.5" y="-229.8" font-family="Times,serif" font-size="14.00" fill="#000000">ValueSuffixPipe </text>
</g>
<!-- PipesModule&#45;&gt;ValueSuffixPipe  -->
<g id="edge4" class="edge">
<title>PipesModule&#45;&gt;ValueSuffixPipe </title>
<path fill="none" stroke="#000000" stroke-dasharray="5,2" d="M193.5,-187.1061C193.5,-187.1061 193.5,-205.991 193.5,-205.991"/>
<polygon fill="#000000" stroke="#000000" points="190.0001,-205.9909 193.5,-215.991 197.0001,-205.991 190.0001,-205.9909"/>
</g>
</g>
</svg>
